<?xml version="1.0" encoding="utf-8"?>
<!-- Generator: Adobe Illustrator 16.0.0, SVG Export Plug-In . SVG Version: 6.00 Build 0)  -->
<!DOCTYPE svg PUBLIC "-//W3C//DTD SVG 1.1//EN" "http://www.w3.org/Graphics/SVG/1.1/DTD/svg11.dtd">
<svg version="1.1" xmlns="http://www.w3.org/2000/svg" xmlns:xlink="http://www.w3.org/1999/xlink" x="0px" y="0px" width="800px"
	 height="1000px" viewBox="0 0 800 1000" enable-background="new 0 0 800 1000" xml:space="preserve">
<g id="square" display="none">
	
		<rect x="127.965" y="227.966" transform="matrix(0.7071 0.7071 -0.7071 0.7071 470.7111 -136.3956)" display="inline" fill="#631E1E" width="544.069" height="544.068"/>
</g>
<g id="logo" display="none">
	<polygon display="inline" fill="#6BC394" points="15.285,500 400,115.286 784.715,500 	"/>
	<polygon display="inline" fill="#6BC394" points="491.934,500 253.756,738.473 15.581,500 	"/>
</g>
<g id="logo_single_link">
	<polygon fill="#6BC394" points="15.581,500 253.756,738.473 491.934,500 784.715,500 400,115.286 	"/>
</g>
<g id="logo_-_3" display="none">
	<polygon display="inline" fill="#4B76BA" points="342.768,500.086 178.985,663.649 15.285,500 	"/>
</g>
<g id="logo_-_5" display="none">
	<polygon display="inline" fill="#DF70AC" points="746.834,538 400.06,884.715 53.286,538 	"/>
	<polygon display="inline" fill="#DF70AC" points="53.286,462 400.06,115.286 746.834,462 	"/>
</g>
<g id="logo_-_4" display="none">
	<polygon display="inline" fill="#A5B7AD" points="15.438,462 400,77.286 784.563,462 	"/>
	<polygon display="inline" fill="#A5B7AD" points="783.258,538 399.271,922.715 15.285,538 	"/>
</g>
</svg>
