<svg width="1920" height="976" xmlns="http://www.w3.org/2000/svg"><g><path d="M-107,-16L-126,968L-122,862Z" fill="#a1d2c6" stroke="#a1d2c6"/><path d="M-107,-16L-122,862L-96,403Z" fill="#bdedc7" stroke="#bdedc7"/><path d="M-107,-16L-96,403L-74,48Z" fill="#e7fdc4" stroke="#e7fdc4"/><path d="M-107,-16L-74,48L37,51Z" fill="#f6fdc2" stroke="#f6fdc2"/><path d="M-107,-16L37,51L66,-115Z" fill="#f6fcc2" stroke="#f6fcc2"/><path d="M66,-115L37,51L181,-88Z" fill="#eef9c2" stroke="#eef9c2"/><path d="M66,-115L181,-88L325,-123Z" fill="#e6f5c2" stroke="#e6f5c2"/><path d="M181,-88L37,51L196,71Z" fill="#e8f7c3" stroke="#e8f7c3"/><path d="M181,-88L196,71L325,-123Z" fill="#e2f4c3" stroke="#e2f4c3"/><path d="M325,-123L196,71L357,74Z" fill="#dcf2c5" stroke="#dcf2c5"/><path d="M325,-123L357,74L509,-42Z" fill="#d4eec5" stroke="#d4eec5"/><path d="M325,-123L509,-42L682,-34Z" fill="#cbebc5" stroke="#cbebc5"/><path d="M325,-123L682,-34L855,-77Z" fill="#c1e7c6" stroke="#c1e7c6"/><path d="M325,-123L855,-77L1094,-100Z" fill="#b8dfc5" stroke="#b8dfc5"/><path d="M325,-123L1094,-100L1629,-107Z" fill="#a7cfc4" stroke="#a7cfc4"/><path d="M325,-123L1629,-107L2021,-116Z" fill="#93bdc4" stroke="#93bdc4"/><path d="M509,-42L357,74L477,90Z" fill="#c9ecc7" stroke="#c9ecc7"/><path d="M509,-42L477,90L682,-34Z" fill="#c6e9c7" stroke="#c6e9c7"/><path d="M682,-34L477,90L547,175Z" fill="#b9e8c8" stroke="#b9e8c8"/><path d="M682,-34L547,175L714,117Z" fill="#b1e4c9" stroke="#b1e4c9"/><path d="M682,-34L714,117L875,61Z" fill="#b0dfc8" stroke="#b0dfc8"/><path d="M682,-34L875,61L855,-77Z" fill="#b5dcc6" stroke="#b5dcc6"/><path d="M855,-77L875,61L972,-63Z" fill="#aed6c6" stroke="#aed6c6"/><path d="M855,-77L972,-63L1094,-100Z" fill="#aad2c5" stroke="#aad2c5"/><path d="M972,-63L875,61L991,121Z" fill="#a5d3c7" stroke="#a5d3c7"/><path d="M972,-63L991,121L1149,26Z" fill="#a1cec7" stroke="#a1cec7"/><path d="M972,-63L1149,26L1094,-100Z" fill="#a3ccc5" stroke="#a3ccc5"/><path d="M1094,-100L1149,26L1224,-33Z" fill="#9ec7c6" stroke="#9ec7c6"/><path d="M1094,-100L1224,-33L1395,-85Z" fill="#98c2c4" stroke="#98c2c4"/><path d="M1094,-100L1395,-85L1629,-107Z" fill="#90bac4" stroke="#90bac4"/><path d="M1224,-33L1149,26L1271,83Z" fill="#96c3c6" stroke="#96c3c6"/><path d="M1224,-33L1271,83L1395,-85Z" fill="#95bec6" stroke="#95bec6"/><path d="M1395,-85L1271,83L1439,71Z" fill="#8db9c6" stroke="#8db9c6"/><path d="M1395,-85L1439,71L1593,29Z" fill="#88b3c5" stroke="#88b3c5"/><path d="M1395,-85L1593,29L1629,-107Z" fill="#85afc4" stroke="#85afc4"/><path d="M1629,-107L1593,29L1674,55Z" fill="#80aac5" stroke="#80aac5"/><path d="M1629,-107L1674,55L1775,-16Z" fill="#80a6c4" stroke="#80a6c4"/><path d="M1629,-107L1775,-16L1907,-88Z" fill="#80a1c3" stroke="#80a1c3"/><path d="M1629,-107L1907,-88L2021,-116Z" fill="#809cc2" stroke="#809cc2"/><path d="M1775,-16L1674,55L1779,213Z" fill="#72a2c6" stroke="#72a2c6"/><path d="M1775,-16L1779,213L1913,45Z" fill="#739dc6" stroke="#739dc6"/><path d="M1775,-16L1913,45L1907,-88Z" fill="#809cc4" stroke="#809cc4"/><path d="M1907,-88L1913,45L2021,-116Z" fill="#8097c3" stroke="#8097c3"/><path d="M2021,-116L1913,45L2050,124Z" fill="#7d93c5" stroke="#7d93c5"/><path d="M2021,-116L2050,124L2064,227Z" fill="#7390c5" stroke="#7390c5"/><path d="M-74,48L-96,403L-26,239Z" fill="#d7fac6" stroke="#d7fac6"/><path d="M-74,48L-26,239L37,51Z" fill="#e6fbc4" stroke="#e6fbc4"/><path d="M37,51L-26,239L71,199Z" fill="#daf8c5" stroke="#daf8c5"/><path d="M37,51L71,199L196,71Z" fill="#ddf7c5" stroke="#ddf7c5"/><path d="M196,71L71,199L260,227Z" fill="#cdf3c7" stroke="#cdf3c7"/><path d="M196,71L260,227L357,74Z" fill="#cbf1c7" stroke="#cbf1c7"/><path d="M357,74L260,227L332,258Z" fill="#bdeec8" stroke="#bdeec8"/><path d="M357,74L332,258L477,90Z" fill="#beedc8" stroke="#beedc8"/><path d="M477,90L332,258L547,175Z" fill="#b3eac9" stroke="#b3eac9"/><path d="M714,117L547,175L619,245Z" fill="#a4e4cb" stroke="#a4e4cb"/><path d="M714,117L619,245L818,209Z" fill="#9cdfcb" stroke="#9cdfcb"/><path d="M714,117L818,209L875,61Z" fill="#a0dac9" stroke="#a0dac9"/><path d="M875,61L818,209L991,121Z" fill="#9ad5c9" stroke="#9ad5c9"/><path d="M991,121L818,209L1028,224Z" fill="#8ed1ca" stroke="#8ed1ca"/><path d="M991,121L1028,224L1110,205Z" fill="#88cbca" stroke="#88cbca"/><path d="M991,121L1110,205L1149,26Z" fill="#90c9c8" stroke="#90c9c8"/><path d="M1149,26L1110,205L1271,83Z" fill="#8cc4c8" stroke="#8cc4c8"/><path d="M1271,83L1110,205L1267,224Z" fill="#7ec1c9" stroke="#7ec1c9"/><path d="M1271,83L1267,224L1439,71Z" fill="#7fbac8" stroke="#7fbac8"/><path d="M1439,71L1267,224L1483,171Z" fill="#75b6c8" stroke="#75b6c8"/><path d="M1439,71L1483,171L1593,29Z" fill="#79b0c7" stroke="#79b0c7"/><path d="M1593,29L1483,171L1674,55Z" fill="#75abc7" stroke="#75abc7"/><path d="M1674,55L1483,171L1536,275Z" fill="#69abc8" stroke="#69abc8"/><path d="M1674,55L1536,275L1779,213Z" fill="#63a5c8" stroke="#63a5c8"/><path d="M1913,45L1779,213L1894,276Z" fill="#6399c8" stroke="#6399c8"/><path d="M1913,45L1894,276L2050,124Z" fill="#6894c7" stroke="#6894c7"/><path d="M2050,124L1894,276L2064,227Z" fill="#5e90c8" stroke="#5e90c8"/><path d="M-26,239L-96,403L72,376Z" fill="#c2f5c8" stroke="#c2f5c8"/><path d="M-26,239L72,376L71,199Z" fill="#c7f6c8" stroke="#c7f6c8"/><path d="M71,199L72,376L210,383Z" fill="#b9f3c9" stroke="#b9f3c9"/><path d="M71,199L210,383L260,227Z" fill="#bcf2c9" stroke="#bcf2c9"/><path d="M260,227L210,383L332,258Z" fill="#b1eeca" stroke="#b1eeca"/><path d="M332,258L210,383L365,334Z" fill="#a8edcb" stroke="#a8edcb"/><path d="M332,258L365,334L547,175Z" fill="#aaeaca" stroke="#aaeaca"/><path d="M547,175L365,334L510,401Z" fill="#9de7cb" stroke="#9de7cb"/><path d="M547,175L510,401L619,245Z" fill="#9be5cc" stroke="#9be5cc"/><path d="M619,245L510,401L709,397Z" fill="#8adfcd" stroke="#8adfcd"/><path d="M619,245L709,397L818,209Z" fill="#8dddcc" stroke="#8dddcc"/><path d="M818,209L709,397L848,428Z" fill="#7ed5cd" stroke="#7ed5cd"/><path d="M818,209L848,428L1031,345Z" fill="#7ad1cd" stroke="#7ad1cd"/><path d="M818,209L1031,345L1028,224Z" fill="#81cfcc" stroke="#81cfcc"/><path d="M1028,224L1031,345L1110,205Z" fill="#7bc9cb" stroke="#7bc9cb"/><path d="M1110,205L1031,345L1165,380Z" fill="#70c5cc" stroke="#70c5cc"/><path d="M1110,205L1165,380L1267,224Z" fill="#71c1cb" stroke="#71c1cb"/><path d="M1267,224L1165,380L1280,425Z" fill="#62bacc" stroke="#62bacc"/><path d="M1267,224L1280,425L1468,349Z" fill="#5db6cc" stroke="#5db6cc"/><path d="M1267,224L1468,349L1483,171Z" fill="#66b4ca" stroke="#66b4ca"/><path d="M1483,171L1468,349L1536,275Z" fill="#5daeca" stroke="#5daeca"/><path d="M1536,275L1468,349L1572,383Z" fill="#50aacb" stroke="#50aacb"/><path d="M1536,275L1572,383L1751,362Z" fill="#4aa4cb" stroke="#4aa4cb"/><path d="M1536,275L1751,362L1779,213Z" fill="#52a2ca" stroke="#52a2ca"/><path d="M1779,213L1751,362L1894,276Z" fill="#529bca" stroke="#529bca"/><path d="M1894,276L1751,362L1922,331Z" fill="#4c97ca" stroke="#4c97ca"/><path d="M1894,276L1922,331L2064,227Z" fill="#5391c9" stroke="#5391c9"/><path d="M2064,227L1922,331L2047,334Z" fill="#508eca" stroke="#508eca"/><path d="M2064,227L2047,334L2034,634Z" fill="#4181c9" stroke="#4181c9"/><path d="M2064,227L2034,634L2063,1147Z" fill="#175ac8" stroke="#175ac8"/><path d="M-96,403L-122,862L-87,495Z" fill="#a3d4c6" stroke="#a3d4c6"/><path d="M-96,403L-87,495L41,525Z" fill="#b0e3c7" stroke="#b0e3c7"/><path d="M-96,403L41,525L72,376Z" fill="#b1e7c8" stroke="#b1e7c8"/><path d="M72,376L41,525L210,383Z" fill="#a9e4c9" stroke="#a9e4c9"/><path d="M210,383L41,525L238,540Z" fill="#9cdbc9" stroke="#9cdbc9"/><path d="M210,383L238,540L365,334Z" fill="#9ce0ca" stroke="#9ce0ca"/><path d="M365,334L238,540L388,549Z" fill="#8fd6ca" stroke="#8fd6ca"/><path d="M365,334L388,549L510,401Z" fill="#8fdacb" stroke="#8fdacb"/><path d="M510,401L388,549L552,486Z" fill="#81d1cb" stroke="#81d1cb"/><path d="M510,401L552,486L664,478Z" fill="#7dd1cc" stroke="#7dd1cc"/><path d="M510,401L664,478L709,397Z" fill="#7dd3cd" stroke="#7dd3cd"/><path d="M709,397L664,478L848,428Z" fill="#74cccd" stroke="#74cccd"/><path d="M848,428L664,478L796,584Z" fill="#69c0cc" stroke="#69c0cc"/><path d="M848,428L796,584L961,656Z" fill="#59b2cb" stroke="#59b2cb"/><path d="M848,428L961,656L1034,469Z" fill="#5ab3cc" stroke="#5ab3cc"/><path d="M848,428L1034,469L1031,345Z" fill="#68c0cc" stroke="#68c0cc"/><path d="M1031,345L1034,469L1165,380Z" fill="#64bccc" stroke="#64bccc"/><path d="M1165,380L1034,469L1168,575Z" fill="#55aecb" stroke="#55aecb"/><path d="M1165,380L1168,575L1280,425Z" fill="#52abcb" stroke="#52abcb"/><path d="M1280,425L1168,575L1307,538Z" fill="#47a1cb" stroke="#47a1cb"/><path d="M1280,425L1307,538L1468,349Z" fill="#4ca6cb" stroke="#4ca6cb"/><path d="M1468,349L1307,538L1461,574Z" fill="#419bca" stroke="#419bca"/><path d="M1468,349L1461,574L1594,482Z" fill="#3d98ca" stroke="#3d98ca"/><path d="M1468,349L1594,482L1572,383Z" fill="#459fcb" stroke="#459fcb"/><path d="M1572,383L1594,482L1751,362Z" fill="#3f98ca" stroke="#3f98ca"/><path d="M1751,362L1594,482L1759,496Z" fill="#398fca" stroke="#398fca"/><path d="M1751,362L1759,496L1871,524Z" fill="#3787ca" stroke="#3787ca"/><path d="M1751,362L1871,524L1922,331Z" fill="#408cca" stroke="#408cca"/><path d="M1922,331L1871,524L2028,472Z" fill="#3a81ca" stroke="#3a81ca"/><path d="M1922,331L2028,472L2047,334Z" fill="#4486ca" stroke="#4486ca"/><path d="M2047,334L2028,472L2034,634Z" fill="#3476c9" stroke="#3476c9"/><path d="M-87,495L-122,862L-83,634Z" fill="#97c9c5" stroke="#97c9c5"/><path d="M-87,495L-83,634L41,525Z" fill="#a3d8c6" stroke="#a3d8c6"/><path d="M41,525L-83,634L77,679Z" fill="#96cdc6" stroke="#96cdc6"/><path d="M41,525L77,679L238,540Z" fill="#91cec8" stroke="#91cec8"/><path d="M238,540L77,679L212,702Z" fill="#83c3c8" stroke="#83c3c8"/><path d="M238,540L212,702L388,549Z" fill="#81c6c9" stroke="#81c6c9"/><path d="M388,549L212,702L386,722Z" fill="#74bcc9" stroke="#74bcc9"/><path d="M388,549L386,722L508,652Z" fill="#6ebbca" stroke="#6ebbca"/><path d="M388,549L508,652L552,486Z" fill="#75c5cb" stroke="#75c5cb"/><path d="M552,486L508,652L664,478Z" fill="#70c4cb" stroke="#70c4cb"/><path d="M664,478L508,652L703,692Z" fill="#62b9cc" stroke="#62b9cc"/><path d="M664,478L703,692L767,649Z" fill="#5cb4cc" stroke="#5cb4cc"/><path d="M664,478L767,649L796,584Z" fill="#5fb8cc" stroke="#5fb8cc"/><path d="M796,584L767,649L961,656Z" fill="#50a9cb" stroke="#50a9cb"/><path d="M1034,469L961,656L1168,575Z" fill="#4ca5cb" stroke="#4ca5cb"/><path d="M1168,575L961,656L1082,700Z" fill="#3f99ca" stroke="#3f99ca"/><path d="M1168,575L1082,700L1230,686Z" fill="#3892ca" stroke="#3892ca"/><path d="M1168,575L1230,686L1307,538Z" fill="#3b95ca" stroke="#3b95ca"/><path d="M1307,538L1230,686L1441,635Z" fill="#328dca" stroke="#328dca"/><path d="M1307,538L1441,635L1461,574Z" fill="#338eca" stroke="#338eca"/><path d="M1461,574L1441,635L1584,704Z" fill="#2480c9" stroke="#2480c9"/><path d="M1461,574L1584,704L1594,482Z" fill="#2884ca" stroke="#2884ca"/><path d="M1594,482L1584,704L1722,676Z" fill="#1f7ac9" stroke="#1f7ac9"/><path d="M1594,482L1722,676L1759,496Z" fill="#2981c9" stroke="#2981c9"/><path d="M1759,496L1722,676L1871,524Z" fill="#2779c9" stroke="#2779c9"/><path d="M1871,524L1722,676L1910,698Z" fill="#1d6cc8" stroke="#1d6cc8"/><path d="M1871,524L1910,698L2034,634Z" fill="#1f68c8" stroke="#1f68c8"/><path d="M1871,524L2034,634L2028,472Z" fill="#2b70c9" stroke="#2b70c9"/><path d="M-83,634L-122,862L44,839Z" fill="#82b7c5" stroke="#82b7c5"/><path d="M-83,634L44,839L77,679Z" fill="#86bec6" stroke="#86bec6"/><path d="M77,679L44,839L171,785Z" fill="#76b3c7" stroke="#76b3c7"/><path d="M77,679L171,785L212,702Z" fill="#79b8c7" stroke="#79b8c7"/><path d="M212,702L171,785L355,804Z" fill="#6bafc8" stroke="#6bafc8"/><path d="M212,702L355,804L386,722Z" fill="#67b0c8" stroke="#67b0c8"/><path d="M386,722L355,804L575,850Z" fill="#56a5c9" stroke="#56a5c9"/><path d="M386,722L575,850L508,652Z" fill="#59aaca" stroke="#59aaca"/><path d="M508,652L575,850L703,692Z" fill="#51a8ca" stroke="#51a8ca"/><path d="M703,692L575,850L664,858Z" fill="#439cca" stroke="#439cca"/><path d="M703,692L664,858L834,765Z" fill="#419bcb" stroke="#419bcb"/><path d="M703,692L834,765L767,649Z" fill="#49a3ca" stroke="#49a3ca"/><path d="M767,649L834,765L961,656Z" fill="#46a0cb" stroke="#46a0cb"/><path d="M961,656L834,765L1034,812Z" fill="#3892ca" stroke="#3892ca"/><path d="M961,656L1034,812L1082,700Z" fill="#3690ca" stroke="#3690ca"/><path d="M1082,700L1034,812L1114,858Z" fill="#2884c9" stroke="#2884c9"/><path d="M1082,700L1114,858L1230,686Z" fill="#2a86ca" stroke="#2a86ca"/><path d="M1230,686L1114,858L1264,828Z" fill="#207cc9" stroke="#207cc9"/><path d="M1230,686L1264,828L1400,845Z" fill="#1b77c9" stroke="#1b77c9"/><path d="M1230,686L1400,845L1441,635Z" fill="#207cc9" stroke="#207cc9"/><path d="M1441,635L1400,845L1525,815Z" fill="#1370c9" stroke="#1370c9"/><path d="M1441,635L1525,815L1584,704Z" fill="#1773c9" stroke="#1773c9"/><path d="M1584,704L1525,815L1665,832Z" fill="#0865c8" stroke="#0865c8"/><path d="M1584,704L1665,832L1722,676Z" fill="#0d68c8" stroke="#0d68c8"/><path d="M1722,676L1665,832L1848,769Z" fill="#0a5fc8" stroke="#0a5fc8"/><path d="M1722,676L1848,769L1910,698Z" fill="#1161c8" stroke="#1161c8"/><path d="M1910,698L1848,769L1975,819Z" fill="#0955c8" stroke="#0955c8"/><path d="M1910,698L1975,819L2034,634Z" fill="#1058c8" stroke="#1058c8"/><path d="M2034,634L1975,819L2043,1032Z" fill="#0045c7" stroke="#0045c7"/><path d="M2034,634L2043,1032L2063,1147Z" fill="#0033c6" stroke="#0033c6"/><path d="M-122,862L-126,968L44,839Z" fill="#7da8c4" stroke="#7da8c4"/><path d="M44,839L-126,968L86,963Z" fill="#77a0c5" stroke="#77a0c5"/><path d="M44,839L86,963L171,785Z" fill="#6ea6c6" stroke="#6ea6c6"/><path d="M171,785L86,963L271,999Z" fill="#689bc6" stroke="#689bc6"/><path d="M171,785L271,999L355,804Z" fill="#60a0c7" stroke="#60a0c7"/><path d="M355,804L271,999L354,958Z" fill="#5b96c7" stroke="#5b96c7"/><path d="M355,804L354,958L543,959Z" fill="#5395c8" stroke="#5395c8"/><path d="M355,804L543,959L575,850Z" fill="#4d97c9" stroke="#4d97c9"/><path d="M575,850L543,959L664,858Z" fill="#4491c9" stroke="#4491c9"/><path d="M664,858L543,959L687,1033Z" fill="#4088c9" stroke="#4088c9"/><path d="M664,858L687,1033L817,978Z" fill="#3a81c9" stroke="#3a81c9"/><path d="M664,858L817,978L834,765Z" fill="#378bc9" stroke="#378bc9"/><path d="M834,765L817,978L1034,812Z" fill="#2f86ca" stroke="#2f86ca"/><path d="M1034,812L817,978L971,1010Z" fill="#2c77c9" stroke="#2c77c9"/><path d="M1034,812L971,1010L1106,943Z" fill="#2673c9" stroke="#2673c9"/><path d="M1034,812L1106,943L1114,858Z" fill="#2377c9" stroke="#2377c9"/><path d="M1114,858L1106,943L1264,828Z" fill="#1e72c9" stroke="#1e72c9"/><path d="M1264,828L1106,943L1326,921Z" fill="#196bc8" stroke="#196bc8"/><path d="M1264,828L1326,921L1400,845Z" fill="#1369c8" stroke="#1369c8"/><path d="M1400,845L1326,921L1463,1010Z" fill="#0f5dc8" stroke="#0f5dc8"/><path d="M1400,845L1463,1010L1525,815Z" fill="#0a5ec8" stroke="#0a5ec8"/><path d="M1525,815L1463,1010L1552,1030Z" fill="#0752c7" stroke="#0752c7"/><path d="M1525,815L1552,1030L1674,942Z" fill="#0351c8" stroke="#0351c8"/><path d="M1525,815L1674,942L1665,832Z" fill="#0058c7" stroke="#0058c7"/><path d="M1665,832L1674,942L1848,769Z" fill="#0053c8" stroke="#0053c8"/><path d="M1848,769L1674,942L1885,1017Z" fill="#0046c7" stroke="#0046c7"/><path d="M1848,769L1885,1017L1975,819Z" fill="#0046c7" stroke="#0046c7"/><path d="M1975,819L1885,1017L2043,1032Z" fill="#0035c6" stroke="#0035c6"/><path d="M-126,968L-32,1121L86,963Z" fill="#7994c4" stroke="#7994c4"/><path d="M86,963L-32,1121L59,1151Z" fill="#7488c4" stroke="#7488c4"/><path d="M86,963L59,1151L260,1135Z" fill="#6b85c5" stroke="#6b85c5"/><path d="M86,963L260,1135L271,999Z" fill="#658ac5" stroke="#658ac5"/><path d="M271,999L260,1135L428,1076Z" fill="#5b81c6" stroke="#5b81c6"/><path d="M271,999L428,1076L354,958Z" fill="#5988c7" stroke="#5988c7"/><path d="M354,958L428,1076L543,959Z" fill="#5187c8" stroke="#5187c8"/><path d="M543,959L428,1076L524,1094Z" fill="#4c7fc8" stroke="#4c7fc8"/><path d="M543,959L524,1094L687,1033Z" fill="#457ec8" stroke="#457ec8"/><path d="M687,1033L524,1094L686,1141Z" fill="#4073c9" stroke="#4073c9"/><path d="M687,1033L686,1141L868,1166Z" fill="#3969c8" stroke="#3969c8"/><path d="M687,1033L868,1166L817,978Z" fill="#366ec8" stroke="#366ec8"/><path d="M817,978L868,1166L971,1010Z" fill="#3069c8" stroke="#3069c8"/><path d="M971,1010L868,1166L1002,1116Z" fill="#2c5fc8" stroke="#2c5fc8"/><path d="M971,1010L1002,1116L1106,943Z" fill="#2765c8" stroke="#2765c8"/><path d="M1106,943L1002,1116L1094,1170Z" fill="#245bc8" stroke="#245bc8"/><path d="M1106,943L1094,1170L1311,1152Z" fill="#1d53c8" stroke="#1d53c8"/><path d="M1106,943L1311,1152L1326,921Z" fill="#185ac8" stroke="#185ac8"/><path d="M1326,921L1311,1152L1463,1010Z" fill="#114fc7" stroke="#114fc7"/><path d="M1463,1010L1311,1152L1380,1164Z" fill="#0f43c7" stroke="#0f43c7"/><path d="M1463,1010L1380,1164L1552,1030Z" fill="#0a43c7" stroke="#0a43c7"/><path d="M1552,1030L1380,1164L1612,1109Z" fill="#073cc6" stroke="#073cc6"/><path d="M1552,1030L1612,1109L1674,942Z" fill="#0140c6" stroke="#0140c6"/><path d="M1674,942L1612,1109L1775,1175Z" fill="#0035c6" stroke="#0035c6"/><path d="M1674,942L1775,1175L1885,1017Z" fill="#0034c6" stroke="#0034c6"/><path d="M1885,1017L1775,1175L1922,1072Z" fill="#0029c6" stroke="#0029c6"/><path d="M1885,1017L1922,1072L2043,1032Z" fill="#002ac6" stroke="#002ac6"/><path d="M2043,1032L1922,1072L2063,1147Z" fill="#0020c6" stroke="#0020c6"/><path d="M59,1151L868,1166L260,1135Z" fill="#5572c6" stroke="#5572c6"/><path d="M260,1135L868,1166L686,1141Z" fill="#436bc8" stroke="#436bc8"/><path d="M260,1135L686,1141L524,1094Z" fill="#4d73c7" stroke="#4d73c7"/><path d="M260,1135L524,1094L428,1076Z" fill="#5479c6" stroke="#5479c6"/><path d="M868,1166L1094,1170L1002,1116Z" fill="#2955c7" stroke="#2955c7"/><path d="M1094,1170L1775,1175L1380,1164Z" fill="#0d38c6" stroke="#0d38c6"/><path d="M1094,1170L1380,1164L1311,1152Z" fill="#1742c7" stroke="#1742c7"/><path d="M1380,1164L1775,1175L1612,1109Z" fill="#0230c6" stroke="#0230c6"/><path d="M1775,1175L2063,1147L1922,1072Z" fill="#001fc5" stroke="#001fc5"/></g></svg>