<svg width="1920" height="976" xmlns="http://www.w3.org/2000/svg"><g><path d="M-43,-24L-120,78L67,121Z" fill="#ffeadf" stroke="#ffeadf"/><path d="M-43,-24L67,121L170,37Z" fill="#ffe6d9" stroke="#ffe6d9"/><path d="M-43,-24L170,37L96,-112Z" fill="#ffebe3" stroke="#ffebe3"/><path d="M96,-112L170,37L183,-132Z" fill="#ffe7de" stroke="#ffe7de"/><path d="M183,-132L170,37L364,-103Z" fill="#fee1d7" stroke="#fee1d7"/><path d="M183,-132L364,-103L508,-111Z" fill="#fedace" stroke="#fedace"/><path d="M183,-132L508,-111L1091,-108Z" fill="#feccbc" stroke="#feccbc"/><path d="M183,-132L1091,-108L1701,-134Z" fill="#f6ada4" stroke="#f6ada4"/><path d="M364,-103L170,37L369,133Z" fill="#fedacc" stroke="#fedacc"/><path d="M364,-103L369,133L531,95Z" fill="#fed1bf" stroke="#fed1bf"/><path d="M364,-103L531,95L508,-111Z" fill="#fed3c6" stroke="#fed3c6"/><path d="M508,-111L531,95L638,-88Z" fill="#fecebf" stroke="#fecebf"/><path d="M508,-111L638,-88L1091,-108Z" fill="#fbc0b2" stroke="#fbc0b2"/><path d="M638,-88L531,95L648,125Z" fill="#fec5b1" stroke="#fec5b1"/><path d="M638,-88L648,125L812,-68Z" fill="#fcc4b5" stroke="#fcc4b5"/><path d="M638,-88L812,-68L1091,-108Z" fill="#f9b8ac" stroke="#f9b8ac"/><path d="M812,-68L648,125L845,57Z" fill="#fbbaa8" stroke="#fbbaa8"/><path d="M812,-68L845,57L994,-66Z" fill="#f8b6aa" stroke="#f8b6aa"/><path d="M812,-68L994,-66L1091,-108Z" fill="#f6afa5" stroke="#f6afa5"/><path d="M994,-66L845,57L1016,17Z" fill="#f6b0a3" stroke="#f6b0a3"/><path d="M994,-66L1016,17L1091,-108Z" fill="#f5aaa1" stroke="#f5aaa1"/><path d="M1091,-108L1016,17L1184,53Z" fill="#f3a59d" stroke="#f3a59d"/><path d="M1091,-108L1184,53L1243,-32Z" fill="#f19f99" stroke="#f19f99"/><path d="M1091,-108L1243,-32L1388,-18Z" fill="#f09995" stroke="#f09995"/><path d="M1091,-108L1388,-18L1701,-134Z" fill="#ec8d8c" stroke="#ec8d8c"/><path d="M1243,-32L1184,53L1246,34Z" fill="#f09891" stroke="#f09891"/><path d="M1243,-32L1246,34L1388,-18Z" fill="#ee9591" stroke="#ee9591"/><path d="M1388,-18L1246,34L1393,41Z" fill="#ed8f89" stroke="#ed8f89"/><path d="M1388,-18L1393,41L1548,114Z" fill="#eb847f" stroke="#eb847f"/><path d="M1388,-18L1548,114L1622,-55Z" fill="#e98280" stroke="#e98280"/><path d="M1388,-18L1622,-55L1701,-134Z" fill="#e88082" stroke="#e88082"/><path d="M1622,-55L1548,114L1710,122Z" fill="#e77873" stroke="#e77873"/><path d="M1622,-55L1710,122L1861,21Z" fill="#e47c78" stroke="#e47c78"/><path d="M1622,-55L1861,21L1701,-134Z" fill="#e48080" stroke="#e48080"/><path d="M1701,-134L1861,21L1926,-33Z" fill="#e28080" stroke="#e28080"/><path d="M1701,-134L1926,-33L2054,-82Z" fill="#e08080" stroke="#e08080"/><path d="M1926,-33L1861,21L1970,32Z" fill="#e07f7c" stroke="#e07f7c"/><path d="M1926,-33L1970,32L2054,-82Z" fill="#de8080" stroke="#de8080"/><path d="M2054,-82L1970,32L2076,169Z" fill="#dd7b76" stroke="#dd7b76"/><path d="M-120,78L-120,1144L-112,261Z" fill="#ffaf9f" stroke="#ffaf9f"/><path d="M-120,78L-112,261L67,121Z" fill="#ffe0cf" stroke="#ffe0cf"/><path d="M67,121L-112,261L26,279Z" fill="#ffd5c0" stroke="#ffd5c0"/><path d="M67,121L26,279L277,245Z" fill="#ffcdb8" stroke="#ffcdb8"/><path d="M67,121L277,245L170,37Z" fill="#fed5c2" stroke="#fed5c2"/><path d="M170,37L277,245L369,133Z" fill="#feceba" stroke="#feceba"/><path d="M369,133L277,245L320,264Z" fill="#fec2a9" stroke="#fec2a9"/><path d="M369,133L320,264L467,323Z" fill="#feba9f" stroke="#feba9f"/><path d="M369,133L467,323L556,262Z" fill="#feb599" stroke="#feb599"/><path d="M369,133L556,262L531,95Z" fill="#febea5" stroke="#febea5"/><path d="M531,95L556,262L648,125Z" fill="#feb99f" stroke="#feb99f"/><path d="M648,125L556,262L664,268Z" fill="#feaf91" stroke="#feaf91"/><path d="M648,125L664,268L779,277Z" fill="#fca88c" stroke="#fca88c"/><path d="M648,125L779,277L845,57Z" fill="#fbac94" stroke="#fbac94"/><path d="M845,57L779,277L998,223Z" fill="#f89f88" stroke="#f89f88"/><path d="M845,57L998,223L1016,17Z" fill="#f6a492" stroke="#f6a492"/><path d="M1016,17L998,223L1089,250Z" fill="#f59582" stroke="#f59582"/><path d="M1016,17L1089,250L1184,53Z" fill="#f39789" stroke="#f39789"/><path d="M1184,53L1089,250L1301,186Z" fill="#f18979" stroke="#f18979"/><path d="M1184,53L1301,186L1246,34Z" fill="#f08e82" stroke="#f08e82"/><path d="M1246,34L1301,186L1393,41Z" fill="#ee897f" stroke="#ee897f"/><path d="M1393,41L1301,186L1404,276Z" fill="#ed7a6e" stroke="#ed7a6e"/><path d="M1393,41L1404,276L1548,114Z" fill="#eb776d" stroke="#eb776d"/><path d="M1548,114L1404,276L1554,205Z" fill="#ea6c61" stroke="#ea6c61"/><path d="M1548,114L1554,205L1710,122Z" fill="#e76d63" stroke="#e76d63"/><path d="M1710,122L1554,205L1757,281Z" fill="#e6675a" stroke="#e6675a"/><path d="M1710,122L1757,281L1900,278Z" fill="#e36355" stroke="#e36355"/><path d="M1710,122L1900,278L1861,21Z" fill="#e26e65" stroke="#e26e65"/><path d="M1861,21L1900,278L1970,32Z" fill="#e0726a" stroke="#e0726a"/><path d="M1970,32L1900,278L2076,169Z" fill="#de6c61" stroke="#de6c61"/><path d="M-112,261L-120,1144L-102,561Z" fill="#ff9188" stroke="#ff9188"/><path d="M-112,261L-102,561L-104,393Z" fill="#ffbfaa" stroke="#ffbfaa"/><path d="M-112,261L-104,393L26,279Z" fill="#ffcdb5" stroke="#ffcdb5"/><path d="M26,279L-104,393L109,371Z" fill="#ffc3a9" stroke="#ffc3a9"/><path d="M26,279L109,371L277,245Z" fill="#ffc2a7" stroke="#ffc2a7"/><path d="M277,245L109,371L206,414Z" fill="#feb89c" stroke="#feb89c"/><path d="M277,245L206,414L345,352Z" fill="#feb497" stroke="#feb497"/><path d="M277,245L345,352L320,264Z" fill="#feb99c" stroke="#feb99c"/><path d="M320,264L345,352L467,323Z" fill="#feb293" stroke="#feb293"/><path d="M556,262L467,323L676,338Z" fill="#fea786" stroke="#fea786"/><path d="M556,262L676,338L664,268Z" fill="#fea584" stroke="#fea584"/><path d="M664,268L676,338L779,277Z" fill="#fc9f7f" stroke="#fc9f7f"/><path d="M779,277L676,338L824,324Z" fill="#fb9878" stroke="#fb9878"/><path d="M779,277L824,324L998,223Z" fill="#f89579" stroke="#f89579"/><path d="M998,223L824,324L977,416Z" fill="#f78a6d" stroke="#f78a6d"/><path d="M998,223L977,416L1089,250Z" fill="#f5866c" stroke="#f5866c"/><path d="M1089,250L977,416L1125,392Z" fill="#f47a60" stroke="#f47a60"/><path d="M1089,250L1125,392L1232,372Z" fill="#f2765d" stroke="#f2765d"/><path d="M1089,250L1232,372L1301,186Z" fill="#f07a66" stroke="#f07a66"/><path d="M1301,186L1232,372L1404,276Z" fill="#ee715e" stroke="#ee715e"/><path d="M1404,276L1232,372L1390,405Z" fill="#ed6450" stroke="#ed6450"/><path d="M1404,276L1390,405L1567,418Z" fill="#eb5947" stroke="#eb5947"/><path d="M1404,276L1567,418L1554,205Z" fill="#e95f4e" stroke="#e95f4e"/><path d="M1554,205L1567,418L1757,281Z" fill="#e75a48" stroke="#e75a48"/><path d="M1757,281L1567,418L1780,401Z" fill="#e5503e" stroke="#e5503e"/><path d="M1757,281L1780,401L1845,317Z" fill="#e35643" stroke="#e35643"/><path d="M1757,281L1845,317L1900,278Z" fill="#e25b4a" stroke="#e25b4a"/><path d="M1900,278L1845,317L2044,433Z" fill="#e05442" stroke="#e05442"/><path d="M1900,278L2044,433L2076,169Z" fill="#de5b4a" stroke="#de5b4a"/><path d="M2076,169L2044,433L2061,631Z" fill="#dc4738" stroke="#dc4738"/><path d="M2076,169L2061,631L2082,943Z" fill="#dc2820" stroke="#dc2820"/><path d="M-104,393L-102,561L51,564Z" fill="#ffa998" stroke="#ffa998"/><path d="M-104,393L51,564L109,371Z" fill="#ffb09b" stroke="#ffb09b"/><path d="M109,371L51,564L206,414Z" fill="#ffa993" stroke="#ffa993"/><path d="M206,414L51,564L276,484Z" fill="#fe9e89" stroke="#fe9e89"/><path d="M206,414L276,484L345,352Z" fill="#fea58c" stroke="#fea58c"/><path d="M345,352L276,484L367,536Z" fill="#fe9b82" stroke="#fe9b82"/><path d="M345,352L367,536L467,323Z" fill="#fea185" stroke="#fea185"/><path d="M467,323L367,536L549,563Z" fill="#fe9076" stroke="#fe9076"/><path d="M467,323L549,563L633,493Z" fill="#fe8d71" stroke="#fe8d71"/><path d="M467,323L633,493L676,338Z" fill="#fe9878" stroke="#fe9878"/><path d="M676,338L633,493L782,485Z" fill="#fc876a" stroke="#fc876a"/><path d="M676,338L782,485L824,324Z" fill="#fb8c6e" stroke="#fb8c6e"/><path d="M824,324L782,485L945,469Z" fill="#f97d63" stroke="#f97d63"/><path d="M824,324L945,469L977,416Z" fill="#f77c62" stroke="#f77c62"/><path d="M977,416L945,469L1109,483Z" fill="#f56b55" stroke="#f56b55"/><path d="M977,416L1109,483L1125,392Z" fill="#f46b55" stroke="#f46b55"/><path d="M1125,392L1109,483L1232,372Z" fill="#f26752" stroke="#f26752"/><path d="M1232,372L1109,483L1315,570Z" fill="#f05746" stroke="#f05746"/><path d="M1232,372L1315,570L1397,503Z" fill="#ee4e3f" stroke="#ee4e3f"/><path d="M1232,372L1397,503L1390,405Z" fill="#ed5646" stroke="#ed5646"/><path d="M1390,405L1397,503L1567,418Z" fill="#eb4b3d" stroke="#eb4b3d"/><path d="M1567,418L1397,503L1540,561Z" fill="#ea3d33" stroke="#ea3d33"/><path d="M1567,418L1540,561L1673,575Z" fill="#e7332a" stroke="#e7332a"/><path d="M1567,418L1673,575L1780,401Z" fill="#e63d31" stroke="#e63d31"/><path d="M1780,401L1673,575L1909,513Z" fill="#e3372c" stroke="#e3372c"/><path d="M1780,401L1909,513L1845,317Z" fill="#e24738" stroke="#e24738"/><path d="M1845,317L1909,513L2044,433Z" fill="#df4537" stroke="#df4537"/><path d="M2044,433L1909,513L2048,535Z" fill="#de382d" stroke="#de382d"/><path d="M2044,433L2048,535L2061,631Z" fill="#dd3127" stroke="#dd3127"/><path d="M-102,561L-120,1144L-61,729Z" fill="#ff7670" stroke="#ff7670"/><path d="M-102,561L-61,729L51,564Z" fill="#ff9387" stroke="#ff9387"/><path d="M51,564L-61,729L85,658Z" fill="#ff897e" stroke="#ff897e"/><path d="M51,564L85,658L206,677Z" fill="#ff877a" stroke="#ff877a"/><path d="M51,564L206,677L276,484Z" fill="#fe8e7d" stroke="#fe8e7d"/><path d="M276,484L206,677L367,536Z" fill="#fe8a77" stroke="#fe8a77"/><path d="M367,536L206,677L415,620Z" fill="#fe7e6d" stroke="#fe7e6d"/><path d="M367,536L415,620L549,563Z" fill="#fe7e69" stroke="#fe7e69"/><path d="M549,563L415,620L536,735Z" fill="#fe6e5c" stroke="#fe6e5c"/><path d="M549,563L536,735L643,711Z" fill="#fe6452" stroke="#fe6452"/><path d="M549,563L643,711L633,493Z" fill="#fe715b" stroke="#fe715b"/><path d="M633,493L643,711L767,628Z" fill="#fd6853" stroke="#fd6853"/><path d="M633,493L767,628L782,485Z" fill="#fc725b" stroke="#fc725b"/><path d="M782,485L767,628L921,621Z" fill="#f9634f" stroke="#f9634f"/><path d="M782,485L921,621L945,469Z" fill="#f86853" stroke="#f86853"/><path d="M945,469L921,621L1109,483Z" fill="#f6604c" stroke="#f6604c"/><path d="M1109,483L921,621L1105,694Z" fill="#f44d3f" stroke="#f44d3f"/><path d="M1109,483L1105,694L1224,705Z" fill="#f24035" stroke="#f24035"/><path d="M1109,483L1224,705L1315,570Z" fill="#f04237" stroke="#f04237"/><path d="M1315,570L1224,705L1407,678Z" fill="#ee2e28" stroke="#ee2e28"/><path d="M1315,570L1407,678L1397,503Z" fill="#ed362e" stroke="#ed362e"/><path d="M1397,503L1407,678L1540,561Z" fill="#eb312a" stroke="#eb312a"/><path d="M1540,561L1407,678L1567,726Z" fill="#e91f1c" stroke="#e91f1c"/><path d="M1540,561L1567,726L1673,575Z" fill="#e7201b" stroke="#e7201b"/><path d="M1673,575L1567,726L1706,723Z" fill="#e61613" stroke="#e61613"/><path d="M1673,575L1706,723L1875,723Z" fill="#e41614" stroke="#e41614"/><path d="M1673,575L1875,723L1909,513Z" fill="#e2231d" stroke="#e2231d"/><path d="M1909,513L1875,723L2061,631Z" fill="#df201b" stroke="#df201b"/><path d="M1909,513L2061,631L2048,535Z" fill="#de2c23" stroke="#de2c23"/><path d="M-61,729L-120,1144L-46,835Z" fill="#ff756f" stroke="#ff756f"/><path d="M-61,729L-46,835L85,658Z" fill="#ff7b74" stroke="#ff7b74"/><path d="M85,658L-46,835L98,884Z" fill="#ff6d68" stroke="#ff6d68"/><path d="M85,658L98,884L195,841Z" fill="#ff6962" stroke="#ff6962"/><path d="M85,658L195,841L206,677Z" fill="#fe7369" stroke="#fe7369"/><path d="M206,677L195,841L353,843Z" fill="#fe625a" stroke="#fe625a"/><path d="M206,677L353,843L415,620Z" fill="#fe6b5e" stroke="#fe6b5e"/><path d="M415,620L353,843L536,735Z" fill="#fe6154" stroke="#fe6154"/><path d="M536,735L353,843L540,811Z" fill="#fe5348" stroke="#fe5348"/><path d="M536,735L540,811L643,711Z" fill="#fe5547" stroke="#fe5547"/><path d="M643,711L540,811L665,858Z" fill="#fe4b3e" stroke="#fe4b3e"/><path d="M643,711L665,858L840,825Z" fill="#fc4337" stroke="#fc4337"/><path d="M643,711L840,825L767,628Z" fill="#fb4e3f" stroke="#fb4e3f"/><path d="M767,628L840,825L921,621Z" fill="#f94c3e" stroke="#f94c3e"/><path d="M921,621L840,825L941,840Z" fill="#f83b31" stroke="#f83b31"/><path d="M921,621L941,840L1105,694Z" fill="#f63c32" stroke="#f63c32"/><path d="M1105,694L941,840L1146,822Z" fill="#f42924" stroke="#f42924"/><path d="M1105,694L1146,822L1224,705Z" fill="#f22a24" stroke="#f22a24"/><path d="M1224,705L1146,822L1273,872Z" fill="#f01c19" stroke="#f01c19"/><path d="M1224,705L1273,872L1407,678Z" fill="#ee1d1a" stroke="#ee1d1a"/><path d="M1407,678L1273,872L1367,885Z" fill="#ed110f" stroke="#ed110f"/><path d="M1407,678L1367,885L1572,828Z" fill="#eb090b" stroke="#eb090b"/><path d="M1407,678L1572,828L1567,726Z" fill="#e90d0f" stroke="#e90d0f"/><path d="M1567,726L1572,828L1698,811Z" fill="#e70103" stroke="#e70103"/><path d="M1567,726L1698,811L1706,723Z" fill="#e60808" stroke="#e60808"/><path d="M1706,723L1698,811L1833,863Z" fill="#e40002" stroke="#e40002"/><path d="M1706,723L1833,863L1875,723Z" fill="#e20506" stroke="#e20506"/><path d="M1875,723L1833,863L2056,829Z" fill="#e00001" stroke="#e00001"/><path d="M1875,723L2056,829L2061,631Z" fill="#de0c0c" stroke="#de0c0c"/><path d="M2061,631L2056,829L2082,943Z" fill="#dc0002" stroke="#dc0002"/><path d="M-46,835L-120,1144L-32,962Z" fill="#ff746e" stroke="#ff746e"/><path d="M-46,835L-32,962L98,884Z" fill="#ff7069" stroke="#ff7069"/><path d="M98,884L-32,962L94,994Z" fill="#ff6d65" stroke="#ff6d65"/><path d="M98,884L94,994L175,927Z" fill="#ff6960" stroke="#ff6960"/><path d="M98,884L175,927L195,841Z" fill="#ff675e" stroke="#ff675e"/><path d="M195,841L175,927L339,938Z" fill="#fe6258" stroke="#fe6258"/><path d="M195,841L339,938L353,843Z" fill="#fe5e53" stroke="#fe5e53"/><path d="M353,843L339,938L555,929Z" fill="#fe574a" stroke="#fe574a"/><path d="M353,843L555,929L540,811Z" fill="#fe5345" stroke="#fe5345"/><path d="M540,811L555,929L665,858Z" fill="#fe4d3d" stroke="#fe4d3d"/><path d="M665,858L555,929L682,958Z" fill="#fe4a3a" stroke="#fe4a3a"/><path d="M665,858L682,958L794,965Z" fill="#fc4335" stroke="#fc4335"/><path d="M665,858L794,965L840,825Z" fill="#fb3f32" stroke="#fb3f32"/><path d="M840,825L794,965L941,840Z" fill="#f9382c" stroke="#f9382c"/><path d="M941,840L794,965L974,1028Z" fill="#f8342a" stroke="#f8342a"/><path d="M941,840L974,1028L1163,955Z" fill="#f52b22" stroke="#f52b22"/><path d="M941,840L1163,955L1146,822Z" fill="#f3261f" stroke="#f3261f"/><path d="M1146,822L1163,955L1247,918Z" fill="#f11e19" stroke="#f11e19"/><path d="M1146,822L1247,918L1273,872Z" fill="#f01b17" stroke="#f01b17"/><path d="M1273,872L1247,918L1367,885Z" fill="#ee1612" stroke="#ee1612"/><path d="M1367,885L1247,918L1328,1105Z" fill="#ee1411" stroke="#ee1411"/><path d="M1367,885L1328,1105L1479,988Z" fill="#ec0e0d" stroke="#ec0e0d"/><path d="M1367,885L1479,988L1572,828Z" fill="#ea0808" stroke="#ea0808"/><path d="M1572,828L1479,988L1592,930Z" fill="#e80203" stroke="#e80203"/><path d="M1572,828L1592,930L1698,811Z" fill="#e70000" stroke="#e70000"/><path d="M1698,811L1592,930L1743,1030Z" fill="#e50000" stroke="#e50000"/><path d="M1698,811L1743,1030L1833,863Z" fill="#e40000" stroke="#e40000"/><path d="M1833,863L1743,1030L1879,1026Z" fill="#e20000" stroke="#e20000"/><path d="M1833,863L1879,1026L2082,943Z" fill="#df0000" stroke="#df0000"/><path d="M1833,863L2082,943L2056,829Z" fill="#de0000" stroke="#de0000"/><path d="M-32,962L-120,1144L84,1164Z" fill="#ff726b" stroke="#ff726b"/><path d="M-32,962L84,1164L94,994Z" fill="#ff6d66" stroke="#ff6d66"/><path d="M94,994L84,1164L224,1128Z" fill="#ff685f" stroke="#ff685f"/><path d="M94,994L224,1128L175,927Z" fill="#fe665d" stroke="#fe665d"/><path d="M175,927L224,1128L339,938Z" fill="#fe6157" stroke="#fe6157"/><path d="M339,938L224,1128L335,1135Z" fill="#fe5e53" stroke="#fe5e53"/><path d="M339,938L335,1135L555,929Z" fill="#fe574b" stroke="#fe574b"/><path d="M555,929L335,1135L562,1168Z" fill="#fe5345" stroke="#fe5345"/><path d="M555,929L562,1168L685,1094Z" fill="#fe4c3c" stroke="#fe4c3c"/><path d="M555,929L685,1094L682,958Z" fill="#fe4939" stroke="#fe4939"/><path d="M682,958L685,1094L794,965Z" fill="#fc4334" stroke="#fc4334"/><path d="M794,965L685,1094L858,1119Z" fill="#fa3e31" stroke="#fa3e31"/><path d="M794,965L858,1119L974,1028Z" fill="#f8372b" stroke="#f8372b"/><path d="M974,1028L858,1119L970,1147Z" fill="#f73228" stroke="#f73228"/><path d="M974,1028L970,1147L1168,1125Z" fill="#f42a22" stroke="#f42a22"/><path d="M974,1028L1168,1125L1163,955Z" fill="#f3251e" stroke="#f3251e"/><path d="M1163,955L1168,1125L1328,1105Z" fill="#f01c17" stroke="#f01c17"/><path d="M1163,955L1328,1105L1247,918Z" fill="#f01915" stroke="#f01915"/><path d="M1479,988L1328,1105L1448,1148Z" fill="#ec0c0b" stroke="#ec0c0b"/><path d="M1479,988L1448,1148L1522,1113Z" fill="#ea0707" stroke="#ea0707"/><path d="M1479,988L1522,1113L1592,930Z" fill="#e90304" stroke="#e90304"/><path d="M1592,930L1522,1113L1743,1030Z" fill="#e70000" stroke="#e70000"/><path d="M1743,1030L1522,1113L1749,1172Z" fill="#e60000" stroke="#e60000"/><path d="M1743,1030L1749,1172L1879,1026Z" fill="#e30000" stroke="#e30000"/><path d="M1879,1026L1749,1172L1920,1087Z" fill="#e10000" stroke="#e10000"/><path d="M1879,1026L1920,1087L2082,943Z" fill="#df0000" stroke="#df0000"/><path d="M2082,943L1920,1087L2070,1111Z" fill="#dd0000" stroke="#dd0000"/><path d="M84,1164L562,1168L335,1135Z" fill="#fe5c51" stroke="#fe5c51"/><path d="M84,1164L335,1135L224,1128Z" fill="#fe6359" stroke="#fe6359"/><path d="M562,1168L1749,1172L970,1147Z" fill="#f3251e" stroke="#f3251e"/><path d="M562,1168L970,1147L858,1119Z" fill="#fa3d30" stroke="#fa3d30"/><path d="M562,1168L858,1119L685,1094Z" fill="#fc4436" stroke="#fc4436"/><path d="M970,1147L1749,1172L1448,1148Z" fill="#ec0e0d" stroke="#ec0e0d"/><path d="M970,1147L1448,1148L1168,1125Z" fill="#f11d18" stroke="#f11d18"/><path d="M1168,1125L1448,1148L1328,1105Z" fill="#ee1411" stroke="#ee1411"/><path d="M1448,1148L1749,1172L1522,1113Z" fill="#e80002" stroke="#e80002"/><path d="M1749,1172L2070,1111L1920,1087Z" fill="#e00000" stroke="#e00000"/></g></svg>