<svg width="1920" height="976" xmlns="http://www.w3.org/2000/svg"><g><path d="M-20,-73L-84,34L52,-43Z" fill="#ffffff" stroke="#ffffff"/><path d="M-20,-73L52,-43L250,-59Z" fill="#fcfcfc" stroke="#fcfcfc"/><path d="M-20,-73L250,-59L403,-132Z" fill="#f8f8f8" stroke="#f8f8f8"/><path d="M52,-43L-84,34L71,21Z" fill="#ffffff" stroke="#ffffff"/><path d="M52,-43L71,21L250,-59Z" fill="#fbfbfb" stroke="#fbfbfb"/><path d="M250,-59L71,21L194,123Z" fill="#f9f9f9" stroke="#f9f9f9"/><path d="M250,-59L194,123L344,91Z" fill="#f5f5f5" stroke="#f5f5f5"/><path d="M250,-59L344,91L403,-132Z" fill="#f1f1f1" stroke="#f1f1f1"/><path d="M403,-132L344,91L473,-94Z" fill="#ededed" stroke="#ededed"/><path d="M403,-132L473,-94L767,-113Z" fill="#e4e4e4" stroke="#e4e4e4"/><path d="M403,-132L767,-113L1154,-131Z" fill="#d2d2d2" stroke="#d2d2d2"/><path d="M403,-132L1154,-131L1873,-135Z" fill="#b3b3b3" stroke="#b3b3b3"/><path d="M473,-94L344,91L519,112Z" fill="#ebebeb" stroke="#ebebeb"/><path d="M473,-94L519,112L634,53Z" fill="#e5e5e5" stroke="#e5e5e5"/><path d="M473,-94L634,53L681,-21Z" fill="#e1e1e1" stroke="#e1e1e1"/><path d="M473,-94L681,-21L767,-113Z" fill="#dedede" stroke="#dedede"/><path d="M681,-21L634,53L799,128Z" fill="#d8d8d8" stroke="#d8d8d8"/><path d="M681,-21L799,128L767,-113Z" fill="#d4d4d4" stroke="#d4d4d4"/><path d="M767,-113L799,128L969,31Z" fill="#cccccc" stroke="#cccccc"/><path d="M767,-113L969,31L992,-105Z" fill="#c6c6c6" stroke="#c6c6c6"/><path d="M767,-113L992,-105L1154,-131Z" fill="#c1c1c1" stroke="#c1c1c1"/><path d="M992,-105L969,31L1118,66Z" fill="#bdbdbd" stroke="#bdbdbd"/><path d="M992,-105L1118,66L1154,-131Z" fill="#b8b8b8" stroke="#b8b8b8"/><path d="M1154,-131L1118,66L1281,-114Z" fill="#b0b0b0" stroke="#b0b0b0"/><path d="M1154,-131L1281,-114L1455,-119Z" fill="#a7a7a7" stroke="#a7a7a7"/><path d="M1154,-131L1455,-119L1873,-135Z" fill="#929292" stroke="#929292"/><path d="M1281,-114L1118,66L1222,128Z" fill="#aeaeae" stroke="#aeaeae"/><path d="M1281,-114L1222,128L1371,117Z" fill="#a8a8a8" stroke="#a8a8a8"/><path d="M1281,-114L1371,117L1455,-119Z" fill="#9f9f9f" stroke="#9f9f9f"/><path d="M1455,-119L1371,117L1521,-61Z" fill="#979797" stroke="#979797"/><path d="M1455,-119L1521,-61L1700,-39Z" fill="#8d8d8d" stroke="#8d8d8d"/><path d="M1455,-119L1700,-39L1873,-135Z" fill="#828282" stroke="#828282"/><path d="M1521,-61L1371,117L1542,23Z" fill="#949494" stroke="#949494"/><path d="M1521,-61L1542,23L1700,-39Z" fill="#8a8a8a" stroke="#8a8a8a"/><path d="M1700,-39L1542,23L1755,29Z" fill="#838383" stroke="#838383"/><path d="M1700,-39L1755,29L1873,-135Z" fill="#808080" stroke="#808080"/><path d="M1873,-135L1755,29L1840,54Z" fill="#808080" stroke="#808080"/><path d="M1873,-135L1840,54L2074,-96Z" fill="#808080" stroke="#808080"/><path d="M2074,-96L1840,54L2082,46Z" fill="#808080" stroke="#808080"/><path d="M-84,34L-127,533L-104,372Z" fill="#f2f2f2" stroke="#f2f2f2"/><path d="M-84,34L-104,372L-23,259Z" fill="#ffffff" stroke="#ffffff"/><path d="M-84,34L-23,259L36,211Z" fill="#ffffff" stroke="#ffffff"/><path d="M-84,34L36,211L71,21Z" fill="#ffffff" stroke="#ffffff"/><path d="M71,21L36,211L194,123Z" fill="#fcfcfc" stroke="#fcfcfc"/><path d="M194,123L36,211L175,265Z" fill="#fbfbfb" stroke="#fbfbfb"/><path d="M194,123L175,265L352,198Z" fill="#f6f6f6" stroke="#f6f6f6"/><path d="M194,123L352,198L344,91Z" fill="#f3f3f3" stroke="#f3f3f3"/><path d="M344,91L352,198L481,217Z" fill="#eeeeee" stroke="#eeeeee"/><path d="M344,91L481,217L519,112Z" fill="#ebebeb" stroke="#ebebeb"/><path d="M519,112L481,217L626,199Z" fill="#e5e5e5" stroke="#e5e5e5"/><path d="M519,112L626,199L634,53Z" fill="#e1e1e1" stroke="#e1e1e1"/><path d="M634,53L626,199L799,128Z" fill="#dadada" stroke="#dadada"/><path d="M799,128L626,199L782,189Z" fill="#d6d6d6" stroke="#d6d6d6"/><path d="M799,128L782,189L994,238Z" fill="#cacaca" stroke="#cacaca"/><path d="M799,128L994,238L969,31Z" fill="#c5c5c5" stroke="#c5c5c5"/><path d="M969,31L994,238L1118,66Z" fill="#bdbdbd" stroke="#bdbdbd"/><path d="M1118,66L994,238L1099,247Z" fill="#b9b9b9" stroke="#b9b9b9"/><path d="M1118,66L1099,247L1222,128Z" fill="#b3b3b3" stroke="#b3b3b3"/><path d="M1222,128L1099,247L1185,325Z" fill="#afafaf" stroke="#afafaf"/><path d="M1222,128L1185,325L1334,207Z" fill="#ababab" stroke="#ababab"/><path d="M1222,128L1334,207L1371,117Z" fill="#a6a6a6" stroke="#a6a6a6"/><path d="M1371,117L1334,207L1435,193Z" fill="#9e9e9e" stroke="#9e9e9e"/><path d="M1371,117L1435,193L1542,23Z" fill="#979797" stroke="#979797"/><path d="M1542,23L1435,193L1597,220Z" fill="#909090" stroke="#909090"/><path d="M1542,23L1597,220L1755,29Z" fill="#868686" stroke="#868686"/><path d="M1755,29L1597,220L1767,244Z" fill="#808080" stroke="#808080"/><path d="M1755,29L1767,244L1840,54Z" fill="#808080" stroke="#808080"/><path d="M1840,54L1767,244L1886,216Z" fill="#808080" stroke="#808080"/><path d="M1840,54L1886,216L2030,213Z" fill="#808080" stroke="#808080"/><path d="M1840,54L2030,213L2082,46Z" fill="#808080" stroke="#808080"/><path d="M2082,46L2030,213L2046,407Z" fill="#7f7f7f" stroke="#7f7f7f"/><path d="M2082,46L2046,407L2046,782Z" fill="#5e5e5e" stroke="#5e5e5e"/><path d="M2082,46L2046,782L2055,1082Z" fill="#343434" stroke="#343434"/><path d="M-23,259L-104,372L105,371Z" fill="#eeeeee" stroke="#eeeeee"/><path d="M-23,259L105,371L36,211Z" fill="#f5f5f5" stroke="#f5f5f5"/><path d="M36,211L105,371L175,265Z" fill="#f3f3f3" stroke="#f3f3f3"/><path d="M175,265L105,371L182,383Z" fill="#e8e8e8" stroke="#e8e8e8"/><path d="M175,265L182,383L352,198Z" fill="#eeeeee" stroke="#eeeeee"/><path d="M352,198L182,383L428,415Z" fill="#e1e1e1" stroke="#e1e1e1"/><path d="M352,198L428,415L481,217Z" fill="#e4e4e4" stroke="#e4e4e4"/><path d="M481,217L428,415L513,422Z" fill="#d5d5d5" stroke="#d5d5d5"/><path d="M481,217L513,422L626,199Z" fill="#dcdcdc" stroke="#dcdcdc"/><path d="M626,199L513,422L634,419Z" fill="#cecece" stroke="#cecece"/><path d="M626,199L634,419L835,355Z" fill="#cacaca" stroke="#cacaca"/><path d="M626,199L835,355L782,189Z" fill="#d0d0d0" stroke="#d0d0d0"/><path d="M782,189L835,355L994,238Z" fill="#c3c3c3" stroke="#c3c3c3"/><path d="M994,238L835,355L999,316Z" fill="#b7b7b7" stroke="#b7b7b7"/><path d="M994,238L999,316L1099,247Z" fill="#b5b5b5" stroke="#b5b5b5"/><path d="M1099,247L999,316L1185,325Z" fill="#acacac" stroke="#acacac"/><path d="M1334,207L1185,325L1222,369Z" fill="#a0a0a0" stroke="#a0a0a0"/><path d="M1334,207L1222,369L1481,397Z" fill="#939393" stroke="#939393"/><path d="M1334,207L1481,397L1435,193Z" fill="#949494" stroke="#949494"/><path d="M1435,193L1481,397L1597,220Z" fill="#8a8a8a" stroke="#8a8a8a"/><path d="M1597,220L1481,397L1549,394Z" fill="#7d7d7d" stroke="#7d7d7d"/><path d="M1597,220L1549,394L1697,402Z" fill="#767676" stroke="#767676"/><path d="M1597,220L1697,402L1767,244Z" fill="#777777" stroke="#777777"/><path d="M1767,244L1697,402L1847,421Z" fill="#6a6a6a" stroke="#6a6a6a"/><path d="M1767,244L1847,421L1886,216Z" fill="#757575" stroke="#757575"/><path d="M1886,216L1847,421L2046,407Z" fill="#6c6c6c" stroke="#6c6c6c"/><path d="M1886,216L2046,407L2030,213Z" fill="#777777" stroke="#777777"/><path d="M-104,372L-127,533L90,511Z" fill="#d2d2d2" stroke="#d2d2d2"/><path d="M-104,372L90,511L105,371Z" fill="#dcdcdc" stroke="#dcdcdc"/><path d="M105,371L90,511L182,383Z" fill="#d7d7d7" stroke="#d7d7d7"/><path d="M182,383L90,511L234,512Z" fill="#cccccc" stroke="#cccccc"/><path d="M182,383L234,512L428,415Z" fill="#cecece" stroke="#cecece"/><path d="M428,415L234,512L432,471Z" fill="#c4c4c4" stroke="#c4c4c4"/><path d="M428,415L432,471L513,422Z" fill="#c4c4c4" stroke="#c4c4c4"/><path d="M513,422L432,471L469,525Z" fill="#bcbcbc" stroke="#bcbcbc"/><path d="M513,422L469,525L634,419Z" fill="#bbbbbb" stroke="#bbbbbb"/><path d="M634,419L469,525L683,562Z" fill="#aeaeae" stroke="#aeaeae"/><path d="M634,419L683,562L835,355Z" fill="#afafaf" stroke="#afafaf"/><path d="M835,355L683,562L861,550Z" fill="#a0a0a0" stroke="#a0a0a0"/><path d="M835,355L861,550L999,316Z" fill="#a7a7a7" stroke="#a7a7a7"/><path d="M999,316L861,550L939,585Z" fill="#959595" stroke="#959595"/><path d="M999,316L939,585L1071,561Z" fill="#8e8e8e" stroke="#8e8e8e"/><path d="M999,316L1071,561L1185,325Z" fill="#999999" stroke="#999999"/><path d="M1185,325L1071,561L1222,369Z" fill="#909090" stroke="#909090"/><path d="M1222,369L1071,561L1321,482Z" fill="#828282" stroke="#828282"/><path d="M1222,369L1321,482L1481,397Z" fill="#808080" stroke="#808080"/><path d="M1481,397L1321,482L1422,487Z" fill="#717171" stroke="#717171"/><path d="M1481,397L1422,487L1589,493Z" fill="#676767" stroke="#676767"/><path d="M1481,397L1589,493L1549,394Z" fill="#696969" stroke="#696969"/><path d="M1549,394L1589,493L1697,402Z" fill="#636363" stroke="#636363"/><path d="M1697,402L1589,493L1713,526Z" fill="#565656" stroke="#565656"/><path d="M1697,402L1713,526L1847,421Z" fill="#575757" stroke="#575757"/><path d="M1847,421L1713,526L1907,568Z" fill="#4c4c4c" stroke="#4c4c4c"/><path d="M1847,421L1907,568L2004,469Z" fill="#505050" stroke="#505050"/><path d="M1847,421L2004,469L2046,407Z" fill="#5a5a5a" stroke="#5a5a5a"/><path d="M2046,407L2004,469L2046,782Z" fill="#434343" stroke="#434343"/><path d="M-127,533L-109,1079L-99,919Z" fill="#909090" stroke="#909090"/><path d="M-127,533L-99,919L-89,820Z" fill="#969696" stroke="#969696"/><path d="M-127,533L-89,820L-15,732Z" fill="#a6a6a6" stroke="#a6a6a6"/><path d="M-127,533L-15,732L90,511Z" fill="#bbbbbb" stroke="#bbbbbb"/><path d="M90,511L-15,732L123,722Z" fill="#adadad" stroke="#adadad"/><path d="M90,511L123,722L210,702Z" fill="#adadad" stroke="#adadad"/><path d="M90,511L210,702L234,512Z" fill="#b8b8b8" stroke="#b8b8b8"/><path d="M234,512L210,702L413,670Z" fill="#a9a9a9" stroke="#a9a9a9"/><path d="M234,512L413,670L432,471Z" fill="#b3b3b3" stroke="#b3b3b3"/><path d="M432,471L413,670L469,525Z" fill="#aeaeae" stroke="#aeaeae"/><path d="M469,525L413,670L562,664Z" fill="#a0a0a0" stroke="#a0a0a0"/><path d="M469,525L562,664L683,562Z" fill="#a0a0a0" stroke="#a0a0a0"/><path d="M683,562L562,664L661,676Z" fill="#939393" stroke="#939393"/><path d="M683,562L661,676L840,662Z" fill="#8b8b8b" stroke="#8b8b8b"/><path d="M683,562L840,662L861,550Z" fill="#8c8c8c" stroke="#8c8c8c"/><path d="M861,550L840,662L939,585Z" fill="#848484" stroke="#848484"/><path d="M939,585L840,662L972,641Z" fill="#7b7b7b" stroke="#7b7b7b"/><path d="M939,585L972,641L1071,561Z" fill="#7b7b7b" stroke="#7b7b7b"/><path d="M1071,561L972,641L1104,682Z" fill="#707070" stroke="#707070"/><path d="M1071,561L1104,682L1321,647Z" fill="#676767" stroke="#676767"/><path d="M1071,561L1321,647L1321,482Z" fill="#6d6d6d" stroke="#6d6d6d"/><path d="M1321,482L1321,647L1422,487Z" fill="#666666" stroke="#666666"/><path d="M1422,487L1321,647L1451,724Z" fill="#535353" stroke="#535353"/><path d="M1422,487L1451,724L1559,685Z" fill="#494949" stroke="#494949"/><path d="M1422,487L1559,685L1589,493Z" fill="#525252" stroke="#525252"/><path d="M1589,493L1559,685L1713,526Z" fill="#484848" stroke="#484848"/><path d="M1713,526L1559,685L1742,676Z" fill="#383838" stroke="#383838"/><path d="M1713,526L1742,676L1838,640Z" fill="#383838" stroke="#383838"/><path d="M1713,526L1838,640L1907,568Z" fill="#3e3e3e" stroke="#3e3e3e"/><path d="M1907,568L1838,640L1993,720Z" fill="#333333" stroke="#333333"/><path d="M1907,568L1993,720L2004,469Z" fill="#3d3d3d" stroke="#3d3d3d"/><path d="M2004,469L1993,720L2046,782Z" fill="#303030" stroke="#303030"/><path d="M-15,732L-89,820L72,869Z" fill="#939393" stroke="#939393"/><path d="M-15,732L72,869L123,722Z" fill="#939393" stroke="#939393"/><path d="M123,722L72,869L208,768Z" fill="#8f8f8f" stroke="#8f8f8f"/><path d="M123,722L208,768L210,702Z" fill="#969696" stroke="#969696"/><path d="M210,702L208,768L413,670Z" fill="#969696" stroke="#969696"/><path d="M413,670L208,768L357,848Z" fill="#888888" stroke="#888888"/><path d="M413,670L357,848L496,798Z" fill="#828282" stroke="#828282"/><path d="M413,670L496,798L562,664Z" fill="#8b8b8b" stroke="#8b8b8b"/><path d="M562,664L496,798L629,806Z" fill="#7b7b7b" stroke="#7b7b7b"/><path d="M562,664L629,806L661,676Z" fill="#818181" stroke="#818181"/><path d="M661,676L629,806L840,662Z" fill="#797979" stroke="#797979"/><path d="M840,662L629,806L834,883Z" fill="#686868" stroke="#686868"/><path d="M840,662L834,883L954,837Z" fill="#5d5d5d" stroke="#5d5d5d"/><path d="M840,662L954,837L972,641Z" fill="#676767" stroke="#676767"/><path d="M972,641L954,837L1104,682Z" fill="#5e5e5e" stroke="#5e5e5e"/><path d="M1104,682L954,837L1139,811Z" fill="#4f4f4f" stroke="#4f4f4f"/><path d="M1104,682L1139,811L1321,647Z" fill="#525252" stroke="#525252"/><path d="M1321,647L1139,811L1246,879Z" fill="#414141" stroke="#414141"/><path d="M1321,647L1246,879L1451,724Z" fill="#3b3b3b" stroke="#3b3b3b"/><path d="M1451,724L1246,879L1483,866Z" fill="#2f2f2f" stroke="#2f2f2f"/><path d="M1451,724L1483,866L1601,800Z" fill="#252525" stroke="#252525"/><path d="M1451,724L1601,800L1559,685Z" fill="#2a2a2a" stroke="#2a2a2a"/><path d="M1559,685L1601,800L1673,780Z" fill="#202020" stroke="#202020"/><path d="M1559,685L1673,780L1742,676Z" fill="#262626" stroke="#262626"/><path d="M1742,676L1673,780L1861,782Z" fill="#1a1a1a" stroke="#1a1a1a"/><path d="M1742,676L1861,782L1838,640Z" fill="#252525" stroke="#252525"/><path d="M1838,640L1861,782L1993,720Z" fill="#212121" stroke="#212121"/><path d="M1993,720L1861,782L2046,782Z" fill="#161616" stroke="#161616"/><path d="M-89,820L-99,919L46,921Z" fill="#8e8e8e" stroke="#8e8e8e"/><path d="M-89,820L46,921L72,869Z" fill="#8e8e8e" stroke="#8e8e8e"/><path d="M72,869L46,921L254,995Z" fill="#868686" stroke="#868686"/><path d="M72,869L254,995L208,768Z" fill="#888888" stroke="#888888"/><path d="M208,768L254,995L357,848Z" fill="#848484" stroke="#848484"/><path d="M357,848L254,995L332,1017Z" fill="#7c7c7c" stroke="#7c7c7c"/><path d="M357,848L332,1017L520,1022Z" fill="#777777" stroke="#777777"/><path d="M357,848L520,1022L496,798Z" fill="#787878" stroke="#787878"/><path d="M496,798L520,1022L629,806Z" fill="#737373" stroke="#737373"/><path d="M629,806L520,1022L693,970Z" fill="#6b6b6b" stroke="#6b6b6b"/><path d="M629,806L693,970L834,883Z" fill="#666666" stroke="#666666"/><path d="M834,883L693,970L818,1022Z" fill="#5b5b5b" stroke="#5b5b5b"/><path d="M834,883L818,1022L959,1021Z" fill="#525252" stroke="#525252"/><path d="M834,883L959,1021L954,837Z" fill="#525252" stroke="#525252"/><path d="M954,837L959,1021L1118,983Z" fill="#484848" stroke="#484848"/><path d="M954,837L1118,983L1139,811Z" fill="#484848" stroke="#484848"/><path d="M1139,811L1118,983L1246,879Z" fill="#3f3f3f" stroke="#3f3f3f"/><path d="M1246,879L1118,983L1288,963Z" fill="#383838" stroke="#383838"/><path d="M1246,879L1288,963L1483,866Z" fill="#303030" stroke="#303030"/><path d="M1483,866L1288,963L1473,930Z" fill="#272727" stroke="#272727"/><path d="M1483,866L1473,930L1593,930Z" fill="#1d1d1d" stroke="#1d1d1d"/><path d="M1483,866L1593,930L1601,800Z" fill="#1c1c1c" stroke="#1c1c1c"/><path d="M1601,800L1593,930L1673,780Z" fill="#191919" stroke="#191919"/><path d="M1673,780L1593,930L1695,975Z" fill="#121212" stroke="#121212"/><path d="M1673,780L1695,975L1861,782Z" fill="#111111" stroke="#111111"/><path d="M1861,782L1695,975L1919,981Z" fill="#0c0c0c" stroke="#0c0c0c"/><path d="M1861,782L1919,981L2018,967Z" fill="#0d0d0d" stroke="#0d0d0d"/><path d="M1861,782L2018,967L2046,782Z" fill="#111111" stroke="#111111"/><path d="M2046,782L2018,967L2055,1082Z" fill="#0a0a0a" stroke="#0a0a0a"/><path d="M-99,919L-109,1079L46,921Z" fill="#888888" stroke="#888888"/><path d="M46,921L-109,1079L79,1150Z" fill="#838383" stroke="#838383"/><path d="M46,921L79,1150L254,995Z" fill="#808080" stroke="#808080"/><path d="M254,995L79,1150L271,1074Z" fill="#7a7a7a" stroke="#7a7a7a"/><path d="M254,995L271,1074L332,1017Z" fill="#797979" stroke="#797979"/><path d="M332,1017L271,1074L401,1068Z" fill="#757575" stroke="#757575"/><path d="M332,1017L401,1068L520,1022Z" fill="#717171" stroke="#717171"/><path d="M520,1022L401,1068L507,1104Z" fill="#6c6c6c" stroke="#6c6c6c"/><path d="M520,1022L507,1104L709,1106Z" fill="#646464" stroke="#646464"/><path d="M520,1022L709,1106L693,970Z" fill="#636363" stroke="#636363"/><path d="M693,970L709,1106L818,1022Z" fill="#5a5a5a" stroke="#5a5a5a"/><path d="M818,1022L709,1106L783,1153Z" fill="#535353" stroke="#535353"/><path d="M818,1022L783,1153L993,1138Z" fill="#4a4a4a" stroke="#4a4a4a"/><path d="M818,1022L993,1138L959,1021Z" fill="#484848" stroke="#484848"/><path d="M959,1021L993,1138L1118,983Z" fill="#414141" stroke="#414141"/><path d="M1118,983L993,1138L1184,1162Z" fill="#383838" stroke="#383838"/><path d="M1118,983L1184,1162L1216,1133Z" fill="#323232" stroke="#323232"/><path d="M1118,983L1216,1133L1288,963Z" fill="#343434" stroke="#343434"/><path d="M1288,963L1216,1133L1484,1166Z" fill="#252525" stroke="#252525"/><path d="M1288,963L1484,1166L1517,1113Z" fill="#1a1a1a" stroke="#1a1a1a"/><path d="M1288,963L1517,1113L1473,930Z" fill="#202020" stroke="#202020"/><path d="M1473,930L1517,1113L1593,930Z" fill="#171717" stroke="#171717"/><path d="M1593,930L1517,1113L1695,975Z" fill="#0f0f0f" stroke="#0f0f0f"/><path d="M1695,975L1517,1113L1731,1094Z" fill="#080808" stroke="#080808"/><path d="M1695,975L1731,1094L1919,981Z" fill="#060606" stroke="#060606"/><path d="M1919,981L1731,1094L1864,1108Z" fill="#030303" stroke="#030303"/><path d="M1919,981L1864,1108L2055,1082Z" fill="#030303" stroke="#030303"/><path d="M1919,981L2055,1082L2018,967Z" fill="#060606" stroke="#060606"/><path d="M79,1150L1484,1166L1184,1162Z" fill="#464646" stroke="#464646"/><path d="M79,1150L1184,1162L783,1153Z" fill="#5b5b5b" stroke="#5b5b5b"/><path d="M79,1150L783,1153L507,1104Z" fill="#6b6b6b" stroke="#6b6b6b"/><path d="M79,1150L507,1104L271,1074Z" fill="#747474" stroke="#747474"/><path d="M271,1074L507,1104L401,1068Z" fill="#707070" stroke="#707070"/><path d="M507,1104L783,1153L709,1106Z" fill="#5c5c5c" stroke="#5c5c5c"/><path d="M783,1153L1184,1162L993,1138Z" fill="#404040" stroke="#404040"/><path d="M1184,1162L1484,1166L1216,1133Z" fill="#282828" stroke="#282828"/><path d="M1484,1166L2055,1082L1864,1108Z" fill="#000000" stroke="#000000"/><path d="M1484,1166L1864,1108L1731,1094Z" fill="#010101" stroke="#010101"/><path d="M1484,1166L1731,1094L1517,1113Z" fill="#0b0b0b" stroke="#0b0b0b"/></g></svg>