<svg width="1920" height="976" xmlns="http://www.w3.org/2000/svg"><g><path d="M-98,-59L-99,422L-96,52Z" fill="#ffffff" stroke="#ffffff"/><path d="M-98,-59L-96,52L31,-53Z" fill="#ffffff" stroke="#ffffff"/><path d="M-98,-59L31,-53L268,-111Z" fill="#fcfbfd" stroke="#fcfbfd"/><path d="M31,-53L-96,52L47,73Z" fill="#fefdfe" stroke="#fefdfe"/><path d="M31,-53L47,73L230,53Z" fill="#fbfafc" stroke="#fbfafc"/><path d="M31,-53L230,53L268,-111Z" fill="#f8f7fb" stroke="#f8f7fb"/><path d="M268,-111L230,53L433,-41Z" fill="#f2f2f8" stroke="#f2f2f8"/><path d="M268,-111L433,-41L513,-40Z" fill="#eeeef6" stroke="#eeeef6"/><path d="M268,-111L513,-40L777,-132Z" fill="#e6e6f2" stroke="#e6e6f2"/><path d="M433,-41L230,53L333,104Z" fill="#f1f1f7" stroke="#f1f1f7"/><path d="M433,-41L333,104L531,108Z" fill="#ececf5" stroke="#ececf5"/><path d="M433,-41L531,108L513,-40Z" fill="#e8e8f3" stroke="#e8e8f3"/><path d="M513,-40L531,108L632,-33Z" fill="#e3e4f1" stroke="#e3e4f1"/><path d="M513,-40L632,-33L777,-132Z" fill="#dedeee" stroke="#dedeee"/><path d="M632,-33L531,108L701,56Z" fill="#dfe0ee" stroke="#dfe0ee"/><path d="M632,-33L701,56L777,-132Z" fill="#d9d9eb" stroke="#d9d9eb"/><path d="M777,-132L701,56L823,33Z" fill="#d5d4e8" stroke="#d5d4e8"/><path d="M777,-132L823,33L964,-65Z" fill="#cfcde4" stroke="#cfcde4"/><path d="M777,-132L964,-65L1066,-78Z" fill="#c9c7e1" stroke="#c9c7e1"/><path d="M777,-132L1066,-78L1218,-87Z" fill="#c3c1de" stroke="#c3c1de"/><path d="M777,-132L1218,-87L1517,-111Z" fill="#bab4d7" stroke="#bab4d7"/><path d="M777,-132L1517,-111L2034,-125Z" fill="#ac98ca" stroke="#ac98ca"/><path d="M964,-65L823,33L990,111Z" fill="#cac8e1" stroke="#cac8e1"/><path d="M964,-65L990,111L1108,51Z" fill="#c3c1de" stroke="#c3c1de"/><path d="M964,-65L1108,51L1066,-78Z" fill="#c1c0dd" stroke="#c1c0dd"/><path d="M1066,-78L1108,51L1218,-87Z" fill="#bcb8d9" stroke="#bcb8d9"/><path d="M1218,-87L1108,51L1320,130Z" fill="#b8afd5" stroke="#b8afd5"/><path d="M1218,-87L1320,130L1401,28Z" fill="#b3a5d0" stroke="#b3a5d0"/><path d="M1218,-87L1401,28L1407,-46Z" fill="#b2a2ce" stroke="#b2a2ce"/><path d="M1218,-87L1407,-46L1517,-111Z" fill="#b09ecd" stroke="#b09ecd"/><path d="M1407,-46L1401,28L1563,85Z" fill="#ac97c9" stroke="#ac97c9"/><path d="M1407,-46L1563,85L1517,-111Z" fill="#aa93c7" stroke="#aa93c7"/><path d="M1517,-111L1563,85L1740,-77Z" fill="#a489c2" stroke="#a489c2"/><path d="M1517,-111L1740,-77L2034,-125Z" fill="#9c80bc" stroke="#9c80bc"/><path d="M1740,-77L1563,85L1762,64Z" fill="#a081bf" stroke="#a081bf"/><path d="M1740,-77L1762,64L1848,41Z" fill="#9b80bb" stroke="#9b80bb"/><path d="M1740,-77L1848,41L1924,-70Z" fill="#9980b9" stroke="#9980b9"/><path d="M1740,-77L1924,-70L2034,-125Z" fill="#9680b6" stroke="#9680b6"/><path d="M1924,-70L1848,41L2025,126Z" fill="#9480b5" stroke="#9480b5"/><path d="M1924,-70L2025,126L2034,-125Z" fill="#9180b2" stroke="#9180b2"/><path d="M2034,-125L2025,126L2076,228Z" fill="#8f80b0" stroke="#8f80b0"/><path d="M-96,52L-99,422L-29,200Z" fill="#fefeff" stroke="#fefeff"/><path d="M-96,52L-29,200L47,73Z" fill="#fffeff" stroke="#fffeff"/><path d="M47,73L-29,200L89,197Z" fill="#fdfcfe" stroke="#fdfcfe"/><path d="M47,73L89,197L230,53Z" fill="#faf9fc" stroke="#faf9fc"/><path d="M230,53L89,197L268,235Z" fill="#f8f7fb" stroke="#f8f7fb"/><path d="M230,53L268,235L333,104Z" fill="#f4f3f9" stroke="#f4f3f9"/><path d="M333,104L268,235L350,228Z" fill="#f2f2f8" stroke="#f2f2f8"/><path d="M333,104L350,228L502,204Z" fill="#eeeef6" stroke="#eeeef6"/><path d="M333,104L502,204L531,108Z" fill="#ebebf4" stroke="#ebebf4"/><path d="M531,108L502,204L634,277Z" fill="#e4e4f1" stroke="#e4e4f1"/><path d="M531,108L634,277L701,56Z" fill="#dfdfee" stroke="#dfdfee"/><path d="M701,56L634,277L829,171Z" fill="#d8d8ea" stroke="#d8d8ea"/><path d="M701,56L829,171L823,33Z" fill="#d4d2e7" stroke="#d4d2e7"/><path d="M823,33L829,171L990,111Z" fill="#cdcbe3" stroke="#cdcbe3"/><path d="M990,111L829,171L957,262Z" fill="#cac8e1" stroke="#cac8e1"/><path d="M990,111L957,262L1176,213Z" fill="#c2c0de" stroke="#c2c0de"/><path d="M990,111L1176,213L1108,51Z" fill="#bebcdb" stroke="#bebcdb"/><path d="M1108,51L1176,213L1231,172Z" fill="#bab3d7" stroke="#bab3d7"/><path d="M1108,51L1231,172L1320,130Z" fill="#b8aed5" stroke="#b8aed5"/><path d="M1320,130L1231,172L1423,210Z" fill="#b2a4cf" stroke="#b2a4cf"/><path d="M1320,130L1423,210L1401,28Z" fill="#b09ecd" stroke="#b09ecd"/><path d="M1401,28L1423,210L1563,85Z" fill="#ab96c9" stroke="#ab96c9"/><path d="M1563,85L1423,210L1609,262Z" fill="#a890c6" stroke="#a890c6"/><path d="M1563,85L1609,262L1762,64Z" fill="#a285c1" stroke="#a285c1"/><path d="M1762,64L1609,262L1742,259Z" fill="#9f80be" stroke="#9f80be"/><path d="M1762,64L1742,259L1869,225Z" fill="#9b80bb" stroke="#9b80bb"/><path d="M1762,64L1869,225L1848,41Z" fill="#9980b9" stroke="#9980b9"/><path d="M1848,41L1869,225L2025,126Z" fill="#9580b6" stroke="#9580b6"/><path d="M2025,126L1869,225L2076,228Z" fill="#9180b2" stroke="#9180b2"/><path d="M-29,200L-99,422L81,419Z" fill="#ebebfd" stroke="#ebebfd"/><path d="M-29,200L81,419L89,197Z" fill="#f4f4fd" stroke="#f4f4fd"/><path d="M89,197L81,419L236,362Z" fill="#eaeafc" stroke="#eaeafc"/><path d="M89,197L236,362L268,235Z" fill="#f1f0fb" stroke="#f1f0fb"/><path d="M268,235L236,362L350,228Z" fill="#ebebf9" stroke="#ebebf9"/><path d="M350,228L236,362L422,385Z" fill="#e2e2f7" stroke="#e2e2f7"/><path d="M350,228L422,385L502,204Z" fill="#e5e5f5" stroke="#e5e5f5"/><path d="M502,204L422,385L543,403Z" fill="#d8d9f3" stroke="#d8d9f3"/><path d="M502,204L543,403L634,277Z" fill="#d8d9f1" stroke="#d8d9f1"/><path d="M634,277L543,403L630,358Z" fill="#cdceee" stroke="#cdceee"/><path d="M634,277L630,358L816,428Z" fill="#c6c5e9" stroke="#c6c5e9"/><path d="M634,277L816,428L829,171Z" fill="#cbcae8" stroke="#cbcae8"/><path d="M829,171L816,428L957,262Z" fill="#c4c2e3" stroke="#c4c2e3"/><path d="M957,262L816,428L1020,433Z" fill="#b2afde" stroke="#b2afde"/><path d="M957,262L1020,433L1176,213Z" fill="#b4b3dd" stroke="#b4b3dd"/><path d="M1176,213L1020,433L1179,418Z" fill="#a8a4d8" stroke="#a8a4d8"/><path d="M1176,213L1179,418L1319,430Z" fill="#a499d2" stroke="#a499d2"/><path d="M1176,213L1319,430L1231,172Z" fill="#afa5d3" stroke="#afa5d3"/><path d="M1231,172L1319,430L1423,210Z" fill="#ab9ccf" stroke="#ab9ccf"/><path d="M1423,210L1319,430L1427,381Z" fill="#9d8bcb" stroke="#9d8bcb"/><path d="M1423,210L1427,381L1609,262Z" fill="#a18ac8" stroke="#a18ac8"/><path d="M1609,262L1427,381L1592,397Z" fill="#947cc4" stroke="#947cc4"/><path d="M1609,262L1592,397L1742,259Z" fill="#9679c1" stroke="#9679c1"/><path d="M1742,259L1592,397L1776,404Z" fill="#8b6cbc" stroke="#8b6cbc"/><path d="M1742,259L1776,404L1869,225Z" fill="#8f75ba" stroke="#8f75ba"/><path d="M1869,225L1776,404L1930,424Z" fill="#846cb6" stroke="#846cb6"/><path d="M1869,225L1930,424L2045,329Z" fill="#8471b4" stroke="#8471b4"/><path d="M1869,225L2045,329L2076,228Z" fill="#8a7ab2" stroke="#8a7ab2"/><path d="M2076,228L2045,329L2074,576Z" fill="#7667ab" stroke="#7667ab"/><path d="M-99,422L-98,518L56,530Z" fill="#d4d2f3" stroke="#d4d2f3"/><path d="M-99,422L56,530L81,419Z" fill="#d8d6f4" stroke="#d8d6f4"/><path d="M81,419L56,530L227,466Z" fill="#d2d0f1" stroke="#d2d0f1"/><path d="M81,419L227,466L236,362Z" fill="#dad7f4" stroke="#dad7f4"/><path d="M236,362L227,466L422,385Z" fill="#d7d5f2" stroke="#d7d5f2"/><path d="M422,385L227,466L322,540Z" fill="#cbc9ed" stroke="#cbc9ed"/><path d="M422,385L322,540L536,483Z" fill="#c5c4ea" stroke="#c5c4ea"/><path d="M422,385L536,483L543,403Z" fill="#c8c6eb" stroke="#c8c6eb"/><path d="M543,403L536,483L630,358Z" fill="#c4c3ea" stroke="#c4c3ea"/><path d="M630,358L536,483L725,512Z" fill="#bab8e5" stroke="#bab8e5"/><path d="M630,358L725,512L816,428Z" fill="#b6b4e2" stroke="#b6b4e2"/><path d="M816,428L725,512L870,517Z" fill="#a8a5da" stroke="#a8a5da"/><path d="M816,428L870,517L1020,433Z" fill="#a6a2d8" stroke="#a6a2d8"/><path d="M1020,433L870,517L1026,515Z" fill="#9c98d3" stroke="#9c98d3"/><path d="M1020,433L1026,515L1100,523Z" fill="#9693d1" stroke="#9693d1"/><path d="M1020,433L1100,523L1179,418Z" fill="#9993d1" stroke="#9993d1"/><path d="M1179,418L1100,523L1335,574Z" fill="#8b81c8" stroke="#8b81c8"/><path d="M1179,418L1335,574L1319,430Z" fill="#8d7ec6" stroke="#8d7ec6"/><path d="M1319,430L1335,574L1400,481Z" fill="#8674c1" stroke="#8674c1"/><path d="M1319,430L1400,481L1427,381Z" fill="#8e7bc4" stroke="#8e7bc4"/><path d="M1427,381L1400,481L1592,397Z" fill="#8c74c1" stroke="#8c74c1"/><path d="M1592,397L1400,481L1538,563Z" fill="#8067bb" stroke="#8067bb"/><path d="M1592,397L1538,563L1705,515Z" fill="#795bb6" stroke="#795bb6"/><path d="M1592,397L1705,515L1776,404Z" fill="#7e5db6" stroke="#7e5db6"/><path d="M1776,404L1705,515L1840,572Z" fill="#7052ae" stroke="#7052ae"/><path d="M1776,404L1840,572L1930,424Z" fill="#7157ae" stroke="#7157ae"/><path d="M1930,424L1840,572L1985,621Z" fill="#624ba5" stroke="#624ba5"/><path d="M1930,424L1985,621L2074,576Z" fill="#5e4ba2" stroke="#5e4ba2"/><path d="M1930,424L2074,576L2045,329Z" fill="#6d5ba9" stroke="#6d5ba9"/><path d="M-98,518L-30,1130L-82,653Z" fill="#b195d4" stroke="#b195d4"/><path d="M-98,518L-82,653L56,530Z" fill="#c9c4ec" stroke="#c9c4ec"/><path d="M56,530L-82,653L124,689Z" fill="#bfb3e3" stroke="#bfb3e3"/><path d="M56,530L124,689L227,466Z" fill="#c4bfe9" stroke="#c4bfe9"/><path d="M227,466L124,689L280,661Z" fill="#bcb2e2" stroke="#bcb2e2"/><path d="M227,466L280,661L322,540Z" fill="#bfbbe7" stroke="#bfbbe7"/><path d="M322,540L280,661L342,673Z" fill="#b5a9dd" stroke="#b5a9dd"/><path d="M322,540L342,673L556,636Z" fill="#b1a7dc" stroke="#b1a7dc"/><path d="M322,540L556,636L536,483Z" fill="#b5b2e2" stroke="#b5b2e2"/><path d="M536,483L556,636L725,512Z" fill="#adabde" stroke="#adabde"/><path d="M725,512L556,636L707,686Z" fill="#a096d3" stroke="#a096d3"/><path d="M725,512L707,686L868,655Z" fill="#988cce" stroke="#988cce"/><path d="M725,512L868,655L870,517Z" fill="#9b96d2" stroke="#9b96d2"/><path d="M870,517L868,655L957,685Z" fill="#8f82c8" stroke="#8f82c8"/><path d="M870,517L957,685L1026,515Z" fill="#918acc" stroke="#918acc"/><path d="M1026,515L957,685L1117,672Z" fill="#8578c3" stroke="#8578c3"/><path d="M1026,515L1117,672L1100,523Z" fill="#8881c8" stroke="#8881c8"/><path d="M1100,523L1117,672L1292,675Z" fill="#7d6bbc" stroke="#7d6bbc"/><path d="M1100,523L1292,675L1335,574Z" fill="#7d6bbc" stroke="#7d6bbc"/><path d="M1335,574L1292,675L1370,647Z" fill="#7458b3" stroke="#7458b3"/><path d="M1335,574L1370,647L1400,481Z" fill="#7a65ba" stroke="#7a65ba"/><path d="M1400,481L1370,647L1538,563Z" fill="#775fb6" stroke="#775fb6"/><path d="M1538,563L1370,647L1527,714Z" fill="#6b48aa" stroke="#6b48aa"/><path d="M1538,563L1527,714L1710,726Z" fill="#6237a3" stroke="#6237a3"/><path d="M1538,563L1710,726L1705,515Z" fill="#6741a9" stroke="#6741a9"/><path d="M1705,515L1710,726L1840,572Z" fill="#623ca4" stroke="#623ca4"/><path d="M1840,572L1710,726L1875,699Z" fill="#582d9a" stroke="#582d9a"/><path d="M1840,572L1875,699L1985,621Z" fill="#58359a" stroke="#58359a"/><path d="M2074,576L1985,621L1980,832Z" fill="#4d2a90" stroke="#4d2a90"/><path d="M2074,576L1980,832L2038,935Z" fill="#3f1384" stroke="#3f1384"/><path d="M2074,576L2038,935L2027,1182Z" fill="#310078" stroke="#310078"/><path d="M-82,653L-30,1130L-52,801Z" fill="#a681cb" stroke="#a681cb"/><path d="M-82,653L-52,801L124,689Z" fill="#b69fd9" stroke="#b69fd9"/><path d="M124,689L-52,801L81,876Z" fill="#ab8dd0" stroke="#ab8dd0"/><path d="M124,689L81,876L260,801Z" fill="#a889ce" stroke="#a889ce"/><path d="M124,689L260,801L280,661Z" fill="#ae97d4" stroke="#ae97d4"/><path d="M280,661L260,801L340,776Z" fill="#a78dcf" stroke="#a78dcf"/><path d="M280,661L340,776L342,673Z" fill="#ab96d3" stroke="#ab96d3"/><path d="M342,673L340,776L556,636Z" fill="#a794d2" stroke="#a794d2"/><path d="M556,636L340,776L565,859Z" fill="#9c81c9" stroke="#9c81c9"/><path d="M556,636L565,859L707,686Z" fill="#967fc8" stroke="#967fc8"/><path d="M707,686L565,859L650,871Z" fill="#8b6cbf" stroke="#8b6cbf"/><path d="M707,686L650,871L858,861Z" fill="#8464ba" stroke="#8464ba"/><path d="M707,686L858,861L868,655Z" fill="#876ebe" stroke="#876ebe"/><path d="M868,655L858,861L948,784Z" fill="#7e60b8" stroke="#7e60b8"/><path d="M868,655L948,784L957,685Z" fill="#826bbc" stroke="#826bbc"/><path d="M957,685L948,784L1121,800Z" fill="#775ab5" stroke="#775ab5"/><path d="M957,685L1121,800L1117,672Z" fill="#775fb7" stroke="#775fb7"/><path d="M1117,672L1121,800L1231,833Z" fill="#6d4bac" stroke="#6d4bac"/><path d="M1117,672L1231,833L1292,675Z" fill="#6f4eae" stroke="#6f4eae"/><path d="M1292,675L1231,833L1471,883Z" fill="#6033a1" stroke="#6033a1"/><path d="M1292,675L1471,883L1370,647Z" fill="#653ca5" stroke="#653ca5"/><path d="M1370,647L1471,883L1527,714Z" fill="#6031a0" stroke="#6031a0"/><path d="M1527,714L1471,883L1622,883Z" fill="#521894" stroke="#521894"/><path d="M1527,714L1622,883L1694,774Z" fill="#531995" stroke="#531995"/><path d="M1527,714L1694,774L1710,726Z" fill="#572299" stroke="#572299"/><path d="M1710,726L1694,774L1875,699Z" fill="#521d95" stroke="#521d95"/><path d="M1875,699L1694,774L1928,773Z" fill="#4d1a8f" stroke="#4d1a8f"/><path d="M1875,699L1928,773L1985,621Z" fill="#4e2591" stroke="#4e2591"/><path d="M1985,621L1928,773L1980,832Z" fill="#471b8b" stroke="#471b8b"/><path d="M-52,801L-30,1130L-30,972Z" fill="#997fc0" stroke="#997fc0"/><path d="M-52,801L-30,972L81,876Z" fill="#a27ec8" stroke="#a27ec8"/><path d="M81,876L-30,972L132,963Z" fill="#9a7cc2" stroke="#9a7cc2"/><path d="M81,876L132,963L260,801Z" fill="#9d79c5" stroke="#9d79c5"/><path d="M260,801L132,963L191,990Z" fill="#9877c1" stroke="#9877c1"/><path d="M260,801L191,990L356,958Z" fill="#9574bf" stroke="#9574bf"/><path d="M260,801L356,958L340,776Z" fill="#9b77c5" stroke="#9b77c5"/><path d="M340,776L356,958L565,859Z" fill="#946ec1" stroke="#946ec1"/><path d="M565,859L356,958L510,1022Z" fill="#866ab7" stroke="#866ab7"/><path d="M565,859L510,1022L629,1000Z" fill="#7e64b2" stroke="#7e64b2"/><path d="M565,859L629,1000L650,871Z" fill="#8160b6" stroke="#8160b6"/><path d="M650,871L629,1000L813,1009Z" fill="#755aad" stroke="#755aad"/><path d="M650,871L813,1009L858,861Z" fill="#7554ae" stroke="#7554ae"/><path d="M858,861L813,1009L926,986Z" fill="#6a4ca6" stroke="#6a4ca6"/><path d="M858,861L926,986L948,784Z" fill="#7049ac" stroke="#7049ac"/><path d="M948,784L926,986L1121,800Z" fill="#6c46ab" stroke="#6c46ab"/><path d="M1121,800L926,986L1137,999Z" fill="#5f3fa2" stroke="#5f3fa2"/><path d="M1121,800L1137,999L1231,833Z" fill="#6035a2" stroke="#6035a2"/><path d="M1231,833L1137,999L1268,1029Z" fill="#543097" stroke="#543097"/><path d="M1231,833L1268,1029L1471,883Z" fill="#532496" stroke="#532496"/><path d="M1471,883L1268,1029L1452,1026Z" fill="#481d8c" stroke="#481d8c"/><path d="M1471,883L1452,1026L1548,939Z" fill="#46148a" stroke="#46148a"/><path d="M1471,883L1548,939L1622,883Z" fill="#490f8c" stroke="#490f8c"/><path d="M1622,883L1548,939L1730,978Z" fill="#410786" stroke="#410786"/><path d="M1622,883L1730,978L1694,774Z" fill="#450389" stroke="#450389"/><path d="M1694,774L1730,978L1869,916Z" fill="#400085" stroke="#400085"/><path d="M1694,774L1869,916L1928,773Z" fill="#450a89" stroke="#450a89"/><path d="M1928,773L1869,916L1980,832Z" fill="#3d0683" stroke="#3d0683"/><path d="M1980,832L1869,916L2038,935Z" fill="#36007c" stroke="#36007c"/><path d="M-30,972L-30,1130L132,963Z" fill="#917dba" stroke="#917dba"/><path d="M132,963L-30,1130L59,1176Z" fill="#897cb3" stroke="#897cb3"/><path d="M132,963L59,1176L191,990Z" fill="#8c7ab6" stroke="#8c7ab6"/><path d="M191,990L59,1176L284,1105Z" fill="#8578b0" stroke="#8578b0"/><path d="M191,990L284,1105L356,958Z" fill="#8974b5" stroke="#8974b5"/><path d="M356,958L284,1105L420,1136Z" fill="#7f71af" stroke="#7f71af"/><path d="M356,958L420,1136L510,1022Z" fill="#7f6db0" stroke="#7f6db0"/><path d="M510,1022L420,1136L573,1146Z" fill="#7368a7" stroke="#7368a7"/><path d="M510,1022L573,1146L629,1000Z" fill="#7363a9" stroke="#7363a9"/><path d="M629,1000L573,1146L641,1144Z" fill="#6b60a4" stroke="#6b60a4"/><path d="M629,1000L641,1144L777,1101Z" fill="#685ba2" stroke="#685ba2"/><path d="M629,1000L777,1101L813,1009Z" fill="#6957a4" stroke="#6957a4"/><path d="M813,1009L777,1101L991,1104Z" fill="#5d4d9b" stroke="#5d4d9b"/><path d="M813,1009L991,1104L926,986Z" fill="#5e499d" stroke="#5e499d"/><path d="M926,986L991,1104L1137,999Z" fill="#57429a" stroke="#57429a"/><path d="M1137,999L991,1104L1149,1133Z" fill="#4c3c92" stroke="#4c3c92"/><path d="M1137,999L1149,1133L1268,1029Z" fill="#4a338f" stroke="#4a338f"/><path d="M1268,1029L1149,1133L1255,1172Z" fill="#422f88" stroke="#422f88"/><path d="M1268,1029L1255,1172L1400,1171Z" fill="#3c2682" stroke="#3c2682"/><path d="M1268,1029L1400,1171L1452,1026Z" fill="#3e2084" stroke="#3e2084"/><path d="M1452,1026L1400,1171L1537,1151Z" fill="#35177c" stroke="#35177c"/><path d="M1452,1026L1537,1151L1548,939Z" fill="#3b1281" stroke="#3b1281"/><path d="M1548,939L1537,1151L1730,978Z" fill="#380a7f" stroke="#380a7f"/><path d="M1730,978L1537,1151L1760,1101Z" fill="#2f0377" stroke="#2f0377"/><path d="M1730,978L1760,1101L1869,916Z" fill="#320079" stroke="#320079"/><path d="M1869,916L1760,1101L1819,1162Z" fill="#2a0072" stroke="#2a0072"/><path d="M1869,916L1819,1162L2027,1182Z" fill="#22006c" stroke="#22006c"/><path d="M1869,916L2027,1182L2038,935Z" fill="#270070" stroke="#270070"/><path d="M59,1176L2027,1182L1255,1172Z" fill="#403a87" stroke="#403a87"/><path d="M59,1176L1255,1172L573,1146Z" fill="#635f9c" stroke="#635f9c"/><path d="M59,1176L573,1146L420,1136Z" fill="#7571a7" stroke="#7571a7"/><path d="M59,1176L420,1136L284,1105Z" fill="#7c75aa" stroke="#7c75aa"/><path d="M573,1146L1255,1172L641,1144Z" fill="#565095" stroke="#565095"/><path d="M641,1144L1255,1172L991,1104Z" fill="#4e4691" stroke="#4e4691"/><path d="M641,1144L991,1104L777,1101Z" fill="#5c5199" stroke="#5c5199"/><path d="M991,1104L1255,1172L1149,1133Z" fill="#43388a" stroke="#43388a"/><path d="M1255,1172L2027,1182L1400,1171Z" fill="#290e71" stroke="#290e71"/><path d="M1400,1171L2027,1182L1819,1162Z" fill="#20006a" stroke="#20006a"/><path d="M1400,1171L1819,1162L1537,1151Z" fill="#290b72" stroke="#290b72"/><path d="M1537,1151L1819,1162L1760,1101Z" fill="#26006f" stroke="#26006f"/></g></svg>