<svg width="1920" height="976" xmlns="http://www.w3.org/2000/svg"><g><path d="M-75,-135L-105,122L22,-51Z" fill="#fcf9fc" stroke="#fcf9fc"/><path d="M-75,-135L22,-51L238,-33Z" fill="#f4f4f9" stroke="#f4f4f9"/><path d="M-75,-135L238,-33L397,-44Z" fill="#eceef6" stroke="#eceef6"/><path d="M-75,-135L397,-44L566,-85Z" fill="#e4e8f3" stroke="#e4e8f3"/><path d="M-75,-135L566,-85L646,-105Z" fill="#dfe4f0" stroke="#dfe4f0"/><path d="M-75,-135L646,-105L1674,-108Z" fill="#bcd5e8" stroke="#bcd5e8"/><path d="M22,-51L-105,122L72,29Z" fill="#f6f5fb" stroke="#f6f5fb"/><path d="M22,-51L72,29L238,-33Z" fill="#f1f1f8" stroke="#f1f1f8"/><path d="M238,-33L72,29L233,40Z" fill="#ebeef6" stroke="#ebeef6"/><path d="M238,-33L233,40L397,-44Z" fill="#e5e9f3" stroke="#e5e9f3"/><path d="M397,-44L233,40L354,113Z" fill="#dfe5f2" stroke="#dfe5f2"/><path d="M397,-44L354,113L531,54Z" fill="#d7e1ef" stroke="#d7e1ef"/><path d="M397,-44L531,54L566,-85Z" fill="#d3e0ee" stroke="#d3e0ee"/><path d="M566,-85L531,54L646,-105Z" fill="#ccdcec" stroke="#ccdcec"/><path d="M646,-105L531,54L734,96Z" fill="#c5d9ea" stroke="#c5d9ea"/><path d="M646,-105L734,96L841,-75Z" fill="#bcd5e8" stroke="#bcd5e8"/><path d="M646,-105L841,-75L951,-81Z" fill="#b6d3e6" stroke="#b6d3e6"/><path d="M646,-105L951,-81L1119,-87Z" fill="#adcfe4" stroke="#adcfe4"/><path d="M646,-105L1119,-87L1674,-108Z" fill="#96c6df" stroke="#96c6df"/><path d="M841,-75L734,96L872,21Z" fill="#b4d2e6" stroke="#b4d2e6"/><path d="M841,-75L872,21L951,-81Z" fill="#aed0e5" stroke="#aed0e5"/><path d="M951,-81L872,21L960,29Z" fill="#abcee4" stroke="#abcee4"/><path d="M951,-81L960,29L1085,29Z" fill="#a4cce2" stroke="#a4cce2"/><path d="M951,-81L1085,29L1119,-87Z" fill="#9fcae1" stroke="#9fcae1"/><path d="M1119,-87L1085,29L1234,88Z" fill="#95c5df" stroke="#95c5df"/><path d="M1119,-87L1234,88L1307,-25Z" fill="#92c1da" stroke="#92c1da"/><path d="M1119,-87L1307,-25L1418,-89Z" fill="#8fbdd6" stroke="#8fbdd6"/><path d="M1119,-87L1418,-89L1674,-108Z" fill="#88b5cf" stroke="#88b5cf"/><path d="M1307,-25L1234,88L1426,134Z" fill="#88b8d4" stroke="#88b8d4"/><path d="M1307,-25L1426,134L1418,-89Z" fill="#89b6d0" stroke="#89b6d0"/><path d="M1418,-89L1426,134L1536,95Z" fill="#82b0cb" stroke="#82b0cb"/><path d="M1418,-89L1536,95L1566,-32Z" fill="#83afc8" stroke="#83afc8"/><path d="M1418,-89L1566,-32L1674,-108Z" fill="#81acc5" stroke="#81acc5"/><path d="M1566,-32L1536,95L1751,22Z" fill="#7ea6c1" stroke="#7ea6c1"/><path d="M1566,-32L1751,22L1674,-108Z" fill="#80a4be" stroke="#80a4be"/><path d="M1674,-108L1751,22L1911,-29Z" fill="#809db7" stroke="#809db7"/><path d="M1674,-108L1911,-29L2049,-24Z" fill="#8096b0" stroke="#8096b0"/><path d="M1911,-29L1751,22L1846,95Z" fill="#7d98b3" stroke="#7d98b3"/><path d="M1911,-29L1846,95L1989,82Z" fill="#7c92ae" stroke="#7c92ae"/><path d="M1911,-29L1989,82L2049,-24Z" fill="#7f8faa" stroke="#7f8faa"/><path d="M2049,-24L1989,82L2060,201Z" fill="#7989a7" stroke="#7989a7"/><path d="M2049,-24L2060,201L2084,550Z" fill="#667ea4" stroke="#667ea4"/><path d="M-105,122L-104,634L-82,357Z" fill="#c9e2fa" stroke="#c9e2fa"/><path d="M-105,122L-82,357L-34,253Z" fill="#e3eefc" stroke="#e3eefc"/><path d="M-105,122L-34,253L97,169Z" fill="#ebf0fb" stroke="#ebf0fb"/><path d="M-105,122L97,169L72,29Z" fill="#eff2fa" stroke="#eff2fa"/><path d="M72,29L97,169L233,40Z" fill="#e9edf7" stroke="#e9edf7"/><path d="M233,40L97,169L243,274Z" fill="#dfe8f6" stroke="#dfe8f6"/><path d="M233,40L243,274L354,113Z" fill="#dbe4f3" stroke="#dbe4f3"/><path d="M354,113L243,274L408,216Z" fill="#d1dff2" stroke="#d1dff2"/><path d="M354,113L408,216L498,206Z" fill="#cddcef" stroke="#cddcef"/><path d="M354,113L498,206L531,54Z" fill="#cddcee" stroke="#cddcee"/><path d="M531,54L498,206L734,96Z" fill="#c2d7eb" stroke="#c2d7eb"/><path d="M734,96L498,206L730,270Z" fill="#b6d2ea" stroke="#b6d2ea"/><path d="M734,96L730,270L781,279Z" fill="#a8cce7" stroke="#a8cce7"/><path d="M734,96L781,279L872,21Z" fill="#adcee7" stroke="#adcee7"/><path d="M872,21L781,279L1005,285Z" fill="#a0c8e5" stroke="#a0c8e5"/><path d="M872,21L1005,285L960,29Z" fill="#a0c9e3" stroke="#a0c9e3"/><path d="M960,29L1005,285L1113,195Z" fill="#94c4e2" stroke="#94c4e2"/><path d="M960,29L1113,195L1085,29Z" fill="#98c7e1" stroke="#98c7e1"/><path d="M1085,29L1113,195L1234,88Z" fill="#8ec2df" stroke="#8ec2df"/><path d="M1234,88L1113,195L1322,225Z" fill="#85bbda" stroke="#85bbda"/><path d="M1234,88L1322,225L1426,134Z" fill="#81b5d4" stroke="#81b5d4"/><path d="M1426,134L1322,225L1462,180Z" fill="#7aaecf" stroke="#7aaecf"/><path d="M1426,134L1462,180L1536,95Z" fill="#7aacca" stroke="#7aacca"/><path d="M1536,95L1462,180L1543,218Z" fill="#76a8c8" stroke="#76a8c8"/><path d="M1536,95L1543,218L1730,196Z" fill="#73a2c2" stroke="#73a2c2"/><path d="M1536,95L1730,196L1751,22Z" fill="#78a0be" stroke="#78a0be"/><path d="M1751,22L1730,196L1846,95Z" fill="#7899b7" stroke="#7899b7"/><path d="M1846,95L1730,196L1884,219Z" fill="#7394b4" stroke="#7394b4"/><path d="M1846,95L1884,219L1989,82Z" fill="#7690af" stroke="#7690af"/><path d="M1989,82L1884,219L2060,201Z" fill="#7389aa" stroke="#7389aa"/><path d="M-34,253L-82,357L58,403Z" fill="#cbe2f8" stroke="#cbe2f8"/><path d="M-34,253L58,403L97,169Z" fill="#d5e5f8" stroke="#d5e5f8"/><path d="M97,169L58,403L243,274Z" fill="#cde0f5" stroke="#cde0f5"/><path d="M243,274L58,403L278,396Z" fill="#b8d6f2" stroke="#b8d6f2"/><path d="M243,274L278,396L419,387Z" fill="#b1d1ef" stroke="#b1d1ef"/><path d="M243,274L419,387L408,216Z" fill="#bcd5ef" stroke="#bcd5ef"/><path d="M408,216L419,387L498,206Z" fill="#b9d3ed" stroke="#b9d3ed"/><path d="M498,206L419,387L552,407Z" fill="#a6caeb" stroke="#a6caeb"/><path d="M498,206L552,407L730,270Z" fill="#a5cae9" stroke="#a5cae9"/><path d="M730,270L552,407L684,417Z" fill="#8fc0e6" stroke="#8fc0e6"/><path d="M730,270L684,417L781,279Z" fill="#92c2e6" stroke="#92c2e6"/><path d="M781,279L684,417L858,342Z" fill="#89bee4" stroke="#89bee4"/><path d="M781,279L858,342L1005,285Z" fill="#88bee3" stroke="#88bee3"/><path d="M1005,285L858,342L1021,396Z" fill="#78b7e0" stroke="#78b7e0"/><path d="M1005,285L1021,396L1151,358Z" fill="#6eb3de" stroke="#6eb3de"/><path d="M1005,285L1151,358L1113,195Z" fill="#7ab8df" stroke="#7ab8df"/><path d="M1113,195L1151,358L1322,225Z" fill="#76b5da" stroke="#76b5da"/><path d="M1322,225L1151,358L1232,428Z" fill="#63abd6" stroke="#63abd6"/><path d="M1322,225L1232,428L1418,402Z" fill="#5ba4d1" stroke="#5ba4d1"/><path d="M1322,225L1418,402L1462,180Z" fill="#69a7cd" stroke="#69a7cd"/><path d="M1462,180L1418,402L1543,218Z" fill="#66a2c9" stroke="#66a2c9"/><path d="M1543,218L1418,402L1593,370Z" fill="#5699c4" stroke="#5699c4"/><path d="M1543,218L1593,370L1730,196Z" fill="#6299bf" stroke="#6299bf"/><path d="M1730,196L1593,370L1726,406Z" fill="#548fba" stroke="#548fba"/><path d="M1730,196L1726,406L1869,357Z" fill="#5589b5" stroke="#5589b5"/><path d="M1730,196L1869,357L1884,219Z" fill="#638cb2" stroke="#638cb2"/><path d="M1884,219L1869,357L2020,388Z" fill="#557fab" stroke="#557fab"/><path d="M1884,219L2020,388L2060,201Z" fill="#6080a8" stroke="#6080a8"/><path d="M2060,201L2020,388L2084,550Z" fill="#4871a1" stroke="#4871a1"/><path d="M-82,357L-104,634L-83,507Z" fill="#abd7f4" stroke="#abd7f4"/><path d="M-82,357L-83,507L58,403Z" fill="#b9daf6" stroke="#b9daf6"/><path d="M58,403L-83,507L40,513Z" fill="#abd4f2" stroke="#abd4f2"/><path d="M58,403L40,513L236,585Z" fill="#9ecdee" stroke="#9ecdee"/><path d="M58,403L236,585L278,396Z" fill="#a1cdee" stroke="#a1cdee"/><path d="M278,396L236,585L420,531Z" fill="#8fc3e8" stroke="#8fc3e8"/><path d="M278,396L420,531L419,387Z" fill="#9ac6ea" stroke="#9ac6ea"/><path d="M419,387L420,531L552,407Z" fill="#91c1e8" stroke="#91c1e8"/><path d="M552,407L420,531L552,571Z" fill="#7fbae3" stroke="#7fbae3"/><path d="M552,407L552,571L684,417Z" fill="#7fbae3" stroke="#7fbae3"/><path d="M684,417L552,571L703,536Z" fill="#71b4e0" stroke="#71b4e0"/><path d="M684,417L703,536L853,539Z" fill="#69b1de" stroke="#69b1de"/><path d="M684,417L853,539L858,342Z" fill="#73b5e1" stroke="#73b5e1"/><path d="M858,342L853,539L1021,396Z" fill="#6ab1de" stroke="#6ab1de"/><path d="M1021,396L853,539L1020,510Z" fill="#58aada" stroke="#58aada"/><path d="M1021,396L1020,510L1070,519Z" fill="#53a8d9" stroke="#53a8d9"/><path d="M1021,396L1070,519L1151,358Z" fill="#5aaadb" stroke="#5aaadb"/><path d="M1151,358L1070,519L1232,428Z" fill="#51a7d8" stroke="#51a7d8"/><path d="M1232,428L1070,519L1235,505Z" fill="#44a1d4" stroke="#44a1d4"/><path d="M1232,428L1235,505L1418,402Z" fill="#479ccf" stroke="#479ccf"/><path d="M1418,402L1235,505L1445,577Z" fill="#3994c8" stroke="#3994c8"/><path d="M1418,402L1445,577L1551,519Z" fill="#328cc1" stroke="#328cc1"/><path d="M1418,402L1551,519L1593,370Z" fill="#3f8fc1" stroke="#3f8fc1"/><path d="M1593,370L1551,519L1669,467Z" fill="#3888bb" stroke="#3888bb"/><path d="M1593,370L1669,467L1726,406Z" fill="#4088b9" stroke="#4088b9"/><path d="M1726,406L1669,467L1835,536Z" fill="#347db1" stroke="#347db1"/><path d="M1726,406L1835,536L1869,357Z" fill="#3c7caf" stroke="#3c7caf"/><path d="M1869,357L1835,536L2020,388Z" fill="#3d77a9" stroke="#3d77a9"/><path d="M2020,388L1835,536L2084,550Z" fill="#2f6ca1" stroke="#2f6ca1"/><path d="M-83,507L-104,634L40,513Z" fill="#9dd0f0" stroke="#9dd0f0"/><path d="M40,513L-104,634L132,646Z" fill="#90c8ea" stroke="#90c8ea"/><path d="M40,513L132,646L236,585Z" fill="#8ac5e9" stroke="#8ac5e9"/><path d="M236,585L132,646L178,698Z" fill="#83b9df" stroke="#83b9df"/><path d="M236,585L178,698L386,708Z" fill="#7db2d9" stroke="#7db2d9"/><path d="M236,585L386,708L420,531Z" fill="#7ab7e0" stroke="#7ab7e0"/><path d="M420,531L386,708L533,671Z" fill="#70aed9" stroke="#70aed9"/><path d="M420,531L533,671L552,571Z" fill="#6db2de" stroke="#6db2de"/><path d="M552,571L533,671L705,675Z" fill="#62a7d5" stroke="#62a7d5"/><path d="M552,571L705,675L703,536Z" fill="#5eacda" stroke="#5eacda"/><path d="M703,536L705,675L836,632Z" fill="#55a5d5" stroke="#55a5d5"/><path d="M703,536L836,632L853,539Z" fill="#54a9da" stroke="#54a9da"/><path d="M853,539L836,632L991,711Z" fill="#469dd0" stroke="#469dd0"/><path d="M853,539L991,711L1020,510Z" fill="#42a1d5" stroke="#42a1d5"/><path d="M1020,510L991,711L1070,519Z" fill="#3c9fd4" stroke="#3c9fd4"/><path d="M1070,519L991,711L1099,720Z" fill="#3693c9" stroke="#3693c9"/><path d="M1070,519L1099,720L1235,505Z" fill="#329bd1" stroke="#329bd1"/><path d="M1235,505L1099,720L1323,652Z" fill="#2a8fc6" stroke="#2a8fc6"/><path d="M1235,505L1323,652L1445,577Z" fill="#278ec6" stroke="#278ec6"/><path d="M1445,577L1323,652L1387,727Z" fill="#2181b8" stroke="#2181b8"/><path d="M1445,577L1387,727L1635,634Z" fill="#1c7ab2" stroke="#1c7ab2"/><path d="M1445,577L1635,634L1551,519Z" fill="#1d81b8" stroke="#1d81b8"/><path d="M1551,519L1635,634L1669,467Z" fill="#247fb5" stroke="#247fb5"/><path d="M1669,467L1635,634L1835,536Z" fill="#2379af" stroke="#2379af"/><path d="M1835,536L1635,634L1729,690Z" fill="#186ea7" stroke="#186ea7"/><path d="M1835,536L1729,690L1856,713Z" fill="#17669e" stroke="#17669e"/><path d="M1835,536L1856,713L1976,694Z" fill="#176098" stroke="#176098"/><path d="M1835,536L1976,694L2084,550Z" fill="#19649c" stroke="#19649c"/><path d="M2084,550L1976,694L2020,875Z" fill="#154e87" stroke="#154e87"/><path d="M2084,550L2020,875L2035,1025Z" fill="#103c75" stroke="#103c75"/><path d="M-104,634L-78,827L27,847Z" fill="#8eb1d2" stroke="#8eb1d2"/><path d="M-104,634L27,847L132,646Z" fill="#8cb7da" stroke="#8cb7da"/><path d="M132,646L27,847L178,698Z" fill="#85afd4" stroke="#85afd4"/><path d="M178,698L27,847L222,794Z" fill="#81a6cb" stroke="#81a6cb"/><path d="M178,698L222,794L386,708Z" fill="#7ba8cf" stroke="#7ba8cf"/><path d="M386,708L222,794L374,834Z" fill="#749dc7" stroke="#749dc7"/><path d="M386,708L374,834L489,872Z" fill="#6c95c0" stroke="#6c95c0"/><path d="M386,708L489,872L533,671Z" fill="#699bc7" stroke="#699bc7"/><path d="M533,671L489,872L663,784Z" fill="#5f94c2" stroke="#5f94c2"/><path d="M533,671L663,784L705,675Z" fill="#5c9bc9" stroke="#5c9bc9"/><path d="M705,675L663,784L824,844Z" fill="#508ebf" stroke="#508ebf"/><path d="M705,675L824,844L836,632Z" fill="#4c93c5" stroke="#4c93c5"/><path d="M836,632L824,844L991,711Z" fill="#438ec1" stroke="#438ec1"/><path d="M991,711L824,844L1021,879Z" fill="#397fb3" stroke="#397fb3"/><path d="M991,711L1021,879L1066,792Z" fill="#337fb4" stroke="#337fb4"/><path d="M991,711L1066,792L1099,720Z" fill="#3286bb" stroke="#3286bb"/><path d="M1099,720L1066,792L1294,776Z" fill="#287fb6" stroke="#287fb6"/><path d="M1099,720L1294,776L1323,652Z" fill="#2580b8" stroke="#2580b8"/><path d="M1323,652L1294,776L1387,727Z" fill="#2079b1" stroke="#2079b1"/><path d="M1387,727L1294,776L1377,855Z" fill="#1d6ea5" stroke="#1d6ea5"/><path d="M1387,727L1377,855L1619,854Z" fill="#16639b" stroke="#16639b"/><path d="M1387,727L1619,854L1635,634Z" fill="#1569a1" stroke="#1569a1"/><path d="M1635,634L1619,854L1715,769Z" fill="#135f98" stroke="#135f98"/><path d="M1635,634L1715,769L1729,690Z" fill="#15669d" stroke="#15669d"/><path d="M1729,690L1715,769L1856,713Z" fill="#145c95" stroke="#145c95"/><path d="M1856,713L1715,769L1873,846Z" fill="#125189" stroke="#125189"/><path d="M1856,713L1873,846L1976,694Z" fill="#134f88" stroke="#134f88"/><path d="M1976,694L1873,846L2020,875Z" fill="#11447c" stroke="#11447c"/><path d="M-78,827L-37,1017L27,847Z" fill="#879cbf" stroke="#879cbf"/><path d="M27,847L-37,1017L123,969Z" fill="#8192b6" stroke="#8192b6"/><path d="M27,847L123,969L222,794Z" fill="#7e99be" stroke="#7e99be"/><path d="M222,794L123,969L279,997Z" fill="#778db5" stroke="#778db5"/><path d="M222,794L279,997L374,834Z" fill="#7390b9" stroke="#7390b9"/><path d="M374,834L279,997L387,984Z" fill="#6c84ae" stroke="#6c84ae"/><path d="M374,834L387,984L489,872Z" fill="#6987b2" stroke="#6987b2"/><path d="M489,872L387,984L523,1002Z" fill="#617ca9" stroke="#617ca9"/><path d="M489,872L523,1002L632,994Z" fill="#5a78a6" stroke="#5a78a6"/><path d="M489,872L632,994L663,784Z" fill="#5881b0" stroke="#5881b0"/><path d="M663,784L632,994L824,844Z" fill="#4e7eaf" stroke="#4e7eaf"/><path d="M824,844L632,994L822,1015Z" fill="#4671a2" stroke="#4671a2"/><path d="M824,844L822,1015L1021,879Z" fill="#3b71a5" stroke="#3b71a5"/><path d="M1021,879L822,1015L1035,969Z" fill="#33699e" stroke="#33699e"/><path d="M1021,879L1035,969L1068,988Z" fill="#2b669d" stroke="#2b669d"/><path d="M1021,879L1068,988L1066,792Z" fill="#2c70a5" stroke="#2c70a5"/><path d="M1066,792L1068,988L1323,960Z" fill="#22679f" stroke="#22679f"/><path d="M1066,792L1323,960L1294,776Z" fill="#216da5" stroke="#216da5"/><path d="M1294,776L1323,960L1377,855Z" fill="#1b649b" stroke="#1b649b"/><path d="M1377,855L1323,960L1399,1002Z" fill="#16558e" stroke="#16558e"/><path d="M1377,855L1399,1002L1619,854Z" fill="#12548d" stroke="#12548d"/><path d="M1619,854L1399,1002L1581,1027Z" fill="#0c4780" stroke="#0c4780"/><path d="M1619,854L1581,1027L1747,1015Z" fill="#0a3f78" stroke="#0a3f78"/><path d="M1619,854L1747,1015L1715,769Z" fill="#0e4982" stroke="#0e4982"/><path d="M1715,769L1747,1015L1873,846Z" fill="#0e447d" stroke="#0e447d"/><path d="M1873,846L1747,1015L1910,1000Z" fill="#0b346d" stroke="#0b346d"/><path d="M1873,846L1910,1000L2020,875Z" fill="#0d356e" stroke="#0d356e"/><path d="M2020,875L1910,1000L2035,1025Z" fill="#0a2962" stroke="#0a2962"/><path d="M-37,1017L-18,1087L39,1095Z" fill="#7f81a4" stroke="#7f81a4"/><path d="M-37,1017L39,1095L123,969Z" fill="#7d85a9" stroke="#7d85a9"/><path d="M123,969L39,1095L171,1162Z" fill="#777aa0" stroke="#777aa0"/><path d="M123,969L171,1162L279,997Z" fill="#737ca3" stroke="#737ca3"/><path d="M279,997L171,1162L327,1163Z" fill="#6b6e97" stroke="#6b6e97"/><path d="M279,997L327,1163L387,984Z" fill="#69749e" stroke="#69749e"/><path d="M387,984L327,1163L473,1178Z" fill="#626793" stroke="#626793"/><path d="M387,984L473,1178L523,1002Z" fill="#5e6d99" stroke="#5e6d99"/><path d="M523,1002L473,1178L659,1095Z" fill="#546392" stroke="#546392"/><path d="M523,1002L659,1095L632,994Z" fill="#516b9a" stroke="#516b9a"/><path d="M632,994L659,1095L822,1015Z" fill="#476697" stroke="#476697"/><path d="M822,1015L659,1095L768,1126Z" fill="#415d8f" stroke="#415d8f"/><path d="M822,1015L768,1126L960,1129Z" fill="#37588b" stroke="#37588b"/><path d="M822,1015L960,1129L1035,969Z" fill="#315c91" stroke="#315c91"/><path d="M1035,969L960,1129L1068,988Z" fill="#2a5b91" stroke="#2a5b91"/><path d="M1068,988L960,1129L1154,1167Z" fill="#234f86" stroke="#234f86"/><path d="M1068,988L1154,1167L1269,1121Z" fill="#1a4b84" stroke="#1a4b84"/><path d="M1068,988L1269,1121L1323,960Z" fill="#1a528a" stroke="#1a528a"/><path d="M1323,960L1269,1121L1399,1002Z" fill="#144a82" stroke="#144a82"/><path d="M1399,1002L1269,1121L1476,1180Z" fill="#0f3c74" stroke="#0f3c74"/><path d="M1399,1002L1476,1180L1545,1122Z" fill="#0a356e" stroke="#0a356e"/><path d="M1399,1002L1545,1122L1581,1027Z" fill="#0a3b74" stroke="#0a3b74"/><path d="M1581,1027L1545,1122L1747,1164Z" fill="#042b64" stroke="#042b64"/><path d="M1581,1027L1747,1164L1747,1015Z" fill="#062d65" stroke="#062d65"/><path d="M1747,1015L1747,1164L1890,1162Z" fill="#041f58" stroke="#041f58"/><path d="M1747,1015L1890,1162L1910,1000Z" fill="#06235d" stroke="#06235d"/><path d="M1910,1000L1890,1162L1982,1110Z" fill="#051a53" stroke="#051a53"/><path d="M1910,1000L1982,1110L2035,1025Z" fill="#071e57" stroke="#071e57"/><path d="M-18,1087L171,1162L39,1095Z" fill="#78769b" stroke="#78769b"/><path d="M171,1162L473,1178L327,1163Z" fill="#64688c" stroke="#64688c"/><path d="M473,1178L1476,1180L1154,1167Z" fill="#224b7a" stroke="#224b7a"/><path d="M473,1178L1154,1167L768,1126Z" fill="#395482" stroke="#395482"/><path d="M473,1178L768,1126L659,1095Z" fill="#4a5a8a" stroke="#4a5a8a"/><path d="M768,1126L1154,1167L960,1129Z" fill="#2b4d81" stroke="#2b4d81"/><path d="M1154,1167L1476,1180L1269,1121Z" fill="#103d71" stroke="#103d71"/><path d="M1476,1180L1890,1162L1747,1164Z" fill="#022256" stroke="#022256"/><path d="M1476,1180L1747,1164L1545,1122Z" fill="#022a5f" stroke="#022a5f"/></g></svg>