<svg width="1920" height="976" xmlns="http://www.w3.org/2000/svg"><g><path d="M-19,-116L-121,109L62,-24Z" fill="#fffcfa" stroke="#fffcfa"/><path d="M-19,-116L62,-24L172,-113Z" fill="#fff8f6" stroke="#fff8f6"/><path d="M-19,-116L172,-113L527,-129Z" fill="#fef0ef" stroke="#fef0ef"/><path d="M62,-24L-121,109L70,55Z" fill="#fffbf9" stroke="#fffbf9"/><path d="M62,-24L70,55L202,67Z" fill="#fff6f4" stroke="#fff6f4"/><path d="M62,-24L202,67L172,-113Z" fill="#fff4f3" stroke="#fff4f3"/><path d="M172,-113L202,67L408,-20Z" fill="#feefed" stroke="#feefed"/><path d="M172,-113L408,-20L527,-129Z" fill="#fee8e6" stroke="#fee8e6"/><path d="M408,-20L202,67L383,132Z" fill="#feebe9" stroke="#feebe9"/><path d="M408,-20L383,132L470,116Z" fill="#fee6e3" stroke="#fee6e3"/><path d="M408,-20L470,116L527,-129Z" fill="#fee3e0" stroke="#fee3e0"/><path d="M527,-129L470,116L708,43Z" fill="#fddbde" stroke="#fddbde"/><path d="M527,-129L708,43L689,-78Z" fill="#fdd5dc" stroke="#fdd5dc"/><path d="M527,-129L689,-78L1004,-111Z" fill="#fdcdd9" stroke="#fdcdd9"/><path d="M527,-129L1004,-111L1226,-120Z" fill="#fcb8d2" stroke="#fcb8d2"/><path d="M527,-129L1226,-120L1395,-125Z" fill="#f6aace" stroke="#f6aace"/><path d="M689,-78L708,43L815,55Z" fill="#fdcdda" stroke="#fdcdda"/><path d="M689,-78L815,55L879,-16Z" fill="#fcc7d7" stroke="#fcc7d7"/><path d="M689,-78L879,-16L1004,-111Z" fill="#fcc0d5" stroke="#fcc0d5"/><path d="M879,-16L815,55L1015,79Z" fill="#fcbad3" stroke="#fcbad3"/><path d="M879,-16L1015,79L1004,-111Z" fill="#fbb3d0" stroke="#fbb3d0"/><path d="M1004,-111L1015,79L1133,-53Z" fill="#f6aace" stroke="#f6aace"/><path d="M1004,-111L1133,-53L1226,-120Z" fill="#f3a2cd" stroke="#f3a2cd"/><path d="M1133,-53L1015,79L1154,60Z" fill="#f4a5cd" stroke="#f4a5cd"/><path d="M1133,-53L1154,60L1226,-120Z" fill="#f09dcc" stroke="#f09dcc"/><path d="M1226,-120L1154,60L1229,102Z" fill="#ee99cb" stroke="#ee99cb"/><path d="M1226,-120L1229,102L1395,-125Z" fill="#e691c7" stroke="#e691c7"/><path d="M1395,-125L1229,102L1458,59Z" fill="#df89c3" stroke="#df89c3"/><path d="M1395,-125L1458,59L1594,-113Z" fill="#d280be" stroke="#d280be"/><path d="M1395,-125L1594,-113L1857,-116Z" fill="#c480bc" stroke="#c480bc"/><path d="M1594,-113L1458,59L1614,90Z" fill="#ca80bd" stroke="#ca80bd"/><path d="M1594,-113L1614,90L1682,-39Z" fill="#c280bc" stroke="#c280bc"/><path d="M1594,-113L1682,-39L1857,-116Z" fill="#b980bb" stroke="#b980bb"/><path d="M1682,-39L1614,90L1702,68Z" fill="#be80bb" stroke="#be80bb"/><path d="M1682,-39L1702,68L1857,-116Z" fill="#b580ba" stroke="#b580ba"/><path d="M1857,-116L1702,68L1834,124Z" fill="#b080ba" stroke="#b080ba"/><path d="M1857,-116L1834,124L2003,-23Z" fill="#a580b8" stroke="#a580b8"/><path d="M2003,-23L1834,124L1919,187Z" fill="#a380b8" stroke="#a380b8"/><path d="M2003,-23L1919,187L2057,102Z" fill="#9b80b7" stroke="#9b80b7"/><path d="M-121,109L-130,243L62,275Z" fill="#fff7f3" stroke="#fff7f3"/><path d="M-121,109L62,275L70,55Z" fill="#fff9f7" stroke="#fff9f7"/><path d="M70,55L62,275L167,231Z" fill="#fff1ee" stroke="#fff1ee"/><path d="M70,55L167,231L202,67Z" fill="#fff4f3" stroke="#fff4f3"/><path d="M202,67L167,231L323,233Z" fill="#feece9" stroke="#feece9"/><path d="M202,67L323,233L383,132Z" fill="#feeae8" stroke="#feeae8"/><path d="M383,132L323,233L486,333Z" fill="#feded9" stroke="#feded9"/><path d="M383,132L486,333L470,116Z" fill="#fededa" stroke="#fededa"/><path d="M470,116L486,333L558,279Z" fill="#fed6d2" stroke="#fed6d2"/><path d="M470,116L558,279L620,246Z" fill="#fdd5d4" stroke="#fdd5d4"/><path d="M470,116L620,246L708,43Z" fill="#fdd8dc" stroke="#fdd8dc"/><path d="M708,43L620,246L854,266Z" fill="#fdc9d3" stroke="#fdc9d3"/><path d="M708,43L854,266L815,55Z" fill="#fcc7d7" stroke="#fcc7d7"/><path d="M815,55L854,266L983,224Z" fill="#fcb7cd" stroke="#fcb7cd"/><path d="M815,55L983,224L1015,79Z" fill="#fbb6d1" stroke="#fbb6d1"/><path d="M1015,79L983,224L1093,217Z" fill="#f7a8c9" stroke="#f7a8c9"/><path d="M1015,79L1093,217L1154,60Z" fill="#f4a6ce" stroke="#f4a6ce"/><path d="M1154,60L1093,217L1229,102Z" fill="#f09ecc" stroke="#f09ecc"/><path d="M1229,102L1093,217L1285,222Z" fill="#ee95c5" stroke="#ee95c5"/><path d="M1229,102L1285,222L1458,171Z" fill="#e289c0" stroke="#e289c0"/><path d="M1229,102L1458,171L1458,59Z" fill="#dc86c2" stroke="#dc86c2"/><path d="M1458,59L1458,171L1614,90Z" fill="#cf80be" stroke="#cf80be"/><path d="M1614,90L1458,171L1524,284Z" fill="#cd7bb7" stroke="#cd7bb7"/><path d="M1614,90L1524,284L1672,343Z" fill="#c577b0" stroke="#c577b0"/><path d="M1614,90L1672,343L1783,206Z" fill="#bc79b2" stroke="#bc79b2"/><path d="M1614,90L1783,206L1702,68Z" fill="#bb80bb" stroke="#bb80bb"/><path d="M1702,68L1783,206L1834,124Z" fill="#b37fb9" stroke="#b37fb9"/><path d="M1834,124L1783,206L1919,187Z" fill="#ab7cb3" stroke="#ab7cb3"/><path d="M2057,102L1919,187L1976,245Z" fill="#9c7cb1" stroke="#9c7cb1"/><path d="M2057,102L1976,245L2062,351Z" fill="#9777aa" stroke="#9777aa"/><path d="M2057,102L2062,351L2082,811Z" fill="#93519d" stroke="#93519d"/><path d="M-130,243L-122,504L-21,401Z" fill="#ffdae8" stroke="#ffdae8"/><path d="M-130,243L-21,401L62,275Z" fill="#ffe7ea" stroke="#ffe7ea"/><path d="M62,275L-21,401L68,318Z" fill="#ffe0e6" stroke="#ffe0e6"/><path d="M62,275L68,318L167,231Z" fill="#ffe7e6" stroke="#ffe7e6"/><path d="M167,231L68,318L217,317Z" fill="#ffe2e3" stroke="#ffe2e3"/><path d="M167,231L217,317L323,233Z" fill="#fee3e0" stroke="#fee3e0"/><path d="M323,233L217,317L319,367Z" fill="#fed8db" stroke="#fed8db"/><path d="M323,233L319,367L486,333Z" fill="#fed2d6" stroke="#fed2d6"/><path d="M558,279L486,333L701,408Z" fill="#fdbfcb" stroke="#fdbfcb"/><path d="M558,279L701,408L620,246Z" fill="#fdc0cc" stroke="#fdc0cc"/><path d="M620,246L701,408L770,390Z" fill="#fdb4c8" stroke="#fdb4c8"/><path d="M620,246L770,390L854,266Z" fill="#fdb8c9" stroke="#fdb8c9"/><path d="M854,266L770,390L1035,419Z" fill="#fc9dc0" stroke="#fc9dc0"/><path d="M854,266L1035,419L983,224Z" fill="#fb9fc0" stroke="#fb9fc0"/><path d="M983,224L1035,419L1093,217Z" fill="#f799bf" stroke="#f799bf"/><path d="M1093,217L1035,419L1173,351Z" fill="#f48bbc" stroke="#f48bbc"/><path d="M1093,217L1173,351L1285,222Z" fill="#ef8ebe" stroke="#ef8ebe"/><path d="M1285,222L1173,351L1322,381Z" fill="#e87cb7" stroke="#e87cb7"/><path d="M1285,222L1322,381L1412,395Z" fill="#e170b2" stroke="#e170b2"/><path d="M1285,222L1412,395L1458,171Z" fill="#dc79b4" stroke="#dc79b4"/><path d="M1458,171L1412,395L1524,284Z" fill="#d46faf" stroke="#d46faf"/><path d="M1524,284L1412,395L1589,418Z" fill="#cf60aa" stroke="#cf60aa"/><path d="M1524,284L1589,418L1672,343Z" fill="#c663aa" stroke="#c663aa"/><path d="M1783,206L1672,343L1909,374Z" fill="#b16ba9" stroke="#b16ba9"/><path d="M1783,206L1909,374L1919,187Z" fill="#a874ab" stroke="#a874ab"/><path d="M1919,187L1909,374L1976,245Z" fill="#a172a9" stroke="#a172a9"/><path d="M1976,245L1909,374L2062,351Z" fill="#9c68a6" stroke="#9c68a6"/><path d="M-21,401L-122,504L80,488Z" fill="#ffc1dd" stroke="#ffc1dd"/><path d="M-21,401L80,488L68,318Z" fill="#ffcfe0" stroke="#ffcfe0"/><path d="M68,318L80,488L217,317Z" fill="#ffd2df" stroke="#ffd2df"/><path d="M217,317L80,488L281,554Z" fill="#febad4" stroke="#febad4"/><path d="M217,317L281,554L319,367Z" fill="#fec1d4" stroke="#fec1d4"/><path d="M319,367L281,554L350,546Z" fill="#fea9ca" stroke="#fea9ca"/><path d="M319,367L350,546L508,515Z" fill="#fea9c7" stroke="#fea9c7"/><path d="M319,367L508,515L486,333Z" fill="#febacb" stroke="#febacb"/><path d="M486,333L508,515L701,408Z" fill="#fdadc5" stroke="#fdadc5"/><path d="M701,408L508,515L619,540Z" fill="#fd97bd" stroke="#fd97bd"/><path d="M701,408L619,540L876,558Z" fill="#fd89ba" stroke="#fd89ba"/><path d="M701,408L876,558L770,390Z" fill="#fc90bc" stroke="#fc90bc"/><path d="M770,390L876,558L1035,419Z" fill="#fc82b7" stroke="#fc82b7"/><path d="M1035,419L876,558L1016,566Z" fill="#fa6aaf" stroke="#fa6aaf"/><path d="M1035,419L1016,566L1159,485Z" fill="#f566ae" stroke="#f566ae"/><path d="M1035,419L1159,485L1173,351Z" fill="#f274b4" stroke="#f274b4"/><path d="M1173,351L1159,485L1322,381Z" fill="#ec6db3" stroke="#ec6db3"/><path d="M1322,381L1159,485L1281,548Z" fill="#e957aa" stroke="#e957aa"/><path d="M1322,381L1281,548L1412,395Z" fill="#e156a9" stroke="#e156a9"/><path d="M1412,395L1281,548L1449,569Z" fill="#dd41a1" stroke="#dd41a1"/><path d="M1412,395L1449,569L1589,418Z" fill="#d246a1" stroke="#d246a1"/><path d="M1589,418L1449,569L1561,584Z" fill="#cd369c" stroke="#cd369c"/><path d="M1589,418L1561,584L1709,625Z" fill="#c3319a" stroke="#c3319a"/><path d="M1589,418L1709,625L1785,568Z" fill="#bb3299" stroke="#bb3299"/><path d="M1589,418L1785,568L1672,343Z" fill="#bd4ba0" stroke="#bd4ba0"/><path d="M1672,343L1785,568L1909,374Z" fill="#b14fa0" stroke="#b14fa0"/><path d="M1909,374L1785,568L1877,530Z" fill="#aa3e99" stroke="#aa3e99"/><path d="M1909,374L1877,530L2005,584Z" fill="#a23d98" stroke="#a23d98"/><path d="M1909,374L2005,584L2062,351Z" fill="#9b4d9c" stroke="#9b4d9c"/><path d="M2062,351L2005,584L2030,678Z" fill="#973294" stroke="#973294"/><path d="M2062,351L2030,678L2082,811Z" fill="#931f90" stroke="#931f90"/><path d="M-122,504L-87,1185L-78,991Z" fill="#be91c4" stroke="#be91c4"/><path d="M-122,504L-78,991L-65,690Z" fill="#e892c9" stroke="#e892c9"/><path d="M-122,504L-65,690L20,685Z" fill="#fc9bd4" stroke="#fc9bd4"/><path d="M-122,504L20,685L80,488Z" fill="#ffa8d7" stroke="#ffa8d7"/><path d="M80,488L20,685L206,637Z" fill="#ff97d0" stroke="#ff97d0"/><path d="M80,488L206,637L281,554Z" fill="#fe9fce" stroke="#fe9fce"/><path d="M281,554L206,637L355,620Z" fill="#fe8ec7" stroke="#fe8ec7"/><path d="M281,554L355,620L350,546Z" fill="#fe94c5" stroke="#fe94c5"/><path d="M350,546L355,620L508,515Z" fill="#fe93c1" stroke="#fe93c1"/><path d="M508,515L355,620L515,645Z" fill="#fe87bc" stroke="#fe87bc"/><path d="M508,515L515,645L619,540Z" fill="#fd87bb" stroke="#fd87bb"/><path d="M619,540L515,645L709,705Z" fill="#f975b5" stroke="#f975b5"/><path d="M619,540L709,705L828,647Z" fill="#f96cb2" stroke="#f96cb2"/><path d="M619,540L828,647L876,558Z" fill="#fc70b4" stroke="#fc70b4"/><path d="M876,558L828,647L916,662Z" fill="#f95cad" stroke="#f95cad"/><path d="M876,558L916,662L1016,566Z" fill="#fb5aac" stroke="#fb5aac"/><path d="M1016,566L916,662L1149,669Z" fill="#f349a7" stroke="#f349a7"/><path d="M1016,566L1149,669L1159,485Z" fill="#f34daa" stroke="#f34daa"/><path d="M1159,485L1149,669L1281,548Z" fill="#ee45a8" stroke="#ee45a8"/><path d="M1281,548L1149,669L1237,670Z" fill="#e935a2" stroke="#e935a2"/><path d="M1281,548L1237,670L1384,654Z" fill="#e12d9f" stroke="#e12d9f"/><path d="M1281,548L1384,654L1449,569Z" fill="#dd2c9e" stroke="#dd2c9e"/><path d="M1449,569L1384,654L1533,675Z" fill="#d11d96" stroke="#d11d96"/><path d="M1449,569L1533,675L1561,584Z" fill="#cf2098" stroke="#cf2098"/><path d="M1561,584L1533,675L1709,625Z" fill="#c21e95" stroke="#c21e95"/><path d="M1785,568L1709,625L1826,618Z" fill="#b32195" stroke="#b32195"/><path d="M1785,568L1826,618L1877,530Z" fill="#ad2996" stroke="#ad2996"/><path d="M1877,530L1826,618L2005,584Z" fill="#a52894" stroke="#a52894"/><path d="M2005,584L1826,618L2030,678Z" fill="#9c1e90" stroke="#9c1e90"/><path d="M-65,690L-78,991L-22,875Z" fill="#c990c3" stroke="#c990c3"/><path d="M-65,690L-22,875L20,685Z" fill="#e38ec5" stroke="#e38ec5"/><path d="M20,685L-22,875L67,828Z" fill="#d78cc2" stroke="#d78cc2"/><path d="M20,685L67,828L206,637Z" fill="#ea8ac2" stroke="#ea8ac2"/><path d="M206,637L67,828L184,861Z" fill="#dc86bc" stroke="#dc86bc"/><path d="M206,637L184,861L331,839Z" fill="#da82b8" stroke="#da82b8"/><path d="M206,637L331,839L355,620Z" fill="#ed82ba" stroke="#ed82ba"/><path d="M355,620L331,839L515,645Z" fill="#ec7cb4" stroke="#ec7cb4"/><path d="M515,645L331,839L556,875Z" fill="#d875aa" stroke="#d875aa"/><path d="M515,645L556,875L674,825Z" fill="#d96ca7" stroke="#d96ca7"/><path d="M515,645L674,825L709,705Z" fill="#e769a9" stroke="#e769a9"/><path d="M709,705L674,825L778,882Z" fill="#d261a3" stroke="#d261a3"/><path d="M709,705L778,882L828,647Z" fill="#e15ba3" stroke="#e15ba3"/><path d="M828,647L778,882L916,662Z" fill="#e453a1" stroke="#e453a1"/><path d="M916,662L778,882L992,848Z" fill="#d34d9c" stroke="#d34d9c"/><path d="M916,662L992,848L1118,820Z" fill="#d54099" stroke="#d54099"/><path d="M916,662L1118,820L1149,669Z" fill="#e13c9c" stroke="#e13c9c"/><path d="M1149,669L1118,820L1237,670Z" fill="#da3199" stroke="#da3199"/><path d="M1237,670L1118,820L1333,812Z" fill="#ca2994" stroke="#ca2994"/><path d="M1237,670L1333,812L1384,654Z" fill="#cf2193" stroke="#cf2193"/><path d="M1384,654L1333,812L1420,828Z" fill="#bc198c" stroke="#bc198c"/><path d="M1384,654L1420,828L1533,675Z" fill="#c1148c" stroke="#c1148c"/><path d="M1533,675L1420,828L1593,818Z" fill="#ac1288" stroke="#ac1288"/><path d="M1533,675L1593,818L1709,625Z" fill="#b1158b" stroke="#b1158b"/><path d="M1709,625L1593,818L1706,845Z" fill="#9e1286" stroke="#9e1286"/><path d="M1709,625L1706,845L1826,618Z" fill="#a4168a" stroke="#a4168a"/><path d="M1826,618L1706,845L1928,842Z" fill="#8d1284" stroke="#8d1284"/><path d="M1826,618L1928,842L2030,678Z" fill="#8e1486" stroke="#8e1486"/><path d="M2030,678L1928,842L2082,811Z" fill="#751280" stroke="#751280"/><path d="M-22,875L-78,991L91,946Z" fill="#b38dbe" stroke="#b38dbe"/><path d="M-22,875L91,946L67,828Z" fill="#c18bbe" stroke="#c18bbe"/><path d="M67,828L91,946L184,861Z" fill="#c288bb" stroke="#c288bb"/><path d="M184,861L91,946L172,980Z" fill="#b586b7" stroke="#b586b7"/><path d="M184,861L172,980L365,917Z" fill="#b782b4" stroke="#b782b4"/><path d="M184,861L365,917L331,839Z" fill="#c37fb2" stroke="#c37fb2"/><path d="M331,839L365,917L556,875Z" fill="#c178aa" stroke="#c178aa"/><path d="M556,875L365,917L581,1033Z" fill="#b073a4" stroke="#b073a4"/><path d="M556,875L581,1033L629,1014Z" fill="#a86ca1" stroke="#a86ca1"/><path d="M556,875L629,1014L674,825Z" fill="#b969a3" stroke="#b969a3"/><path d="M674,825L629,1014L778,882Z" fill="#b863a1" stroke="#b863a1"/><path d="M778,882L629,1014L818,989Z" fill="#aa5f9d" stroke="#aa5f9d"/><path d="M778,882L818,989L992,848Z" fill="#b7519a" stroke="#b7519a"/><path d="M992,848L818,989L1017,932Z" fill="#b34896" stroke="#b34896"/><path d="M992,848L1017,932L1118,820Z" fill="#bd3d96" stroke="#bd3d96"/><path d="M1118,820L1017,932L1091,946Z" fill="#b33994" stroke="#b33994"/><path d="M1118,820L1091,946L1256,962Z" fill="#ac3192" stroke="#ac3192"/><path d="M1118,820L1256,962L1333,812Z" fill="#b12890" stroke="#b12890"/><path d="M1333,812L1256,962L1421,1002Z" fill="#981d89" stroke="#981d89"/><path d="M1333,812L1421,1002L1420,828Z" fill="#9e1788" stroke="#9e1788"/><path d="M1420,828L1421,1002L1557,1007Z" fill="#851283" stroke="#851283"/><path d="M1420,828L1557,1007L1593,818Z" fill="#8f1284" stroke="#8f1284"/><path d="M1593,818L1557,1007L1666,919Z" fill="#7e1282" stroke="#7e1282"/><path d="M1593,818L1666,919L1706,845Z" fill="#871283" stroke="#871283"/><path d="M1706,845L1666,919L1903,996Z" fill="#6c1280" stroke="#6c1280"/><path d="M1706,845L1903,996L1928,842Z" fill="#6a127f" stroke="#6a127f"/><path d="M1928,842L1903,996L2074,979Z" fill="#51127c" stroke="#51127c"/><path d="M1928,842L2074,979L2082,811Z" fill="#5a127d" stroke="#5a127d"/><path d="M-78,991L-87,1185L52,1120Z" fill="#8a8fba" stroke="#8a8fba"/><path d="M-78,991L52,1120L91,946Z" fill="#9e8cba" stroke="#9e8cba"/><path d="M91,946L52,1120L172,980Z" fill="#9f88b6" stroke="#9f88b6"/><path d="M172,980L52,1120L221,1124Z" fill="#9086b3" stroke="#9086b3"/><path d="M172,980L221,1124L365,917Z" fill="#a081b0" stroke="#a081b0"/><path d="M365,917L221,1124L416,1151Z" fill="#927ca9" stroke="#927ca9"/><path d="M365,917L416,1151L483,1122Z" fill="#9278a4" stroke="#9278a4"/><path d="M365,917L483,1122L581,1033Z" fill="#9c74a2" stroke="#9c74a2"/><path d="M581,1033L483,1122L722,1181Z" fill="#856b9c" stroke="#856b9c"/><path d="M581,1033L722,1181L629,1014Z" fill="#8e679c" stroke="#8e679c"/><path d="M629,1014L722,1181L774,1109Z" fill="#87629a" stroke="#87629a"/><path d="M629,1014L774,1109L818,989Z" fill="#975f9b" stroke="#975f9b"/><path d="M818,989L774,1109L938,1169Z" fill="#895395" stroke="#895395"/><path d="M818,989L938,1169L1017,932Z" fill="#984a93" stroke="#984a93"/><path d="M1017,932L938,1169L1091,946Z" fill="#984091" stroke="#984091"/><path d="M1091,946L938,1169L1174,1110Z" fill="#863a8f" stroke="#863a8f"/><path d="M1091,946L1174,1110L1256,962Z" fill="#922f8e" stroke="#922f8e"/><path d="M1256,962L1174,1110L1238,1151Z" fill="#7d298b" stroke="#7d298b"/><path d="M1256,962L1238,1151L1421,1002Z" fill="#7e2187" stroke="#7e2187"/><path d="M1421,1002L1238,1151L1481,1122Z" fill="#691981" stroke="#691981"/><path d="M1421,1002L1481,1122L1557,1007Z" fill="#6b1280" stroke="#6b1280"/><path d="M1557,1007L1481,1122L1566,1121Z" fill="#5b127d" stroke="#5b127d"/><path d="M1557,1007L1566,1121L1691,1071Z" fill="#58127d" stroke="#58127d"/><path d="M1557,1007L1691,1071L1666,919Z" fill="#65127e" stroke="#65127e"/><path d="M1666,919L1691,1071L1903,996Z" fill="#5a127d" stroke="#5a127d"/><path d="M1903,996L1691,1071L1911,1144Z" fill="#3e1279" stroke="#3e1279"/><path d="M1903,996L1911,1144L2020,1090Z" fill="#311277" stroke="#311277"/><path d="M1903,996L2020,1090L2074,979Z" fill="#391279" stroke="#391279"/><path d="M-87,1185L722,1181L416,1151Z" fill="#7f7ca5" stroke="#7f7ca5"/><path d="M-87,1185L416,1151L221,1124Z" fill="#7f84ae" stroke="#7f84ae"/><path d="M-87,1185L221,1124L52,1120Z" fill="#7f8ab4" stroke="#7f8ab4"/><path d="M416,1151L722,1181L483,1122Z" fill="#7e6f9c" stroke="#7e6f9c"/><path d="M722,1181L1911,1144L938,1169Z" fill="#6f2d89" stroke="#6f2d89"/><path d="M722,1181L938,1169L774,1109Z" fill="#7d5794" stroke="#7d5794"/><path d="M938,1169L1911,1144L1238,1151Z" fill="#5f1b80" stroke="#5f1b80"/><path d="M938,1169L1238,1151L1174,1110Z" fill="#73358b" stroke="#73358b"/><path d="M1238,1151L1911,1144L1566,1121Z" fill="#49127b" stroke="#49127b"/><path d="M1238,1151L1566,1121L1481,1122Z" fill="#5a137e" stroke="#5a137e"/><path d="M1566,1121L1911,1144L1691,1071Z" fill="#40127a" stroke="#40127a"/></g></svg>