<svg width="1920" height="976" xmlns="http://www.w3.org/2000/svg"><g><path d="M-30,-39L-123,130L-39,169Z" fill="#eac67a" stroke="#eac67a"/><path d="M-30,-39L-39,169L127,68Z" fill="#ecca7e" stroke="#ecca7e"/><path d="M-30,-39L127,68L127,-42Z" fill="#edc876" stroke="#edc876"/><path d="M-30,-39L127,-42L257,-92Z" fill="#eec770" stroke="#eec770"/><path d="M127,-42L127,68L267,82Z" fill="#f0d08a" stroke="#f0d08a"/><path d="M127,-42L267,82L257,-92Z" fill="#f1ce84" stroke="#f1ce84"/><path d="M257,-92L267,82L315,-90Z" fill="#f2d187" stroke="#f2d187"/><path d="M257,-92L315,-90L504,-92Z" fill="#f4d184" stroke="#f4d184"/><path d="M257,-92L504,-92L1227,-106Z" fill="#f8dea1" stroke="#f8dea1"/><path d="M315,-90L267,82L320,109Z" fill="#f3d698" stroke="#f3d698"/><path d="M315,-90L320,109L542,33Z" fill="#f5d99e" stroke="#f5d99e"/><path d="M315,-90L542,33L504,-92Z" fill="#f6d997" stroke="#f6d997"/><path d="M504,-92L542,33L733,-54Z" fill="#f9e0a9" stroke="#f9e0a9"/><path d="M504,-92L733,-54L858,-73Z" fill="#f3dea4" stroke="#f3dea4"/><path d="M504,-92L858,-73L1227,-106Z" fill="#dfd498" stroke="#dfd498"/><path d="M733,-54L542,33L714,16Z" fill="#f7e4b5" stroke="#f7e4b5"/><path d="M733,-54L714,16L779,60Z" fill="#eee1b2" stroke="#eee1b2"/><path d="M733,-54L779,60L858,-73Z" fill="#e8dcaa" stroke="#e8dcaa"/><path d="M858,-73L779,60L941,39Z" fill="#e0dbac" stroke="#e0dbac"/><path d="M858,-73L941,39L950,-16Z" fill="#d9d6a3" stroke="#d9d6a3"/><path d="M858,-73L950,-16L1136,-48Z" fill="#d1d19a" stroke="#d1d19a"/><path d="M858,-73L1136,-48L1227,-106Z" fill="#c6ca8f" stroke="#c6ca8f"/><path d="M950,-16L941,39L1145,47Z" fill="#cdd4a7" stroke="#cdd4a7"/><path d="M950,-16L1145,47L1136,-48Z" fill="#c5cf9d" stroke="#c5cf9d"/><path d="M1136,-48L1145,47L1227,-106Z" fill="#bac891" stroke="#bac891"/><path d="M1227,-106L1145,47L1275,115Z" fill="#b5c99a" stroke="#b5c99a"/><path d="M1227,-106L1275,115L1416,48Z" fill="#aac495" stroke="#aac495"/><path d="M1227,-106L1416,48L1457,-82Z" fill="#a2bd84" stroke="#a2bd84"/><path d="M1227,-106L1457,-82L1981,-91Z" fill="#8bb16f" stroke="#8bb16f"/><path d="M1457,-82L1416,48L1543,-38Z" fill="#96ba82" stroke="#96ba82"/><path d="M1457,-82L1543,-38L1708,-72Z" fill="#8ab274" stroke="#8ab274"/><path d="M1457,-82L1708,-72L1981,-91Z" fill="#80a968" stroke="#80a968"/><path d="M1543,-38L1416,48L1482,171Z" fill="#94bf93" stroke="#94bf93"/><path d="M1543,-38L1482,171L1630,130Z" fill="#8cbc95" stroke="#8cbc95"/><path d="M1543,-38L1630,130L1680,93Z" fill="#84b88c" stroke="#84b88c"/><path d="M1543,-38L1680,93L1708,-72Z" fill="#81b27d" stroke="#81b27d"/><path d="M1708,-72L1680,93L1823,-16Z" fill="#80ae79" stroke="#80ae79"/><path d="M1708,-72L1823,-16L1981,-91Z" fill="#80a466" stroke="#80a466"/><path d="M1823,-16L1680,93L1855,86Z" fill="#80af81" stroke="#80af81"/><path d="M1823,-16L1855,86L1981,-91Z" fill="#80a56e" stroke="#80a56e"/><path d="M1981,-91L1855,86L2064,21Z" fill="#80a26c" stroke="#80a26c"/><path d="M-123,130L-132,962L-123,409Z" fill="#c1c897" stroke="#c1c897"/><path d="M-123,130L-123,409L-39,169Z" fill="#eace95" stroke="#eace95"/><path d="M127,68L-39,169L21,222Z" fill="#edd092" stroke="#edd092"/><path d="M127,68L21,222L227,261Z" fill="#efd7a3" stroke="#efd7a3"/><path d="M127,68L227,261L267,82Z" fill="#f0d8a3" stroke="#f0d8a3"/><path d="M267,82L227,261L320,109Z" fill="#f2dcad" stroke="#f2dcad"/><path d="M320,109L227,261L423,268Z" fill="#f3e2bf" stroke="#f3e2bf"/><path d="M320,109L423,268L542,33Z" fill="#f5e3bb" stroke="#f5e3bb"/><path d="M542,33L423,268L572,255Z" fill="#f7ebcf" stroke="#f7ebcf"/><path d="M542,33L572,255L697,168Z" fill="#f9edd2" stroke="#f9edd2"/><path d="M542,33L697,168L714,16Z" fill="#f9e9c5" stroke="#f9e9c5"/><path d="M714,16L697,168L779,60Z" fill="#efe6c3" stroke="#efe6c3"/><path d="M779,60L697,168L859,249Z" fill="#e9e9d0" stroke="#e9e9d0"/><path d="M779,60L859,249L941,39Z" fill="#e0e2c2" stroke="#e0e2c2"/><path d="M941,39L859,249L933,258Z" fill="#d9e3cd" stroke="#d9e3cd"/><path d="M941,39L933,258L1092,196Z" fill="#d0dec5" stroke="#d0dec5"/><path d="M941,39L1092,196L1145,47Z" fill="#c7d6b2" stroke="#c7d6b2"/><path d="M1145,47L1092,196L1229,208Z" fill="#bcd5b8" stroke="#bcd5b8"/><path d="M1145,47L1229,208L1275,115Z" fill="#b4d0af" stroke="#b4d0af"/><path d="M1275,115L1229,208L1482,171Z" fill="#a7cdb1" stroke="#a7cdb1"/><path d="M1275,115L1482,171L1416,48Z" fill="#9fc6a3" stroke="#9fc6a3"/><path d="M1630,130L1482,171L1583,174Z" fill="#8ac0a3" stroke="#8ac0a3"/><path d="M1630,130L1583,174L1730,281Z" fill="#80bfa6" stroke="#80bfa6"/><path d="M1630,130L1730,281L1680,93Z" fill="#80bb9e" stroke="#80bb9e"/><path d="M1680,93L1730,281L1862,176Z" fill="#80b99d" stroke="#80b99d"/><path d="M1680,93L1862,176L1855,86Z" fill="#80b28d" stroke="#80b28d"/><path d="M1855,86L1862,176L2048,221Z" fill="#80af8f" stroke="#80af8f"/><path d="M1855,86L2048,221L2064,21Z" fill="#80a880" stroke="#80a880"/><path d="M2064,21L2048,221L2061,486Z" fill="#80ad98" stroke="#80ad98"/><path d="M2064,21L2061,486L2070,1144Z" fill="#4da497" stroke="#4da497"/><path d="M-39,169L-123,409L21,222Z" fill="#ebd3a1" stroke="#ebd3a1"/><path d="M21,222L-123,409L63,412Z" fill="#e6d7af" stroke="#e6d7af"/><path d="M21,222L63,412L227,261Z" fill="#eeddb8" stroke="#eeddb8"/><path d="M227,261L63,412L270,355Z" fill="#ece2c6" stroke="#ece2c6"/><path d="M227,261L270,355L423,268Z" fill="#f3e7ce" stroke="#f3e7ce"/><path d="M423,268L270,355L379,365Z" fill="#f3ecda" stroke="#f3ecda"/><path d="M423,268L379,365L488,408Z" fill="#f0eee1" stroke="#f0eee1"/><path d="M423,268L488,408L572,255Z" fill="#f7f2e7" stroke="#f7f2e7"/><path d="M572,255L488,408L577,487Z" fill="#ebf2eb" stroke="#ebf2eb"/><path d="M572,255L577,487L713,327Z" fill="#f3f7f6" stroke="#f3f7f6"/><path d="M572,255L713,327L697,168Z" fill="#f8f4ea" stroke="#f8f4ea"/><path d="M697,168L713,327L859,249Z" fill="#ecefe4" stroke="#ecefe4"/><path d="M859,249L713,327L863,385Z" fill="#e5f1ef" stroke="#e5f1ef"/><path d="M859,249L863,385L933,258Z" fill="#ddece6" stroke="#ddece6"/><path d="M933,258L863,385L972,335Z" fill="#d8ecea" stroke="#d8ecea"/><path d="M933,258L972,335L1092,196Z" fill="#cfe4d9" stroke="#cfe4d9"/><path d="M1092,196L972,335L1160,316Z" fill="#c6e1d8" stroke="#c6e1d8"/><path d="M1092,196L1160,316L1229,208Z" fill="#bbdacb" stroke="#bbdacb"/><path d="M1229,208L1160,316L1227,351Z" fill="#b6dcd3" stroke="#b6dcd3"/><path d="M1229,208L1227,351L1365,376Z" fill="#aed9d3" stroke="#aed9d3"/><path d="M1229,208L1365,376L1482,171Z" fill="#a3d1c2" stroke="#a3d1c2"/><path d="M1482,171L1365,376L1593,416Z" fill="#95cfc9" stroke="#95cfc9"/><path d="M1482,171L1593,416L1583,174Z" fill="#8cc7b7" stroke="#8cc7b7"/><path d="M1583,174L1593,416L1674,328Z" fill="#84c8bf" stroke="#84c8bf"/><path d="M1583,174L1674,328L1730,281Z" fill="#80c2b2" stroke="#80c2b2"/><path d="M1730,281L1674,328L1767,473Z" fill="#78c1ba" stroke="#78c1ba"/><path d="M1730,281L1767,473L1896,340Z" fill="#77bdb5" stroke="#77bdb5"/><path d="M1730,281L1896,340L1862,176Z" fill="#80baaa" stroke="#80baaa"/><path d="M1862,176L1896,340L2048,221Z" fill="#80b3a0" stroke="#80b3a0"/><path d="M2048,221L1896,340L1968,407Z" fill="#80b7ae" stroke="#80b7ae"/><path d="M2048,221L1968,407L2061,486Z" fill="#75b1a8" stroke="#75b1a8"/><path d="M-123,409L-132,962L-117,797Z" fill="#8eba86" stroke="#8eba86"/><path d="M-123,409L-117,797L-71,485Z" fill="#b3c594" stroke="#b3c594"/><path d="M-123,409L-71,485L63,412Z" fill="#d2d0a5" stroke="#d2d0a5"/><path d="M63,412L-71,485L96,544Z" fill="#c9d1aa" stroke="#c9d1aa"/><path d="M63,412L96,544L210,519Z" fill="#c9d6b3" stroke="#c9d6b3"/><path d="M63,412L210,519L270,355Z" fill="#d8dcbf" stroke="#d8dcbf"/><path d="M270,355L210,519L395,543Z" fill="#d1dfc8" stroke="#d1dfc8"/><path d="M270,355L395,543L379,365Z" fill="#dee5d2" stroke="#dee5d2"/><path d="M379,365L395,543L488,408Z" fill="#dbe8d9" stroke="#dbe8d9"/><path d="M488,408L395,543L577,487Z" fill="#d4e9dd" stroke="#d4e9dd"/><path d="M713,327L577,487L659,570Z" fill="#daf1ef" stroke="#daf1ef"/><path d="M713,327L659,570L824,521Z" fill="#ceedea" stroke="#ceedea"/><path d="M713,327L824,521L863,385Z" fill="#d3edeb" stroke="#d3edeb"/><path d="M863,385L824,521L945,530Z" fill="#bbe5e1" stroke="#bbe5e1"/><path d="M863,385L945,530L972,335Z" fill="#c3e6e3" stroke="#c3e6e3"/><path d="M972,335L945,530L1142,474Z" fill="#b1dfdb" stroke="#b1dfdb"/><path d="M972,335L1142,474L1160,316Z" fill="#b8e0dd" stroke="#b8e0dd"/><path d="M1160,316L1142,474L1227,351Z" fill="#addcd8" stroke="#addcd8"/><path d="M1227,351L1142,474L1309,567Z" fill="#94d4ce" stroke="#94d4ce"/><path d="M1227,351L1309,567L1365,376Z" fill="#92d2cd" stroke="#92d2cd"/><path d="M1365,376L1309,567L1421,467Z" fill="#81ccc6" stroke="#81ccc6"/><path d="M1365,376L1421,467L1593,416Z" fill="#81cbc5" stroke="#81cbc5"/><path d="M1593,416L1421,467L1578,555Z" fill="#6bc4bb" stroke="#6bc4bb"/><path d="M1593,416L1578,555L1767,473Z" fill="#5dbeb5" stroke="#5dbeb5"/><path d="M1593,416L1767,473L1674,328Z" fill="#6dc1b9" stroke="#6dc1b9"/><path d="M1896,340L1767,473L1872,541Z" fill="#63b6ac" stroke="#63b6ac"/><path d="M1896,340L1872,541L1968,407Z" fill="#68b3aa" stroke="#68b3aa"/><path d="M1968,407L1872,541L2061,486Z" fill="#5dada3" stroke="#5dada3"/><path d="M-71,485L-117,797L-20,669Z" fill="#a0c291" stroke="#a0c291"/><path d="M-71,485L-20,669L96,544Z" fill="#b5caa0" stroke="#b5caa0"/><path d="M96,544L-20,669L88,731Z" fill="#a3c89f" stroke="#a3c89f"/><path d="M96,544L88,731L249,668Z" fill="#a6cda9" stroke="#a6cda9"/><path d="M96,544L249,668L210,519Z" fill="#b7d3b4" stroke="#b7d3b4"/><path d="M210,519L249,668L395,543Z" fill="#b9d8bf" stroke="#b9d8bf"/><path d="M395,543L249,668L326,719Z" fill="#abd6be" stroke="#abd6be"/><path d="M395,543L326,719L538,706Z" fill="#aadac8" stroke="#aadac8"/><path d="M395,543L538,706L577,487Z" fill="#bee4d7" stroke="#bee4d7"/><path d="M577,487L538,706L659,570Z" fill="#bee8e1" stroke="#bee8e1"/><path d="M659,570L538,706L727,632Z" fill="#b4e7e2" stroke="#b4e7e2"/><path d="M659,570L727,632L824,521Z" fill="#b6e6e2" stroke="#b6e6e2"/><path d="M824,521L727,632L858,719Z" fill="#a3dfda" stroke="#a3dfda"/><path d="M824,521L858,719L964,624Z" fill="#99dcd6" stroke="#99dcd6"/><path d="M824,521L964,624L945,530Z" fill="#a4ded9" stroke="#a4ded9"/><path d="M945,530L964,624L1120,630Z" fill="#90d7d1" stroke="#90d7d1"/><path d="M945,530L1120,630L1142,474Z" fill="#94d7d1" stroke="#94d7d1"/><path d="M1142,474L1120,630L1309,567Z" fill="#83d0c9" stroke="#83d0c9"/><path d="M1309,567L1120,630L1280,651Z" fill="#70cac2" stroke="#70cac2"/><path d="M1309,567L1280,651L1477,667Z" fill="#5fc3ba" stroke="#5fc3ba"/><path d="M1309,567L1477,667L1421,467Z" fill="#67c5bc" stroke="#67c5bc"/><path d="M1421,467L1477,667L1578,555Z" fill="#5dc0b7" stroke="#5dc0b7"/><path d="M1578,555L1477,667L1524,703Z" fill="#47baaf" stroke="#47baaf"/><path d="M1578,555L1524,703L1757,624Z" fill="#3fb6ab" stroke="#3fb6ab"/><path d="M1578,555L1757,624L1767,473Z" fill="#4cb6ac" stroke="#4cb6ac"/><path d="M1767,473L1757,624L1872,541Z" fill="#4eb2a7" stroke="#4eb2a7"/><path d="M1872,541L1757,624L1844,666Z" fill="#3fada1" stroke="#3fada1"/><path d="M1872,541L1844,666L2031,635Z" fill="#3ea89b" stroke="#3ea89b"/><path d="M1872,541L2031,635L2061,486Z" fill="#4ca89c" stroke="#4ca89c"/><path d="M2061,486L2031,635L2062,874Z" fill="#329e90" stroke="#329e90"/><path d="M2061,486L2062,874L2070,1144Z" fill="#0c9282" stroke="#0c9282"/><path d="M-20,669L-117,797L45,814Z" fill="#88bd8d" stroke="#88bd8d"/><path d="M-20,669L45,814L88,731Z" fill="#8fc297" stroke="#8fc297"/><path d="M88,731L45,814L205,879Z" fill="#80c29a" stroke="#80c29a"/><path d="M88,731L205,879L249,668Z" fill="#8dc8a5" stroke="#8dc8a5"/><path d="M249,668L205,879L326,719Z" fill="#90ccaf" stroke="#90ccaf"/><path d="M326,719L205,879L354,933Z" fill="#7cc8ab" stroke="#7cc8ab"/><path d="M326,719L354,933L421,827Z" fill="#82cdb5" stroke="#82cdb5"/><path d="M326,719L421,827L538,706Z" fill="#95d5c2" stroke="#95d5c2"/><path d="M538,706L421,827L490,875Z" fill="#8ad5c4" stroke="#8ad5c4"/><path d="M538,706L490,875L685,826Z" fill="#8cd9ce" stroke="#8cd9ce"/><path d="M538,706L685,826L727,632Z" fill="#9fe1db" stroke="#9fe1db"/><path d="M727,632L685,826L793,815Z" fill="#8cdbd4" stroke="#8cdbd4"/><path d="M727,632L793,815L858,719Z" fill="#8edad3" stroke="#8edad3"/><path d="M858,719L793,815L882,945Z" fill="#70d1c8" stroke="#70d1c8"/><path d="M858,719L882,945L1026,773Z" fill="#69cec5" stroke="#69cec5"/><path d="M858,719L1026,773L964,624Z" fill="#7ed3cc" stroke="#7ed3cc"/><path d="M964,624L1026,773L1120,630Z" fill="#7bd1c9" stroke="#7bd1c9"/><path d="M1120,630L1026,773L1133,866Z" fill="#61c9bf" stroke="#61c9bf"/><path d="M1120,630L1133,866L1250,838Z" fill="#53c3b9" stroke="#53c3b9"/><path d="M1120,630L1250,838L1280,651Z" fill="#5ec5bc" stroke="#5ec5bc"/><path d="M1280,651L1250,838L1371,811Z" fill="#46beb3" stroke="#46beb3"/><path d="M1280,651L1371,811L1477,667Z" fill="#4abdb3" stroke="#4abdb3"/><path d="M1477,667L1371,811L1524,703Z" fill="#3cb8ad" stroke="#3cb8ad"/><path d="M1524,703L1371,811L1556,812Z" fill="#2eb4a8" stroke="#2eb4a8"/><path d="M1524,703L1556,812L1700,776Z" fill="#23afa2" stroke="#23afa2"/><path d="M1524,703L1700,776L1757,624Z" fill="#2aafa3" stroke="#2aafa3"/><path d="M1757,624L1700,776L1844,666Z" fill="#2dab9e" stroke="#2dab9e"/><path d="M1844,666L1700,776L1905,843Z" fill="#1da496" stroke="#1da496"/><path d="M1844,666L1905,843L2031,635Z" fill="#27a193" stroke="#27a193"/><path d="M2031,635L1905,843L2062,874Z" fill="#17998a" stroke="#17998a"/><path d="M-117,797L-132,962L23,963Z" fill="#6bb17d" stroke="#6bb17d"/><path d="M-117,797L23,963L45,814Z" fill="#72b887" stroke="#72b887"/><path d="M45,814L23,963L205,879Z" fill="#6ebb91" stroke="#6ebb91"/><path d="M205,879L23,963L259,1029Z" fill="#70bb94" stroke="#70bb94"/><path d="M205,879L259,1029L354,933Z" fill="#72c1a1" stroke="#72c1a1"/><path d="M421,827L354,933L490,875Z" fill="#77cdb7" stroke="#77cdb7"/><path d="M490,875L354,933L531,995Z" fill="#77cbb7" stroke="#77cbb7"/><path d="M490,875L531,995L685,826Z" fill="#79d4c6" stroke="#79d4c6"/><path d="M685,826L531,995L670,999Z" fill="#7ad4ca" stroke="#7ad4ca"/><path d="M685,826L670,999L793,815Z" fill="#73d4cb" stroke="#73d4cb"/><path d="M793,815L670,999L882,945Z" fill="#6acfc5" stroke="#6acfc5"/><path d="M1026,773L882,945L961,984Z" fill="#54c7bc" stroke="#54c7bc"/><path d="M1026,773L961,984L1133,866Z" fill="#4dc4b9" stroke="#4dc4b9"/><path d="M1133,866L961,984L1164,962Z" fill="#45beb2" stroke="#45beb2"/><path d="M1133,866L1164,962L1250,838Z" fill="#39bcb0" stroke="#39bcb0"/><path d="M1250,838L1164,962L1222,1012Z" fill="#35b8ab" stroke="#35b8ab"/><path d="M1250,838L1222,1012L1395,967Z" fill="#2cb4a6" stroke="#2cb4a6"/><path d="M1250,838L1395,967L1371,811Z" fill="#29b5a8" stroke="#29b5a8"/><path d="M1371,811L1395,967L1556,812Z" fill="#1fb1a3" stroke="#1fb1a3"/><path d="M1556,812L1395,967L1625,1002Z" fill="#10a89a" stroke="#10a89a"/><path d="M1556,812L1625,1002L1700,776Z" fill="#08a798" stroke="#08a798"/><path d="M1700,776L1625,1002L1775,1028Z" fill="#009f8f" stroke="#009f8f"/><path d="M1700,776L1775,1028L1828,1012Z" fill="#009b8b" stroke="#009b8b"/><path d="M1700,776L1828,1012L1905,843Z" fill="#029d8d" stroke="#029d8d"/><path d="M1905,843L1828,1012L2012,936Z" fill="#009583" stroke="#009583"/><path d="M1905,843L2012,936L2062,874Z" fill="#019382" stroke="#019382"/><path d="M2062,874L2012,936L2070,1144Z" fill="#008a77" stroke="#008a77"/><path d="M-132,962L-73,1119L23,963Z" fill="#6bac76" stroke="#6bac76"/><path d="M23,963L-73,1119L27,1078Z" fill="#6cac79" stroke="#6cac79"/><path d="M23,963L27,1078L259,1029Z" fill="#6fb488" stroke="#6fb488"/><path d="M259,1029L27,1078L219,1150Z" fill="#70b38b" stroke="#70b38b"/><path d="M259,1029L219,1150L324,1113Z" fill="#72b895" stroke="#72b895"/><path d="M259,1029L324,1113L354,933Z" fill="#73be9f" stroke="#73be9f"/><path d="M354,933L324,1113L531,995Z" fill="#75c4ab" stroke="#75c4ab"/><path d="M531,995L324,1113L508,1157Z" fill="#77c2ab" stroke="#77c2ab"/><path d="M531,995L508,1157L684,1119Z" fill="#79c8b8" stroke="#79c8b8"/><path d="M531,995L684,1119L670,999Z" fill="#7acec2" stroke="#7acec2"/><path d="M670,999L684,1119L882,945Z" fill="#6ecabf" stroke="#6ecabf"/><path d="M882,945L684,1119L816,1182Z" fill="#68c4b7" stroke="#68c4b7"/><path d="M882,945L816,1182L961,984Z" fill="#5dc2b6" stroke="#5dc2b6"/><path d="M961,984L816,1182L976,1152Z" fill="#59bcae" stroke="#59bcae"/><path d="M961,984L976,1152L1147,1145Z" fill="#4cb8a9" stroke="#4cb8a9"/><path d="M961,984L1147,1145L1164,962Z" fill="#44b8ab" stroke="#44b8ab"/><path d="M1164,962L1147,1145L1222,1012Z" fill="#3ab3a5" stroke="#3ab3a5"/><path d="M1222,1012L1147,1145L1282,1166Z" fill="#35ad9d" stroke="#35ad9d"/><path d="M1222,1012L1282,1166L1395,967Z" fill="#2bac9d" stroke="#2bac9d"/><path d="M1395,967L1282,1166L1431,1157Z" fill="#22a695" stroke="#22a695"/><path d="M1395,967L1431,1157L1625,1002Z" fill="#15a393" stroke="#15a393"/><path d="M1625,1002L1431,1157L1629,1089Z" fill="#0b9d8c" stroke="#0b9d8c"/><path d="M1625,1002L1629,1089L1688,1118Z" fill="#019988" stroke="#019988"/><path d="M1625,1002L1688,1118L1775,1028Z" fill="#009887" stroke="#009887"/><path d="M1775,1028L1688,1118L1829,1174Z" fill="#00917e" stroke="#00917e"/><path d="M1775,1028L1829,1174L1828,1012Z" fill="#00917e" stroke="#00917e"/><path d="M1828,1012L1829,1174L2070,1144Z" fill="#008a75" stroke="#008a75"/><path d="M1828,1012L2070,1144L2012,936Z" fill="#008b78" stroke="#008b78"/><path d="M-73,1119L219,1150L27,1078Z" fill="#6eac7c" stroke="#6eac7c"/><path d="M219,1150L816,1182L508,1157Z" fill="#78c0ac" stroke="#78c0ac"/><path d="M219,1150L508,1157L324,1113Z" fill="#74b99b" stroke="#74b99b"/><path d="M508,1157L816,1182L684,1119Z" fill="#77c6b9" stroke="#77c6b9"/><path d="M816,1182L1829,1174L1282,1166Z" fill="#2aa493" stroke="#2aa493"/><path d="M816,1182L1282,1166L976,1152Z" fill="#4cb3a4" stroke="#4cb3a4"/><path d="M976,1152L1282,1166L1147,1145Z" fill="#3fae9f" stroke="#3fae9f"/><path d="M1282,1166L1829,1174L1431,1157Z" fill="#119a88" stroke="#119a88"/><path d="M1431,1157L1829,1174L1688,1118Z" fill="#019481" stroke="#019481"/><path d="M1431,1157L1688,1118L1629,1089Z" fill="#099987" stroke="#099987"/></g></svg>