<svg width="1920" height="1019" xmlns="http://www.w3.org/2000/svg"><g><path d="M-134,-23L-133,979L-104,516Z" fill="#bcd9ea" stroke="#bcd9ea"/><path d="M-134,-23L-104,516L-102,252Z" fill="#e7e9fa" stroke="#e7e9fa"/><path d="M-134,-23L-102,252L-91,42Z" fill="#f4f0fa" stroke="#f4f0fa"/><path d="M-134,-23L-91,42L21,32Z" fill="#f8f2f9" stroke="#f8f2f9"/><path d="M-134,-23L21,32L106,-111Z" fill="#f6f1f8" stroke="#f6f1f8"/><path d="M106,-111L21,32L260,107Z" fill="#eeedf6" stroke="#eeedf6"/><path d="M106,-111L260,107L269,-131Z" fill="#eaebf4" stroke="#eaebf4"/><path d="M269,-131L260,107L325,94Z" fill="#e4e8f3" stroke="#e4e8f3"/><path d="M269,-131L325,94L336,-118Z" fill="#e5e8f3" stroke="#e5e8f3"/><path d="M269,-131L336,-118L804,-113Z" fill="#dce3f0" stroke="#dce3f0"/><path d="M269,-131L804,-113L1749,-124Z" fill="#b2d4de" stroke="#b2d4de"/><path d="M336,-118L325,94L561,-58Z" fill="#dfe5f1" stroke="#dfe5f1"/><path d="M336,-118L561,-58L804,-113Z" fill="#d7e0ee" stroke="#d7e0ee"/><path d="M561,-58L325,94L556,110Z" fill="#d7e1f0" stroke="#d7e1f0"/><path d="M561,-58L556,110L701,-45Z" fill="#d5dfee" stroke="#d5dfee"/><path d="M561,-58L701,-45L804,-113Z" fill="#ceddeb" stroke="#ceddeb"/><path d="M701,-45L556,110L668,128Z" fill="#cddbed" stroke="#cddbed"/><path d="M701,-45L668,128L840,62Z" fill="#c4d9e8" stroke="#c4d9e8"/><path d="M701,-45L840,62L804,-113Z" fill="#c3d9e6" stroke="#c3d9e6"/><path d="M804,-113L840,62L967,-71Z" fill="#bad6e1" stroke="#bad6e1"/><path d="M804,-113L967,-71L1074,-87Z" fill="#b2d3dd" stroke="#b2d3dd"/><path d="M804,-113L1074,-87L1749,-124Z" fill="#95cad0" stroke="#95cad0"/><path d="M967,-71L840,62L1017,109Z" fill="#afd2de" stroke="#afd2de"/><path d="M967,-71L1017,109L1082,55Z" fill="#a7cfda" stroke="#a7cfda"/><path d="M967,-71L1082,55L1074,-87Z" fill="#a8d0d9" stroke="#a8d0d9"/><path d="M1074,-87L1082,55L1281,51Z" fill="#9cccd3" stroke="#9cccd3"/><path d="M1074,-87L1281,51L1310,-60Z" fill="#94cacf" stroke="#94cacf"/><path d="M1074,-87L1310,-60L1749,-124Z" fill="#83c4c7" stroke="#83c4c7"/><path d="M1310,-60L1281,51L1384,-35Z" fill="#89c6ca" stroke="#89c6ca"/><path d="M1310,-60L1384,-35L1749,-124Z" fill="#80c1c2" stroke="#80c1c2"/><path d="M1384,-35L1281,51L1421,64Z" fill="#83c4c8" stroke="#83c4c8"/><path d="M1384,-35L1421,64L1596,-24Z" fill="#80c1c3" stroke="#80c1c3"/><path d="M1384,-35L1596,-24L1749,-124Z" fill="#80bdbd" stroke="#80bdbd"/><path d="M1596,-24L1421,64L1631,113Z" fill="#7bbcbe" stroke="#7bbcbe"/><path d="M1596,-24L1631,113L1738,113Z" fill="#7ab8b9" stroke="#7ab8b9"/><path d="M1596,-24L1738,113L1749,-124Z" fill="#80b9b7" stroke="#80b9b7"/><path d="M1749,-124L1738,113L1831,65Z" fill="#7eb5b3" stroke="#7eb5b3"/><path d="M1749,-124L1831,65L1925,-77Z" fill="#80b4b0" stroke="#80b4b0"/><path d="M1925,-77L1831,65L2010,55Z" fill="#7fb1ab" stroke="#7fb1ab"/><path d="M1925,-77L2010,55L2028,-16Z" fill="#80afa8" stroke="#80afa8"/><path d="M2028,-16L2010,55L2010,273Z" fill="#77a9a6" stroke="#77a9a6"/><path d="M2028,-16L2010,273L2037,691Z" fill="#65a0a6" stroke="#65a0a6"/><path d="M2028,-16L2037,691L2072,975Z" fill="#318d8e" stroke="#318d8e"/><path d="M-91,42L-102,252L27,176Z" fill="#ecebf9" stroke="#ecebf9"/><path d="M-91,42L27,176L21,32Z" fill="#f0eef8" stroke="#f0eef8"/><path d="M21,32L27,176L172,190Z" fill="#e7e9f7" stroke="#e7e9f7"/><path d="M21,32L172,190L260,107Z" fill="#e4e7f5" stroke="#e4e7f5"/><path d="M260,107L172,190L358,326Z" fill="#d6e0f3" stroke="#d6e0f3"/><path d="M260,107L358,326L409,275Z" fill="#cfdcf2" stroke="#cfdcf2"/><path d="M260,107L409,275L325,94Z" fill="#d6e0f2" stroke="#d6e0f2"/><path d="M325,94L409,275L510,219Z" fill="#cfdcf1" stroke="#cfdcf1"/><path d="M325,94L510,219L556,110Z" fill="#d0ddf0" stroke="#d0ddf0"/><path d="M556,110L510,219L668,128Z" fill="#c9daee" stroke="#c9daee"/><path d="M668,128L510,219L688,259Z" fill="#c3d6ee" stroke="#c3d6ee"/><path d="M668,128L688,259L863,243Z" fill="#b7d1e8" stroke="#b7d1e8"/><path d="M668,128L863,243L840,62Z" fill="#b7d2e5" stroke="#b7d2e5"/><path d="M840,62L863,243L1017,109Z" fill="#abcfe0" stroke="#abcfe0"/><path d="M1017,109L863,243L932,270Z" fill="#a1cbde" stroke="#a1cbde"/><path d="M1017,109L932,270L1108,196Z" fill="#9ac8da" stroke="#9ac8da"/><path d="M1017,109L1108,196L1082,55Z" fill="#9acad7" stroke="#9acad7"/><path d="M1082,55L1108,196L1281,51Z" fill="#93c8d3" stroke="#93c8d3"/><path d="M1281,51L1108,196L1277,244Z" fill="#87c3cf" stroke="#87c3cf"/><path d="M1281,51L1277,244L1421,64Z" fill="#7fc1ca" stroke="#7fc1ca"/><path d="M1421,64L1277,244L1448,239Z" fill="#73bcc7" stroke="#73bcc7"/><path d="M1421,64L1448,239L1561,232Z" fill="#71b9c2" stroke="#71b9c2"/><path d="M1421,64L1561,232L1631,113Z" fill="#74b9bf" stroke="#74b9bf"/><path d="M1631,113L1561,232L1765,270Z" fill="#6fb2b9" stroke="#6fb2b9"/><path d="M1631,113L1765,270L1738,113Z" fill="#72b1b6" stroke="#72b1b6"/><path d="M1738,113L1765,270L1922,198Z" fill="#70adb1" stroke="#70adb1"/><path d="M1738,113L1922,198L1831,65Z" fill="#75afb0" stroke="#75afb0"/><path d="M1831,65L1922,198L2010,55Z" fill="#77adab" stroke="#77adab"/><path d="M2010,55L1922,198L2010,273Z" fill="#71a8a8" stroke="#71a8a8"/><path d="M-102,252L-104,516L-88,392Z" fill="#d3e1f4" stroke="#d3e1f4"/><path d="M-102,252L-88,392L27,176Z" fill="#e2e6f9" stroke="#e2e6f9"/><path d="M27,176L-88,392L98,433Z" fill="#d9e2f8" stroke="#d9e2f8"/><path d="M27,176L98,433L172,190Z" fill="#dae2f6" stroke="#dae2f6"/><path d="M172,190L98,433L230,421Z" fill="#cedcf4" stroke="#cedcf4"/><path d="M172,190L230,421L358,326Z" fill="#cedbf4" stroke="#cedbf4"/><path d="M409,275L358,326L483,388Z" fill="#c3d6f1" stroke="#c3d6f1"/><path d="M409,275L483,388L510,219Z" fill="#c4d6f0" stroke="#c4d6f0"/><path d="M510,219L483,388L616,404Z" fill="#bcd2ef" stroke="#bcd2ef"/><path d="M510,219L616,404L688,259Z" fill="#bcd2ee" stroke="#bcd2ee"/><path d="M688,259L616,404L853,406Z" fill="#aacbe7" stroke="#aacbe7"/><path d="M688,259L853,406L863,243Z" fill="#a8cbe5" stroke="#a8cbe5"/><path d="M863,243L853,406L918,365Z" fill="#9dc7e1" stroke="#9dc7e1"/><path d="M863,243L918,365L932,270Z" fill="#9ec8e0" stroke="#9ec8e0"/><path d="M932,270L918,365L1136,337Z" fill="#91c3db" stroke="#91c3db"/><path d="M932,270L1136,337L1108,196Z" fill="#8fc4d8" stroke="#8fc4d8"/><path d="M1108,196L1136,337L1277,244Z" fill="#84c0d2" stroke="#84c0d2"/><path d="M1277,244L1136,337L1297,354Z" fill="#78bbce" stroke="#78bbce"/><path d="M1277,244L1297,354L1448,239Z" fill="#70b9c9" stroke="#70b9c9"/><path d="M1448,239L1297,354L1482,329Z" fill="#66b6c6" stroke="#66b6c6"/><path d="M1448,239L1482,329L1561,232Z" fill="#69b4c1" stroke="#69b4c1"/><path d="M1561,232L1482,329L1589,330Z" fill="#67b1bf" stroke="#67b1bf"/><path d="M1561,232L1589,330L1765,270Z" fill="#68afba" stroke="#68afba"/><path d="M1765,270L1589,330L1683,406Z" fill="#64abb8" stroke="#64abb8"/><path d="M1765,270L1683,406L1830,349Z" fill="#63a8b4" stroke="#63a8b4"/><path d="M1765,270L1830,349L1922,198Z" fill="#69a8af" stroke="#69a8af"/><path d="M1922,198L1830,349L2010,273Z" fill="#69a5ab" stroke="#69a5ab"/><path d="M2010,273L1830,349L1971,395Z" fill="#63a2aa" stroke="#63a2aa"/><path d="M2010,273L1971,395L1967,474Z" fill="#599da4" stroke="#599da4"/><path d="M2010,273L1967,474L2037,691Z" fill="#429498" stroke="#429498"/><path d="M-88,392L-104,516L21,510Z" fill="#bcd9ea" stroke="#bcd9ea"/><path d="M-88,392L21,510L98,433Z" fill="#bfd9ec" stroke="#bfd9ec"/><path d="M98,433L21,510L74,640Z" fill="#a9d1e3" stroke="#a9d1e3"/><path d="M98,433L74,640L256,571Z" fill="#9fcddf" stroke="#9fcddf"/><path d="M98,433L256,571L230,421Z" fill="#aed2e6" stroke="#aed2e6"/><path d="M230,421L256,571L405,571Z" fill="#9ecbdf" stroke="#9ecbdf"/><path d="M230,421L405,571L358,326Z" fill="#afd0e8" stroke="#afd0e8"/><path d="M358,326L405,571L483,388Z" fill="#adcfe7" stroke="#adcfe7"/><path d="M483,388L405,571L499,527Z" fill="#9ac8e0" stroke="#9ac8e0"/><path d="M483,388L499,527L616,404Z" fill="#a4cae5" stroke="#a4cae5"/><path d="M616,404L499,527L662,572Z" fill="#92c4dd" stroke="#92c4dd"/><path d="M616,404L662,572L853,406Z" fill="#92c3dd" stroke="#92c3dd"/><path d="M853,406L662,572L871,518Z" fill="#80bdd4" stroke="#80bdd4"/><path d="M853,406L871,518L918,365Z" fill="#87c0d7" stroke="#87c0d7"/><path d="M918,365L871,518L995,540Z" fill="#77bbd0" stroke="#77bbd0"/><path d="M918,365L995,540L1136,337Z" fill="#7cbcd2" stroke="#7cbcd2"/><path d="M1136,337L995,540L1165,478Z" fill="#6ab7ca" stroke="#6ab7ca"/><path d="M1136,337L1165,478L1297,354Z" fill="#6eb8cb" stroke="#6eb8cb"/><path d="M1297,354L1165,478L1282,484Z" fill="#5db2c3" stroke="#5db2c3"/><path d="M1297,354L1282,484L1482,329Z" fill="#5db2c3" stroke="#5db2c3"/><path d="M1482,329L1282,484L1413,585Z" fill="#47abb9" stroke="#47abb9"/><path d="M1482,329L1413,585L1532,530Z" fill="#41a7b3" stroke="#41a7b3"/><path d="M1482,329L1532,530L1589,330Z" fill="#56abb9" stroke="#56abb9"/><path d="M1589,330L1532,530L1683,406Z" fill="#4fa7b3" stroke="#4fa7b3"/><path d="M1683,406L1532,530L1725,547Z" fill="#3ea0a9" stroke="#3ea0a9"/><path d="M1683,406L1725,547L1830,349Z" fill="#4da1aa" stroke="#4da1aa"/><path d="M1830,349L1725,547L1911,542Z" fill="#429ba1" stroke="#429ba1"/><path d="M1830,349L1911,542L1967,474Z" fill="#489aa0" stroke="#489aa0"/><path d="M1830,349L1967,474L1971,395Z" fill="#539da4" stroke="#539da4"/><path d="M-104,516L-133,979L-68,799Z" fill="#7cc4cc" stroke="#7cc4cc"/><path d="M-104,516L-68,799L-51,646Z" fill="#92cbd7" stroke="#92cbd7"/><path d="M-104,516L-51,646L21,510Z" fill="#a8d2e1" stroke="#a8d2e1"/><path d="M21,510L-51,646L74,640Z" fill="#9acddc" stroke="#9acddc"/><path d="M256,571L74,640L191,704Z" fill="#88c5d5" stroke="#88c5d5"/><path d="M256,571L191,704L382,725Z" fill="#7cc0d0" stroke="#7cc0d0"/><path d="M256,571L382,725L405,571Z" fill="#82c2d4" stroke="#82c2d4"/><path d="M405,571L382,725L539,733Z" fill="#70bacc" stroke="#70bacc"/><path d="M405,571L539,733L499,527Z" fill="#7ebfd3" stroke="#7ebfd3"/><path d="M499,527L539,733L662,572Z" fill="#79bcd1" stroke="#79bcd1"/><path d="M662,572L539,733L623,719Z" fill="#68b6ca" stroke="#68b6ca"/><path d="M662,572L623,719L784,722Z" fill="#61b4c7" stroke="#61b4c7"/><path d="M662,572L784,722L871,518Z" fill="#68b6ca" stroke="#68b6ca"/><path d="M871,518L784,722L941,677Z" fill="#56b0c2" stroke="#56b0c2"/><path d="M871,518L941,677L995,540Z" fill="#5db2c5" stroke="#5db2c5"/><path d="M995,540L941,677L1149,648Z" fill="#49acbb" stroke="#49acbb"/><path d="M995,540L1149,648L1165,478Z" fill="#51aebe" stroke="#51aebe"/><path d="M1165,478L1149,648L1269,646Z" fill="#3ea8b6" stroke="#3ea8b6"/><path d="M1165,478L1269,646L1282,484Z" fill="#47abb9" stroke="#47abb9"/><path d="M1282,484L1269,646L1413,585Z" fill="#35a5b1" stroke="#35a5b1"/><path d="M1413,585L1269,646L1454,726Z" fill="#1c9da6" stroke="#1c9da6"/><path d="M1413,585L1454,726L1584,641Z" fill="#1999a0" stroke="#1999a0"/><path d="M1413,585L1584,641L1532,530Z" fill="#289ea6" stroke="#289ea6"/><path d="M1532,530L1584,641L1725,547Z" fill="#2b9ba2" stroke="#2b9ba2"/><path d="M1725,547L1584,641L1767,677Z" fill="#209499" stroke="#209499"/><path d="M1725,547L1767,677L1911,542Z" fill="#289396" stroke="#289396"/><path d="M1911,542L1767,677L1903,680Z" fill="#1d8d8f" stroke="#1d8d8f"/><path d="M1911,542L1903,680L2037,691Z" fill="#1c8a8a" stroke="#1c8a8a"/><path d="M1911,542L2037,691L1967,474Z" fill="#2c8e90" stroke="#2c8e90"/><path d="M-51,646L-68,799L74,640Z" fill="#85c7d2" stroke="#85c7d2"/><path d="M74,640L-68,799L26,875Z" fill="#76c0c9" stroke="#76c0c9"/><path d="M74,640L26,875L191,704Z" fill="#74c0cb" stroke="#74c0cb"/><path d="M191,704L26,875L234,829Z" fill="#6eb9c3" stroke="#6eb9c3"/><path d="M191,704L234,829L382,725Z" fill="#68bac7" stroke="#68bac7"/><path d="M382,725L234,829L385,789Z" fill="#64b6c3" stroke="#64b6c3"/><path d="M382,725L385,789L539,733Z" fill="#5fb5c5" stroke="#5fb5c5"/><path d="M539,733L385,789L528,884Z" fill="#5cb0be" stroke="#5cb0be"/><path d="M539,733L528,884L692,798Z" fill="#56acbc" stroke="#56acbc"/><path d="M539,733L692,798L623,719Z" fill="#55b0c2" stroke="#55b0c2"/><path d="M623,719L692,798L784,722Z" fill="#4eaebf" stroke="#4eaebf"/><path d="M784,722L692,798L845,800Z" fill="#45a9b8" stroke="#45a9b8"/><path d="M784,722L845,800L941,677Z" fill="#40a9b8" stroke="#40a9b8"/><path d="M941,677L845,800L1021,848Z" fill="#33a3af" stroke="#33a3af"/><path d="M941,677L1021,848L1149,648Z" fill="#2fa3af" stroke="#2fa3af"/><path d="M1149,648L1021,848L1096,875Z" fill="#239ca6" stroke="#239ca6"/><path d="M1149,648L1096,875L1277,864Z" fill="#1a99a1" stroke="#1a99a1"/><path d="M1149,648L1277,864L1269,646Z" fill="#1b9da6" stroke="#1b9da6"/><path d="M1269,646L1277,864L1454,726Z" fill="#0a979e" stroke="#0a979e"/><path d="M1454,726L1277,864L1433,868Z" fill="#038f93" stroke="#038f93"/><path d="M1454,726L1433,868L1623,863Z" fill="#008b8d" stroke="#008b8d"/><path d="M1454,726L1623,863L1584,641Z" fill="#029093" stroke="#029093"/><path d="M1584,641L1623,863L1738,831Z" fill="#008a8a" stroke="#008a8a"/><path d="M1584,641L1738,831L1767,677Z" fill="#098d8e" stroke="#098d8e"/><path d="M1767,677L1738,831L1866,804Z" fill="#008583" stroke="#008583"/><path d="M1767,677L1866,804L1903,680Z" fill="#088786" stroke="#088786"/><path d="M1903,680L1866,804L2017,846Z" fill="#00807c" stroke="#00807c"/><path d="M1903,680L2017,846L2037,691Z" fill="#03817d" stroke="#03817d"/><path d="M2037,691L2017,846L2072,975Z" fill="#00776f" stroke="#00776f"/><path d="M-68,799L-133,979L26,875Z" fill="#79b9be" stroke="#79b9be"/><path d="M26,875L-133,979L95,934Z" fill="#76b4b8" stroke="#76b4b8"/><path d="M26,875L95,934L234,829Z" fill="#70b4bc" stroke="#70b4bc"/><path d="M234,829L95,934L257,935Z" fill="#6cb1b9" stroke="#6cb1b9"/><path d="M234,829L257,935L385,789Z" fill="#66b1bc" stroke="#66b1bc"/><path d="M385,789L257,935L420,982Z" fill="#63acb5" stroke="#63acb5"/><path d="M385,789L420,982L528,884Z" fill="#5eaab6" stroke="#5eaab6"/><path d="M528,884L420,982L517,954Z" fill="#5ca5af" stroke="#5ca5af"/><path d="M528,884L517,954L679,1001Z" fill="#57a2ad" stroke="#57a2ad"/><path d="M528,884L679,1001L692,798Z" fill="#54a4b2" stroke="#54a4b2"/><path d="M692,798L679,1001L819,979Z" fill="#4a9faa" stroke="#4a9faa"/><path d="M692,798L819,979L845,800Z" fill="#44a2ae" stroke="#44a2ae"/><path d="M845,800L819,979L941,983Z" fill="#3b9aa3" stroke="#3b9aa3"/><path d="M845,800L941,983L1021,848Z" fill="#339ba5" stroke="#339ba5"/><path d="M1021,848L941,983L1096,875Z" fill="#2a969d" stroke="#2a969d"/><path d="M1096,875L941,983L1176,1002Z" fill="#259095" stroke="#259095"/><path d="M1096,875L1176,1002L1277,864Z" fill="#198f94" stroke="#198f94"/><path d="M1277,864L1176,1002L1272,995Z" fill="#128a8c" stroke="#128a8c"/><path d="M1277,864L1272,995L1433,868Z" fill="#098b8d" stroke="#098b8d"/><path d="M1433,868L1272,995L1483,959Z" fill="#028686" stroke="#028686"/><path d="M1433,868L1483,959L1623,863Z" fill="#008584" stroke="#008584"/><path d="M1623,863L1483,959L1625,963Z" fill="#00807d" stroke="#00807d"/><path d="M1623,863L1625,963L1738,831Z" fill="#00817e" stroke="#00817e"/><path d="M1738,831L1625,963L1702,1015Z" fill="#007c77" stroke="#007c77"/><path d="M1738,831L1702,1015L1836,936Z" fill="#007a75" stroke="#007a75"/><path d="M1738,831L1836,936L1866,804Z" fill="#007e79" stroke="#007e79"/><path d="M1866,804L1836,936L2017,846Z" fill="#007a74" stroke="#007a74"/><path d="M2017,846L1836,936L2072,975Z" fill="#00736a" stroke="#00736a"/><path d="M-133,979L-105,1130L97,1104Z" fill="#79aaaa" stroke="#79aaaa"/><path d="M-133,979L97,1104L95,934Z" fill="#75adb0" stroke="#75adb0"/><path d="M95,934L97,1104L257,935Z" fill="#6eaaaf" stroke="#6eaaaf"/><path d="M257,935L97,1104L254,1182Z" fill="#6ba2a5" stroke="#6ba2a5"/><path d="M257,935L254,1182L420,982Z" fill="#65a3a8" stroke="#65a3a8"/><path d="M420,982L254,1182L431,1169Z" fill="#629b9f" stroke="#629b9f"/><path d="M420,982L431,1169L517,954Z" fill="#5d9fa6" stroke="#5d9fa6"/><path d="M517,954L431,1169L548,1181Z" fill="#5b989e" stroke="#5b989e"/><path d="M517,954L548,1181L627,1114Z" fill="#57979e" stroke="#57979e"/><path d="M517,954L627,1114L679,1001Z" fill="#559ba4" stroke="#559ba4"/><path d="M679,1001L627,1114L819,1182Z" fill="#4c9298" stroke="#4c9298"/><path d="M679,1001L819,1182L819,979Z" fill="#459399" stroke="#459399"/><path d="M819,979L819,1182L948,1142Z" fill="#3b8c90" stroke="#3b8c90"/><path d="M819,979L948,1142L941,983Z" fill="#379095" stroke="#379095"/><path d="M941,983L948,1142L1178,1098Z" fill="#2a888b" stroke="#2a888b"/><path d="M941,983L1178,1098L1176,1002Z" fill="#228a8c" stroke="#228a8c"/><path d="M1176,1002L1178,1098L1272,995Z" fill="#168585" stroke="#168585"/><path d="M1272,995L1178,1098L1250,1127Z" fill="#138180" stroke="#138180"/><path d="M1272,995L1250,1127L1421,1151Z" fill="#0b7d7a" stroke="#0b7d7a"/><path d="M1272,995L1421,1151L1483,959Z" fill="#027f7c" stroke="#027f7c"/><path d="M1483,959L1421,1151L1541,1125Z" fill="#007872" stroke="#007872"/><path d="M1483,959L1541,1125L1625,963Z" fill="#007b76" stroke="#007b76"/><path d="M1625,963L1541,1125L1702,1015Z" fill="#007770" stroke="#007770"/><path d="M1702,1015L1541,1125L1729,1136Z" fill="#007168" stroke="#007168"/><path d="M1702,1015L1729,1136L1916,1111Z" fill="#006d62" stroke="#006d62"/><path d="M1702,1015L1916,1111L1836,936Z" fill="#007168" stroke="#007168"/><path d="M1836,936L1916,1111L2072,975Z" fill="#006e63" stroke="#006e63"/><path d="M2072,975L1916,1111L2016,1183Z" fill="#006557" stroke="#006557"/><path d="M-105,1130L254,1182L97,1104Z" fill="#72a1a0" stroke="#72a1a0"/><path d="M254,1182L2016,1183L819,1182Z" fill="#29807f" stroke="#29807f"/><path d="M254,1182L819,1182L548,1181Z" fill="#599194" stroke="#599194"/><path d="M254,1182L548,1181L431,1169Z" fill="#609497" stroke="#609497"/><path d="M548,1181L819,1182L627,1114Z" fill="#518e94" stroke="#518e94"/><path d="M819,1182L2016,1183L1421,1151Z" fill="#00736c" stroke="#00736c"/><path d="M819,1182L1421,1151L1250,1127Z" fill="#1b7d7b" stroke="#1b7d7b"/><path d="M819,1182L1250,1127L948,1142Z" fill="#2c8383" stroke="#2c8383"/><path d="M948,1142L1250,1127L1178,1098Z" fill="#1f8180" stroke="#1f8180"/><path d="M1421,1151L2016,1183L1729,1136Z" fill="#006a5d" stroke="#006a5d"/><path d="M1421,1151L1729,1136L1541,1125Z" fill="#007168" stroke="#007168"/><path d="M1729,1136L2016,1183L1916,1111Z" fill="#006556" stroke="#006556"/></g></svg>