<svg width="1920" height="976" xmlns="http://www.w3.org/2000/svg"><g><path d="M-40,-123L-114,120L90,26Z" fill="#fff7ef" stroke="#fff7ef"/><path d="M-40,-123L90,26L58,-116Z" fill="#fff4eb" stroke="#fff4eb"/><path d="M-40,-123L58,-116L261,-115Z" fill="#fff2e6" stroke="#fff2e6"/><path d="M-40,-123L261,-115L622,-129Z" fill="#fee8d5" stroke="#fee8d5"/><path d="M58,-116L90,26L261,-115Z" fill="#fff0e2" stroke="#fff0e2"/><path d="M261,-115L90,26L237,126Z" fill="#ffecda" stroke="#ffecda"/><path d="M261,-115L237,126L405,31Z" fill="#fee7d0" stroke="#fee7d0"/><path d="M261,-115L405,31L402,-68Z" fill="#fee5ce" stroke="#fee5ce"/><path d="M261,-115L402,-68L472,-112Z" fill="#fee4cc" stroke="#fee4cc"/><path d="M261,-115L472,-112L622,-129Z" fill="#fee0c5" stroke="#fee0c5"/><path d="M402,-68L405,31L488,24Z" fill="#fee1c7" stroke="#fee1c7"/><path d="M402,-68L488,24L472,-112Z" fill="#fee0c5" stroke="#fee0c5"/><path d="M472,-112L488,24L622,-129Z" fill="#fedcbf" stroke="#fedcbf"/><path d="M622,-129L488,24L723,115Z" fill="#fed8b8" stroke="#fed8b8"/><path d="M622,-129L723,115L788,61Z" fill="#fed2ae" stroke="#fed2ae"/><path d="M622,-129L788,61L879,-117Z" fill="#fed0ad" stroke="#fed0ad"/><path d="M622,-129L879,-117L1002,-123Z" fill="#fecda7" stroke="#fecda7"/><path d="M622,-129L1002,-123L1928,-132Z" fill="#f6b690" stroke="#f6b690"/><path d="M879,-117L788,61L1022,66Z" fill="#fec9a2" stroke="#fec9a2"/><path d="M879,-117L1022,66L1002,-123Z" fill="#fec69d" stroke="#fec69d"/><path d="M1002,-123L1022,66L1115,-60Z" fill="#fbc098" stroke="#fbc098"/><path d="M1002,-123L1115,-60L1466,-123Z" fill="#f5b58f" stroke="#f5b58f"/><path d="M1002,-123L1466,-123L1928,-132Z" fill="#eba180" stroke="#eba180"/><path d="M1115,-60L1022,66L1178,27Z" fill="#f9bb93" stroke="#f9bb93"/><path d="M1115,-60L1178,27L1245,-17Z" fill="#f6b690" stroke="#f6b690"/><path d="M1115,-60L1245,-17L1466,-123Z" fill="#f2af8a" stroke="#f2af8a"/><path d="M1245,-17L1178,27L1321,102Z" fill="#f3af85" stroke="#f3af85"/><path d="M1245,-17L1321,102L1406,62Z" fill="#f1a97e" stroke="#f1a97e"/><path d="M1245,-17L1406,62L1466,-123Z" fill="#efa884" stroke="#efa884"/><path d="M1466,-123L1406,62L1560,25Z" fill="#eba180" stroke="#eba180"/><path d="M1466,-123L1560,25L1601,-118Z" fill="#e89c80" stroke="#e89c80"/><path d="M1466,-123L1601,-118L1928,-132Z" fill="#e49380" stroke="#e49380"/><path d="M1601,-118L1560,25L1735,26Z" fill="#e59580" stroke="#e59580"/><path d="M1601,-118L1735,26L1753,-65Z" fill="#e39180" stroke="#e39180"/><path d="M1601,-118L1753,-65L1928,-132Z" fill="#e08c80" stroke="#e08c80"/><path d="M1753,-65L1735,26L1925,66Z" fill="#df887e" stroke="#df887e"/><path d="M1753,-65L1925,66L1928,-132Z" fill="#dc8480" stroke="#dc8480"/><path d="M1928,-132L1925,66L2001,-55Z" fill="#d98080" stroke="#d98080"/><path d="M2001,-55L1925,66L2055,106Z" fill="#d77e78" stroke="#d77e78"/><path d="M-114,120L-131,178L104,203Z" fill="#ffefd2" stroke="#ffefd2"/><path d="M-114,120L104,203L90,26Z" fill="#ffeed5" stroke="#ffeed5"/><path d="M90,26L104,203L237,126Z" fill="#ffe8ca" stroke="#ffe8ca"/><path d="M237,126L104,203L235,280Z" fill="#ffe1b4" stroke="#ffe1b4"/><path d="M237,126L235,280L408,234Z" fill="#fedca9" stroke="#fedca9"/><path d="M237,126L408,234L405,31Z" fill="#fedeb4" stroke="#fedeb4"/><path d="M405,31L408,234L503,223Z" fill="#fed7a6" stroke="#fed7a6"/><path d="M405,31L503,223L488,24Z" fill="#fedab1" stroke="#fedab1"/><path d="M488,24L503,223L639,221Z" fill="#fed39e" stroke="#fed39e"/><path d="M488,24L639,221L723,115Z" fill="#fed1a0" stroke="#fed1a0"/><path d="M723,115L639,221L784,189Z" fill="#fec98d" stroke="#fec98d"/><path d="M723,115L784,189L788,61Z" fill="#fec995" stroke="#fec995"/><path d="M788,61L784,189L1022,66Z" fill="#fec590" stroke="#fec590"/><path d="M1022,66L784,189L941,267Z" fill="#febf7f" stroke="#febf7f"/><path d="M1022,66L941,267L1112,195Z" fill="#fcb877" stroke="#fcb877"/><path d="M1022,66L1112,195L1178,27Z" fill="#f9b682" stroke="#f9b682"/><path d="M1178,27L1112,195L1260,198Z" fill="#f6ae74" stroke="#f6ae74"/><path d="M1178,27L1260,198L1321,102Z" fill="#f3aa76" stroke="#f3aa76"/><path d="M1321,102L1260,198L1395,266Z" fill="#f1a162" stroke="#f1a162"/><path d="M1321,102L1395,266L1406,62Z" fill="#efa068" stroke="#efa068"/><path d="M1406,62L1395,266L1624,171Z" fill="#eb975f" stroke="#eb975f"/><path d="M1406,62L1624,171L1560,25Z" fill="#e9986f" stroke="#e9986f"/><path d="M1560,25L1624,171L1735,26Z" fill="#e59171" stroke="#e59171"/><path d="M1735,26L1624,171L1739,206Z" fill="#e38965" stroke="#e38965"/><path d="M1735,26L1739,206L1828,231Z" fill="#e08261" stroke="#e08261"/><path d="M1735,26L1828,231L1925,66Z" fill="#de816a" stroke="#de816a"/><path d="M1925,66L1828,231L2034,197Z" fill="#da765f" stroke="#da765f"/><path d="M1925,66L2034,197L2055,106Z" fill="#d77967" stroke="#d77967"/><path d="M2055,106L2034,197L2062,421Z" fill="#d57250" stroke="#d57250"/><path d="M-131,178L-115,1129L-117,835Z" fill="#ffaa8d" stroke="#ffaa8d"/><path d="M-131,178L-117,835L-93,574Z" fill="#ffc99a" stroke="#ffc99a"/><path d="M-131,178L-93,574L-25,363Z" fill="#ffddaf" stroke="#ffddaf"/><path d="M-131,178L-25,363L104,203Z" fill="#ffe9bf" stroke="#ffe9bf"/><path d="M104,203L-25,363L106,350Z" fill="#ffdeae" stroke="#ffdeae"/><path d="M104,203L106,350L235,280Z" fill="#ffddaa" stroke="#ffddaa"/><path d="M235,280L106,350L245,402Z" fill="#ffd39a" stroke="#ffd39a"/><path d="M235,280L245,402L408,234Z" fill="#fed298" stroke="#fed298"/><path d="M408,234L245,402L432,428Z" fill="#fec989" stroke="#fec989"/><path d="M408,234L432,428L509,393Z" fill="#fec582" stroke="#fec582"/><path d="M408,234L509,393L503,223Z" fill="#fecc8b" stroke="#fecc8b"/><path d="M503,223L509,393L639,221Z" fill="#fec986" stroke="#fec986"/><path d="M639,221L509,393L723,351Z" fill="#fec079" stroke="#fec079"/><path d="M639,221L723,351L784,189Z" fill="#fec47e" stroke="#fec47e"/><path d="M784,189L723,351L829,317Z" fill="#febd74" stroke="#febd74"/><path d="M784,189L829,317L941,267Z" fill="#febc73" stroke="#febc73"/><path d="M941,267L829,317L997,426Z" fill="#feaf60" stroke="#feaf60"/><path d="M941,267L997,426L1139,353Z" fill="#fca757" stroke="#fca757"/><path d="M941,267L1139,353L1112,195Z" fill="#faad62" stroke="#faad62"/><path d="M1112,195L1139,353L1260,198Z" fill="#f6a85f" stroke="#f6a85f"/><path d="M1260,198L1139,353L1268,325Z" fill="#f49f55" stroke="#f49f55"/><path d="M1260,198L1268,325L1395,266Z" fill="#f19c54" stroke="#f19c54"/><path d="M1395,266L1268,325L1376,404Z" fill="#f09246" stroke="#f09246"/><path d="M1395,266L1376,404L1575,435Z" fill="#ec8639" stroke="#ec8639"/><path d="M1395,266L1575,435L1624,171Z" fill="#e98947" stroke="#e98947"/><path d="M1624,171L1575,435L1739,206Z" fill="#e5834a" stroke="#e5834a"/><path d="M1739,206L1575,435L1742,419Z" fill="#e3763c" stroke="#e3763c"/><path d="M1739,206L1742,419L1828,231Z" fill="#e07848" stroke="#e07848"/><path d="M1828,231L1742,419L1879,319Z" fill="#de7041" stroke="#de7041"/><path d="M1828,231L1879,319L2034,197Z" fill="#da724e" stroke="#da724e"/><path d="M2034,197L1879,319L2062,421Z" fill="#d86943" stroke="#d86943"/><path d="M-25,363L-93,574L50,469Z" fill="#ffce98" stroke="#ffce98"/><path d="M-25,363L50,469L106,350Z" fill="#ffd4a0" stroke="#ffd4a0"/><path d="M106,350L50,469L245,402Z" fill="#ffce95" stroke="#ffce95"/><path d="M245,402L50,469L246,530Z" fill="#ffc486" stroke="#ffc486"/><path d="M245,402L246,530L432,428Z" fill="#fec07c" stroke="#fec07c"/><path d="M432,428L246,530L367,571Z" fill="#feb671" stroke="#feb671"/><path d="M432,428L367,571L511,490Z" fill="#feb46a" stroke="#feb46a"/><path d="M432,428L511,490L509,393Z" fill="#feb96f" stroke="#feb96f"/><path d="M509,393L511,490L692,496Z" fill="#feb264" stroke="#feb264"/><path d="M509,393L692,496L723,351Z" fill="#feb467" stroke="#feb467"/><path d="M723,351L692,496L788,547Z" fill="#fea957" stroke="#fea957"/><path d="M723,351L788,547L829,317Z" fill="#feae5e" stroke="#feae5e"/><path d="M829,317L788,547L997,426Z" fill="#fea653" stroke="#fea653"/><path d="M997,426L788,547L1002,547Z" fill="#fe9943" stroke="#fe9943"/><path d="M997,426L1002,547L1082,519Z" fill="#fc943d" stroke="#fc943d"/><path d="M997,426L1082,519L1139,353Z" fill="#fa9945" stroke="#fa9945"/><path d="M1139,353L1082,519L1262,527Z" fill="#f78f39" stroke="#f78f39"/><path d="M1139,353L1262,527L1268,325Z" fill="#f49241" stroke="#f49241"/><path d="M1268,325L1262,527L1376,404Z" fill="#f18a39" stroke="#f18a39"/><path d="M1376,404L1262,527L1424,559Z" fill="#ef7d29" stroke="#ef7d29"/><path d="M1376,404L1424,559L1575,435Z" fill="#ec7928" stroke="#ec7928"/><path d="M1575,435L1424,559L1601,474Z" fill="#e97124" stroke="#e97124"/><path d="M1575,435L1601,474L1742,419Z" fill="#e56f2c" stroke="#e56f2c"/><path d="M1742,419L1601,474L1768,486Z" fill="#e26829" stroke="#e26829"/><path d="M1742,419L1768,486L1890,474Z" fill="#df6129" stroke="#df6129"/><path d="M1742,419L1890,474L1879,319Z" fill="#dd6533" stroke="#dd6533"/><path d="M1879,319L1890,474L2062,421Z" fill="#d95e33" stroke="#d95e33"/><path d="M2062,421L1890,474L1983,548Z" fill="#d85525" stroke="#d85525"/><path d="M2062,421L1983,548L2055,704Z" fill="#d6481f" stroke="#d6481f"/><path d="M2062,421L2055,704L2070,818Z" fill="#d53918" stroke="#d53918"/><path d="M-93,574L-117,835L-43,679Z" fill="#ffab8b" stroke="#ffab8b"/><path d="M-93,574L-43,679L50,469Z" fill="#ffbd8f" stroke="#ffbd8f"/><path d="M50,469L-43,679L90,714Z" fill="#ffb286" stroke="#ffb286"/><path d="M50,469L90,714L246,530Z" fill="#ffb681" stroke="#ffb681"/><path d="M246,530L90,714L282,722Z" fill="#ffa473" stroke="#ffa473"/><path d="M246,530L282,722L367,571Z" fill="#fea86e" stroke="#fea86e"/><path d="M367,571L282,722L391,720Z" fill="#fe9a65" stroke="#fe9a65"/><path d="M367,571L391,720L479,701Z" fill="#fe9860" stroke="#fe9860"/><path d="M367,571L479,701L511,490Z" fill="#fea461" stroke="#fea461"/><path d="M511,490L479,701L635,624Z" fill="#fe9c59" stroke="#fe9c59"/><path d="M511,490L635,624L692,496Z" fill="#fea459" stroke="#fea459"/><path d="M692,496L635,624L788,547Z" fill="#fe9c50" stroke="#fe9c50"/><path d="M788,547L635,624L867,731Z" fill="#fe8c46" stroke="#fe8c46"/><path d="M788,547L867,731L985,627Z" fill="#fe853d" stroke="#fe853d"/><path d="M788,547L985,627L1002,547Z" fill="#fe8e3e" stroke="#fe8e3e"/><path d="M1002,547L985,627L1082,519Z" fill="#fc8938" stroke="#fc8938"/><path d="M1082,519L985,627L1168,644Z" fill="#fa8032" stroke="#fa8032"/><path d="M1082,519L1168,644L1262,527Z" fill="#f67e2f" stroke="#f67e2f"/><path d="M1262,527L1168,644L1291,695Z" fill="#f46f27" stroke="#f46f27"/><path d="M1262,527L1291,695L1424,559Z" fill="#f16e23" stroke="#f16e23"/><path d="M1424,559L1291,695L1464,677Z" fill="#ee601c" stroke="#ee601c"/><path d="M1424,559L1464,677L1626,655Z" fill="#ea5b19" stroke="#ea5b19"/><path d="M1424,559L1626,655L1601,474Z" fill="#e8631e" stroke="#e8631e"/><path d="M1601,474L1626,655L1768,486Z" fill="#e45f20" stroke="#e45f20"/><path d="M1768,486L1626,655L1768,642Z" fill="#e2511c" stroke="#e2511c"/><path d="M1768,486L1768,642L1910,617Z" fill="#de4c1d" stroke="#de4c1d"/><path d="M1768,486L1910,617L1890,474Z" fill="#dd5321" stroke="#dd5321"/><path d="M1890,474L1910,617L1983,548Z" fill="#da4a1f" stroke="#da4a1f"/><path d="M1983,548L1910,617L2055,704Z" fill="#d83d1a" stroke="#d83d1a"/><path d="M-43,679L-117,835L90,714Z" fill="#ffa082" stroke="#ffa082"/><path d="M90,714L-117,835L106,867Z" fill="#ff9379" stroke="#ff9379"/><path d="M90,714L106,867L190,814Z" fill="#ff8f70" stroke="#ff8f70"/><path d="M90,714L190,814L282,722Z" fill="#ff956e" stroke="#ff956e"/><path d="M282,722L190,814L384,824Z" fill="#fe8962" stroke="#fe8962"/><path d="M282,722L384,824L391,720Z" fill="#fe8c5f" stroke="#fe8c5f"/><path d="M391,720L384,824L479,701Z" fill="#fe8959" stroke="#fe8959"/><path d="M479,701L384,824L547,880Z" fill="#fe7e50" stroke="#fe7e50"/><path d="M479,701L547,880L631,843Z" fill="#fe7949" stroke="#fe7949"/><path d="M479,701L631,843L635,624Z" fill="#fe864d" stroke="#fe864d"/><path d="M635,624L631,843L867,731Z" fill="#fe7d43" stroke="#fe7d43"/><path d="M867,731L631,843L871,778Z" fill="#fe7039" stroke="#fe7039"/><path d="M867,731L871,778L965,825Z" fill="#fe6c31" stroke="#fe6c31"/><path d="M867,731L965,825L985,627Z" fill="#fe7232" stroke="#fe7232"/><path d="M985,627L965,825L1168,644Z" fill="#fb702d" stroke="#fb702d"/><path d="M1168,644L965,825L1142,861Z" fill="#f96024" stroke="#f96024"/><path d="M1168,644L1142,861L1291,695Z" fill="#f55f21" stroke="#f55f21"/><path d="M1291,695L1142,861L1231,867Z" fill="#f4511a" stroke="#f4511a"/><path d="M1291,695L1231,867L1380,924Z" fill="#f14714" stroke="#f14714"/><path d="M1291,695L1380,924L1463,877Z" fill="#ef410f" stroke="#ef410f"/><path d="M1291,695L1463,877L1464,677Z" fill="#ee4d13" stroke="#ee4d13"/><path d="M1464,677L1463,877L1537,860Z" fill="#ea3e0c" stroke="#ea3e0c"/><path d="M1464,677L1537,860L1626,655Z" fill="#e84612" stroke="#e84612"/><path d="M1626,655L1537,860L1721,845Z" fill="#e5370e" stroke="#e5370e"/><path d="M1626,655L1721,845L1768,642Z" fill="#e23d13" stroke="#e23d13"/><path d="M1768,642L1721,845L1887,884Z" fill="#df2a0d" stroke="#df2a0d"/><path d="M1768,642L1887,884L1910,617Z" fill="#dd3213" stroke="#dd3213"/><path d="M1910,617L1887,884L2055,704Z" fill="#d92a12" stroke="#d92a12"/><path d="M2055,704L1887,884L2070,818Z" fill="#d71e0d" stroke="#d71e0d"/><path d="M-117,835L-115,1129L-24,998Z" fill="#ff7b77" stroke="#ff7b77"/><path d="M-117,835L-24,998L80,928Z" fill="#ff8175" stroke="#ff8175"/><path d="M-117,835L80,928L106,867Z" fill="#ff8774" stroke="#ff8774"/><path d="M106,867L80,928L241,927Z" fill="#ff7c67" stroke="#ff7c67"/><path d="M106,867L241,927L190,814Z" fill="#ff8066" stroke="#ff8066"/><path d="M190,814L241,927L384,824Z" fill="#fe7e5f" stroke="#fe7e5f"/><path d="M384,824L241,927L371,1023Z" fill="#fe6f54" stroke="#fe6f54"/><path d="M384,824L371,1023L495,964Z" fill="#fe694b" stroke="#fe694b"/><path d="M384,824L495,964L547,880Z" fill="#fe6e49" stroke="#fe6e49"/><path d="M547,880L495,964L660,946Z" fill="#fe633f" stroke="#fe633f"/><path d="M547,880L660,946L631,843Z" fill="#fe673f" stroke="#fe673f"/><path d="M631,843L660,946L808,985Z" fill="#fe5d36" stroke="#fe5d36"/><path d="M631,843L808,985L871,778Z" fill="#fe6334" stroke="#fe6334"/><path d="M871,778L808,985L949,918Z" fill="#fe592a" stroke="#fe592a"/><path d="M871,778L949,918L965,825Z" fill="#fe602a" stroke="#fe602a"/><path d="M965,825L949,918L1142,861Z" fill="#fc5522" stroke="#fc5522"/><path d="M1142,861L949,918L1174,947Z" fill="#f9491b" stroke="#f9491b"/><path d="M1142,861L1174,947L1231,867Z" fill="#f64516" stroke="#f64516"/><path d="M1231,867L1174,947L1301,1034Z" fill="#f4370f" stroke="#f4370f"/><path d="M1231,867L1301,1034L1380,924Z" fill="#f1340b" stroke="#f1340b"/><path d="M1463,877L1380,924L1532,916Z" fill="#ec2e05" stroke="#ec2e05"/><path d="M1463,877L1532,916L1537,860Z" fill="#ea2f07" stroke="#ea2f07"/><path d="M1537,860L1532,916L1721,845Z" fill="#e62a07" stroke="#e62a07"/><path d="M1721,845L1532,916L1728,1021Z" fill="#e41c03" stroke="#e41c03"/><path d="M1721,845L1728,1021L1815,984Z" fill="#e01102" stroke="#e01102"/><path d="M1721,845L1815,984L1887,884Z" fill="#de1505" stroke="#de1505"/><path d="M1887,884L1815,984L1978,961Z" fill="#db0802" stroke="#db0802"/><path d="M1887,884L1978,961L2070,818Z" fill="#d80f06" stroke="#d80f06"/><path d="M2070,818L1978,961L2016,1158Z" fill="#d60000" stroke="#d60000"/><path d="M-24,998L-115,1129L134,1124Z" fill="#ff776f" stroke="#ff776f"/><path d="M-24,998L134,1124L80,928Z" fill="#ff7469" stroke="#ff7469"/><path d="M80,928L134,1124L241,927Z" fill="#ff6f61" stroke="#ff6f61"/><path d="M241,927L134,1124L250,1157Z" fill="#ff6d5c" stroke="#ff6d5c"/><path d="M241,927L250,1157L371,1023Z" fill="#fe6955" stroke="#fe6955"/><path d="M371,1023L250,1157L377,1155Z" fill="#fe6650" stroke="#fe6650"/><path d="M371,1023L377,1155L516,1092Z" fill="#fe6248" stroke="#fe6248"/><path d="M371,1023L516,1092L495,964Z" fill="#fe6045" stroke="#fe6045"/><path d="M495,964L516,1092L660,946Z" fill="#fe5b3d" stroke="#fe5b3d"/><path d="M660,946L516,1092L692,1171Z" fill="#fe5838" stroke="#fe5838"/><path d="M660,946L692,1171L808,985Z" fill="#fe5331" stroke="#fe5331"/><path d="M808,985L692,1171L843,1124Z" fill="#fe502c" stroke="#fe502c"/><path d="M808,985L843,1124L949,918Z" fill="#fe4c25" stroke="#fe4c25"/><path d="M949,918L843,1124L998,1130Z" fill="#fe4821" stroke="#fe4821"/><path d="M949,918L998,1130L1174,947Z" fill="#fb4119" stroke="#fb4119"/><path d="M1174,947L998,1130L1074,1155Z" fill="#fa3e17" stroke="#fa3e17"/><path d="M1174,947L1074,1155L1301,1034Z" fill="#f63611" stroke="#f63611"/><path d="M1301,1034L1074,1155L1285,1176Z" fill="#f5340e" stroke="#f5340e"/><path d="M1301,1034L1285,1176L1480,1119Z" fill="#ef2a06" stroke="#ef2a06"/><path d="M1301,1034L1480,1119L1380,924Z" fill="#ee2804" stroke="#ee2804"/><path d="M1380,924L1480,1119L1532,916Z" fill="#eb2200" stroke="#eb2200"/><path d="M1532,916L1480,1119L1629,1105Z" fill="#e81c00" stroke="#e81c00"/><path d="M1532,916L1629,1105L1728,1021Z" fill="#e51600" stroke="#e51600"/><path d="M1728,1021L1629,1105L1719,1137Z" fill="#e31100" stroke="#e31100"/><path d="M1728,1021L1719,1137L1815,984Z" fill="#e00d00" stroke="#e00d00"/><path d="M1815,984L1719,1137L1854,1177Z" fill="#df0a00" stroke="#df0a00"/><path d="M1815,984L1854,1177L1978,961Z" fill="#dc0300" stroke="#dc0300"/><path d="M1978,961L1854,1177L2016,1158Z" fill="#d90000" stroke="#d90000"/><path d="M-115,1129L250,1157L134,1124Z" fill="#ff7267" stroke="#ff7267"/><path d="M250,1157L692,1171L377,1155Z" fill="#fe6146" stroke="#fe6146"/><path d="M377,1155L692,1171L516,1092Z" fill="#fe5d3f" stroke="#fe5d3f"/><path d="M692,1171L1285,1176L1074,1155Z" fill="#fc431b" stroke="#fc431b"/><path d="M692,1171L1074,1155L843,1124Z" fill="#fe4b25" stroke="#fe4b25"/><path d="M843,1124L1074,1155L998,1130Z" fill="#fe461e" stroke="#fe461e"/><path d="M1285,1176L1854,1177L1719,1137Z" fill="#e61700" stroke="#e61700"/><path d="M1285,1176L1719,1137L1480,1119Z" fill="#ea2000" stroke="#ea2000"/><path d="M1480,1119L1719,1137L1629,1105Z" fill="#e61700" stroke="#e61700"/></g></svg>